  0
SECTION
  2
HEADER
  9
$ACADVER
  1
AC1009
  9
$EXTMIN
  10
 0.000000
  20
 0.000000
  30
 0.000000
  9
$EXTMAX
  10
 319.000000
  20
 104.000000
  30
 0.000000
  0
ENDSEC
  0
SECTION
  2
TABLES
  0
TABLE
  2
LAYER
  70
     2048
  0
LAYER
  2
0
  70
    0
  62
     7
  6
CONTINUOUS
  0
LAYER
   2
C7
  70
     64
  62
7
  6
CONTINUOUS
  0
LAYER
   2
C18
  70
     64
  62
18
  6
CONTINUOUS
  0
LAYER
   2
C126
  70
     64
  62
126
  6
CONTINUOUS
  0
LAYER
   2
C244
  70
     64
  62
244
  6
CONTINUOUS
  0
ENDTAB
  0
ENDSEC
  0
SECTION
  2
ENTITIES
  0
POLYLINE
  8
C7
  66
1
  10
0.000000
  20
104.000000
  0
VERTEX
  8
C7
  10
0.000000
  20
104.000000
  0
SEQEND
  8
C7
  0
POLYLINE
  8
C7
  66
1
  10
0.000000
  20
104.000000
  0
VERTEX
  8
C7
  10
0.000000
  20
104.000000
  0
VERTEX
  8
C7
  10
0.000000
  20
0.000000
  0
VERTEX
  8
C7
  10
319.000000
  20
0.000000
  0
VERTEX
  8
C7
  10
319.000000
  20
104.000000
  0
VERTEX
  8
C7
  10
0.000000
  20
104.000000
  0
SEQEND
  8
C126
  0
POLYLINE
  8
C126
  66
1
  10
44.000000
  20
75.000000
  0
VERTEX
  8
C126
  10
44.000000
  20
75.000000
  0
VERTEX
  8
C126
  10
43.966900
  20
75.956400
  0
VERTEX
  8
C126
  10
43.987700
  20
76.916000
  0
VERTEX
  8
C126
  10
44.058500
  20
77.878200
  0
VERTEX
  8
C126
  10
44.175000
  20
78.842300
  0
VERTEX
  8
C126
  10
44.333500
  20
79.807700
  0
VERTEX
  8
C126
  10
44.529700
  20
80.773600
  0
VERTEX
  8
C126
  10
44.759800
  20
81.739600
  0
VERTEX
  8
C126
  10
45.019600
  20
82.704900
  0
VERTEX
  8
C126
  10
45.305300
  20
83.668800
  0
VERTEX
  8
C126
  10
45.612700
  20
84.630800
  0
VERTEX
  8
C126
  10
45.937800
  20
85.590200
  0
VERTEX
  8
C126
  10
46.276700
  20
86.546300
  0
VERTEX
  8
C126
  10
46.625300
  20
87.498500
  0
VERTEX
  8
C126
  10
46.979500
  20
88.446100
  0
VERTEX
  8
C126
  10
47.335500
  20
89.388600
  0
VERTEX
  8
C126
  10
47.689100
  20
90.325100
  0
VERTEX
  8
C126
  10
48.036400
  20
91.255200
  0
VERTEX
  8
C126
  10
48.373300
  20
92.178100
  0
VERTEX
  8
C126
  10
48.695800
  20
93.093300
  0
VERTEX
  8
C126
  10
49.000000
  20
94.000000
  0
VERTEX
  8
C126
  10
48.156600
  20
93.516700
  0
VERTEX
  8
C126
  10
47.341100
  20
92.997800
  0
VERTEX
  8
C126
  10
46.553200
  20
92.444600
  0
VERTEX
  8
C126
  10
45.792300
  20
91.858600
  0
VERTEX
  8
C126
  10
45.057900
  20
91.241400
  0
VERTEX
  8
C126
  10
44.349700
  20
90.594400
  0
VERTEX
  8
C126
  10
43.667200
  20
89.919100
  0
VERTEX
  8
C126
  10
43.009800
  20
89.217000
  0
VERTEX
  8
C126
  10
42.377200
  20
88.489600
  0
VERTEX
  8
C126
  10
41.769000
  20
87.738400
  0
VERTEX
  8
C126
  10
41.184500
  20
86.964800
  0
VERTEX
  8
C126
  10
40.623400
  20
86.170400
  0
VERTEX
  8
C126
  10
40.085200
  20
85.356600
  0
VERTEX
  8
C126
  10
39.569500
  20
84.524900
  0
VERTEX
  8
C126
  10
39.075800
  20
83.676800
  0
VERTEX
  8
C126
  10
38.603700
  20
82.813800
  0
VERTEX
  8
C126
  10
38.152600
  20
81.937400
  0
VERTEX
  8
C126
  10
37.722200
  20
81.049100
  0
VERTEX
  8
C126
  10
37.311900
  20
80.150300
  0
VERTEX
  8
C126
  10
36.921400
  20
79.242600
  0
VERTEX
  8
C126
  10
36.550100
  20
78.327400
  0
VERTEX
  8
C126
  10
36.197700
  20
77.406200
  0
VERTEX
  8
C126
  10
35.863600
  20
76.480500
  0
VERTEX
  8
C126
  10
35.547300
  20
75.551800
  0
VERTEX
  8
C126
  10
35.248500
  20
74.621600
  0
VERTEX
  8
C126
  10
34.966700
  20
73.691400
  0
VERTEX
  8
C126
  10
34.701400
  20
72.762600
  0
VERTEX
  8
C126
  10
34.452100
  20
71.836800
  0
VERTEX
  8
C126
  10
34.218500
  20
70.915400
  0
VERTEX
  8
C126
  10
34.000000
  20
70.000000
  0
VERTEX
  8
C126
  10
33.789900
  20
70.937500
  0
VERTEX
  8
C126
  10
33.626600
  20
71.893000
  0
VERTEX
  8
C126
  10
33.506700
  20
72.864400
  0
VERTEX
  8
C126
  10
33.427100
  20
73.850000
  0
VERTEX
  8
C126
  10
33.384600
  20
74.847700
  0
VERTEX
  8
C126
  10
33.375900
  20
75.855800
  0
VERTEX
  8
C126
  10
33.397700
  20
76.872300
  0
VERTEX
  8
C126
  10
33.447000
  20
77.895400
  0
VERTEX
  8
C126
  10
33.520400
  20
78.923200
  0
VERTEX
  8
C126
  10
33.614700
  20
79.953800
  0
VERTEX
  8
C126
  10
33.726700
  20
80.985300
  0
VERTEX
  8
C126
  10
33.853200
  20
82.015900
  0
VERTEX
  8
C126
  10
33.991000
  20
83.043600
  0
VERTEX
  8
C126
  10
34.136800
  20
84.066600
  0
VERTEX
  8
C126
  10
34.287400
  20
85.083000
  0
VERTEX
  8
C126
  10
34.439600
  20
86.090900
  0
VERTEX
  8
C126
  10
34.590200
  20
87.088400
  0
VERTEX
  8
C126
  10
34.736000
  20
88.073700
  0
VERTEX
  8
C126
  10
34.873600
  20
89.044800
  0
VERTEX
  8
C126
  10
35.000000
  20
90.000000
  0
VERTEX
  8
C126
  10
34.299000
  20
89.315300
  0
VERTEX
  8
C126
  10
33.633700
  20
88.595100
  0
VERTEX
  8
C126
  10
33.003100
  20
87.841500
  0
VERTEX
  8
C126
  10
32.406300
  20
87.056500
  0
VERTEX
  8
C126
  10
31.842500
  20
86.242200
  0
VERTEX
  8
C126
  10
31.310700
  20
85.400600
  0
VERTEX
  8
C126
  10
30.810000
  20
84.533800
  0
VERTEX
  8
C126
  10
30.339500
  20
83.643800
  0
VERTEX
  8
C126
  10
29.898300
  20
82.732700
  0
VERTEX
  8
C126
  10
29.485500
  20
81.802600
  0
VERTEX
  8
C126
  10
29.100100
  20
80.855400
  0
VERTEX
  8
C126
  10
28.741300
  20
79.893200
  0
VERTEX
  8
C126
  10
28.408200
  20
78.918100
  0
VERTEX
  8
C126
  10
28.099900
  20
77.932200
  0
VERTEX
  8
C126
  10
27.815400
  20
76.937400
  0
VERTEX
  8
C126
  10
27.553800
  20
75.935900
  0
VERTEX
  8
C126
  10
27.314300
  20
74.929700
  0
VERTEX
  8
C126
  10
27.095800
  20
73.920800
  0
VERTEX
  8
C126
  10
26.897600
  20
72.911300
  0
VERTEX
  8
C126
  10
26.718700
  20
71.903200
  0
VERTEX
  8
C126
  10
26.558200
  20
70.898700
  0
VERTEX
  8
C126
  10
26.415200
  20
69.899600
  0
VERTEX
  8
C126
  10
26.288800
  20
68.908200
  0
VERTEX
  8
C126
  10
26.178100
  20
67.926400
  0
VERTEX
  8
C126
  10
26.082100
  20
66.956300
  0
VERTEX
  8
C126
  10
26.000000
  20
66.000000
  0
VERTEX
  8
C126
  10
23.000000
  20
80.000000
  0
VERTEX
  8
C126
  10
22.296500
  20
79.444500
  0
VERTEX
  8
C126
  10
21.671600
  20
78.828000
  0
VERTEX
  8
C126
  10
21.121300
  20
78.154800
  0
VERTEX
  8
C126
  10
20.641700
  20
77.429400
  0
VERTEX
  8
C126
  10
20.228900
  20
76.656300
  0
VERTEX
  8
C126
  10
19.879000
  20
75.839900
  0
VERTEX
  8
C126
  10
19.588200
  20
74.984600
  0
VERTEX
  8
C126
  10
19.352400
  20
74.094900
  0
VERTEX
  8
C126
  10
19.167900
  20
73.175100
  0
VERTEX
  8
C126
  10
19.030700
  20
72.229800
  0
VERTEX
  8
C126
  10
18.937000
  20
71.263400
  0
VERTEX
  8
C126
  10
18.882700
  20
70.280300
  0
VERTEX
  8
C126
  10
18.864100
  20
69.284900
  0
VERTEX
  8
C126
  10
18.877200
  20
68.281700
  0
VERTEX
  8
C126
  10
18.918100
  20
67.275100
  0
VERTEX
  8
C126
  10
18.982900
  20
66.269600
  0
VERTEX
  8
C126
  10
19.067800
  20
65.269600
  0
VERTEX
  8
C126
  10
19.168800
  20
64.279500
  0
VERTEX
  8
C126
  10
19.282000
  20
63.303800
  0
VERTEX
  8
C126
  10
19.403600
  20
62.346900
  0
VERTEX
  8
C126
  10
19.529600
  20
61.413300
  0
VERTEX
  8
C126
  10
19.656100
  20
60.507300
  0
VERTEX
  8
C126
  10
19.779300
  20
59.633500
  0
VERTEX
  8
C126
  10
19.895200
  20
58.796200
  0
VERTEX
  8
C126
  10
20.000000
  20
58.000000
  0
VERTEX
  8
C126
  10
14.000000
  20
70.000000
  0
VERTEX
  8
C126
  10
13.511300
  20
69.195400
  0
VERTEX
  8
C126
  10
13.115100
  20
68.363800
  0
VERTEX
  8
C126
  10
12.805800
  20
67.507900
  0
VERTEX
  8
C126
  10
12.577800
  20
66.630100
  0
VERTEX
  8
C126
  10
12.425500
  20
65.732900
  0
VERTEX
  8
C126
  10
12.343300
  20
64.819100
  0
VERTEX
  8
C126
  10
12.325700
  20
63.891000
  0
VERTEX
  8
C126
  10
12.366900
  20
62.951200
  0
VERTEX
  8
C126
  10
12.461500
  20
62.002400
  0
VERTEX
  8
C126
  10
12.603900
  20
61.047000
  0
VERTEX
  8
C126
  10
12.788400
  20
60.087600
  0
VERTEX
  8
C126
  10
13.009400
  20
59.126800
  0
VERTEX
  8
C126
  10
13.261400
  20
58.167100
  0
VERTEX
  8
C126
  10
13.538800
  20
57.211000
  0
VERTEX
  8
C126
  10
13.835900
  20
56.261100
  0
VERTEX
  8
C126
  10
14.147300
  20
55.320000
  0
VERTEX
  8
C126
  10
14.467200
  20
54.390100
  0
VERTEX
  8
C126
  10
14.790100
  20
53.474200
  0
VERTEX
  8
C126
  10
15.110500
  20
52.574600
  0
VERTEX
  8
C126
  10
15.422600
  20
51.694000
  0
VERTEX
  8
C126
  10
15.721000
  20
50.835000
  0
VERTEX
  8
C126
  10
16.000000
  20
50.000000
  0
VERTEX
  8
C126
  10
8.000000
  20
57.000000
  0
VERTEX
  8
C126
  10
8.080300
  20
55.930300
  0
VERTEX
  8
C126
  10
8.207800
  20
54.887300
  0
VERTEX
  8
C126
  10
8.380700
  20
53.868900
  0
VERTEX
  8
C126
  10
8.597400
  20
52.873400
  0
VERTEX
  8
C126
  10
8.856200
  20
51.898600
  0
VERTEX
  8
C126
  10
9.155400
  20
50.942800
  0
VERTEX
  8
C126
  10
9.493300
  20
50.004000
  0
VERTEX
  8
C126
  10
9.868200
  20
49.080200
  0
VERTEX
  8
C126
  10
10.278600
  20
48.169500
  0
VERTEX
  8
C126
  10
10.722600
  20
47.270100
  0
VERTEX
  8
C126
  10
11.198600
  20
46.379800
  0
VERTEX
  8
C126
  10
11.705000
  20
45.496900
  0
VERTEX
  8
C126
  10
12.239900
  20
44.619400
  0
VERTEX
  8
C126
  10
12.801900
  20
43.745400
  0
VERTEX
  8
C126
  10
13.389100
  20
42.872900
  0
VERTEX
  8
C126
  10
14.000000
  20
42.000000
  0
VERTEX
  8
C126
  10
7.000000
  20
44.000000
  0
VERTEX
  8
C126
  10
7.340800
  20
42.991600
  0
VERTEX
  8
C126
  10
7.706200
  20
42.035100
  0
VERTEX
  8
C126
  10
8.101900
  20
41.128800
  0
VERTEX
  8
C126
  10
8.533800
  20
40.271400
  0
VERTEX
  8
C126
  10
9.007900
  20
39.461500
  0
VERTEX
  8
C126
  10
9.529900
  20
38.697500
  0
VERTEX
  8
C126
  10
10.105800
  20
37.978200
  0
VERTEX
  8
C126
  10
10.741600
  20
37.302000
  0
VERTEX
  8
C126
  10
11.442900
  20
36.667500
  0
VERTEX
  8
C126
  10
12.215900
  20
36.073200
  0
VERTEX
  8
C126
  10
13.066300
  20
35.517900
  0
VERTEX
  8
C126
  10
14.000000
  20
35.000000
  0
VERTEX
  8
C126
  10
10.000000
  20
34.000000
  0
VERTEX
  8
C126
  10
14.000000
  20
29.000000
  0
VERTEX
  8
C126
  10
14.156700
  20
29.880300
  0
VERTEX
  8
C126
  10
14.349900
  20
30.749800
  0
VERTEX
  8
C126
  10
14.578600
  20
31.607600
  0
VERTEX
  8
C126
  10
14.841700
  20
32.452900
  0
VERTEX
  8
C126
  10
15.138400
  20
33.284700
  0
VERTEX
  8
C126
  10
15.467500
  20
34.102200
  0
VERTEX
  8
C126
  10
15.828300
  20
34.904400
  0
VERTEX
  8
C126
  10
16.219500
  20
35.690500
  0
VERTEX
  8
C126
  10
16.640400
  20
36.459700
  0
VERTEX
  8
C126
  10
17.089800
  20
37.210900
  0
VERTEX
  8
C126
  10
17.566800
  20
37.943300
  0
VERTEX
  8
C126
  10
18.070400
  20
38.656100
  0
VERTEX
  8
C126
  10
18.599600
  20
39.348400
  0
VERTEX
  8
C126
  10
19.153500
  20
40.019200
  0
VERTEX
  8
C126
  10
19.731100
  20
40.667700
  0
VERTEX
  8
C126
  10
20.331300
  20
41.292900
  0
VERTEX
  8
C126
  10
20.953300
  20
41.894100
  0
VERTEX
  8
C126
  10
21.595900
  20
42.470300
  0
VERTEX
  8
C126
  10
22.258200
  20
43.020600
  0
VERTEX
  8
C126
  10
22.939300
  20
43.544100
  0
VERTEX
  8
C126
  10
23.638200
  20
44.040000
  0
VERTEX
  8
C126
  10
24.353800
  20
44.507300
  0
VERTEX
  8
C126
  10
25.085200
  20
44.945300
  0
VERTEX
  8
C126
  10
25.831400
  20
45.352900
  0
VERTEX
  8
C126
  10
26.591400
  20
45.729300
  0
VERTEX
  8
C126
  10
27.364200
  20
46.073600
  0
VERTEX
  8
C126
  10
28.148900
  20
46.385000
  0
VERTEX
  8
C126
  10
28.944500
  20
46.662500
  0
VERTEX
  8
C126
  10
29.749900
  20
46.905200
  0
VERTEX
  8
C126
  10
30.564300
  20
47.112300
  0
VERTEX
  8
C126
  10
31.386500
  20
47.282900
  0
VERTEX
  8
C126
  10
32.215700
  20
47.416100
  0
VERTEX
  8
C126
  10
33.050800
  20
47.511000
  0
VERTEX
  8
C126
  10
33.890800
  20
47.566700
  0
VERTEX
  8
C126
  10
34.734900
  20
47.582300
  0
VERTEX
  8
C126
  10
35.581900
  20
47.556900
  0
VERTEX
  8
C126
  10
36.430900
  20
47.489800
  0
VERTEX
  8
C126
  10
37.281000
  20
47.379900
  0
VERTEX
  8
C126
  10
38.131100
  20
47.226300
  0
VERTEX
  8
C126
  10
38.980200
  20
47.028300
  0
VERTEX
  8
C126
  10
39.827400
  20
46.784800
  0
VERTEX
  8
C126
  10
40.671700
  20
46.495100
  0
VERTEX
  8
C126
  10
41.512100
  20
46.158200
  0
VERTEX
  8
C126
  10
42.347600
  20
45.773300
  0
VERTEX
  8
C126
  10
43.177200
  20
45.339400
  0
VERTEX
  8
C126
  10
44.000000
  20
44.855700
  0
VERTEX
  8
C126
  10
44.703400
  20
44.376100
  0
VERTEX
  8
C126
  10
45.384200
  20
43.833300
  0
VERTEX
  8
C126
  10
46.045600
  20
43.236400
  0
VERTEX
  8
C126
  10
46.690500
  20
42.594800
  0
VERTEX
  8
C126
  10
47.322200
  20
41.917700
  0
VERTEX
  8
C126
  10
47.943500
  20
41.214600
  0
VERTEX
  8
C126
  10
48.557700
  20
40.494600
  0
VERTEX
  8
C126
  10
49.167800
  20
39.767100
  0
VERTEX
  8
C126
  10
49.776800
  20
39.041400
  0
VERTEX
  8
C126
  10
50.387900
  20
38.326700
  0
VERTEX
  8
C126
  10
51.004100
  20
37.632400
  0
VERTEX
  8
C126
  10
51.628500
  20
36.967800
  0
VERTEX
  8
C126
  10
52.264200
  20
36.342200
  0
VERTEX
  8
C126
  10
52.914200
  20
35.764800
  0
VERTEX
  8
C126
  10
53.581700
  20
35.245000
  0
VERTEX
  8
C126
  10
54.269600
  20
34.792100
  0
VERTEX
  8
C126
  10
54.981100
  20
34.415400
  0
VERTEX
  8
C126
  10
55.719300
  20
34.124200
  0
VERTEX
  8
C126
  10
56.487200
  20
33.927700
  0
VERTEX
  8
C126
  10
57.287900
  20
33.835300
  0
VERTEX
  8
C126
  10
58.124400
  20
33.856300
  0
VERTEX
  8
C126
  10
59.000000
  20
34.000000
  0
VERTEX
  8
C126
  10
59.000000
  20
36.000000
  0
VERTEX
  8
C126
  10
56.000000
  20
37.000000
  0
VERTEX
  8
C126
  10
62.000000
  20
39.000000
  0
VERTEX
  8
C126
  10
61.052100
  20
39.642000
  0
VERTEX
  8
C126
  10
60.118900
  20
40.126700
  0
VERTEX
  8
C126
  10
59.185400
  20
40.476800
  0
VERTEX
  8
C126
  10
58.237000
  20
40.715000
  0
VERTEX
  8
C126
  10
57.259000
  20
40.863700
  0
VERTEX
  8
C126
  10
56.236700
  20
40.945700
  0
VERTEX
  8
C126
  10
55.155200
  20
40.983600
  0
VERTEX
  8
C126
  10
54.000000
  20
41.000000
  0
VERTEX
  8
C126
  10
64.000000
  20
44.000000
  0
VERTEX
  8
C126
  10
63.131400
  20
44.535000
  0
VERTEX
  8
C126
  10
62.252200
  20
44.966400
  0
VERTEX
  8
C126
  10
61.362600
  20
45.302100
  0
VERTEX
  8
C126
  10
60.463000
  20
45.550300
  0
VERTEX
  8
C126
  10
59.553800
  20
45.719100
  0
VERTEX
  8
C126
  10
58.635400
  20
45.816600
  0
VERTEX
  8
C126
  10
57.708200
  20
45.850800
  0
VERTEX
  8
C126
  10
56.772400
  20
45.829900
  0
VERTEX
  8
C126
  10
55.828500
  20
45.762000
  0
VERTEX
  8
C126
  10
54.876800
  20
45.655100
  0
VERTEX
  8
C126
  10
53.917800
  20
45.517300
  0
VERTEX
  8
C126
  10
52.951700
  20
45.356800
  0
VERTEX
  8
C126
  10
51.979000
  20
45.181700
  0
VERTEX
  8
C126
  10
51.000000
  20
45.000000
  0
VERTEX
  8
C126
  10
63.000000
  20
50.000000
  0
VERTEX
  8
C126
  10
62.038100
  20
50.354400
  0
VERTEX
  8
C126
  10
61.063400
  20
50.621700
  0
VERTEX
  8
C126
  10
60.077500
  20
50.809500
  0
VERTEX
  8
C126
  10
59.082300
  20
50.925400
  0
VERTEX
  8
C126
  10
58.079600
  20
50.977100
  0
VERTEX
  8
C126
  10
57.071100
  20
50.972300
  0
VERTEX
  8
C126
  10
56.058600
  20
50.918700
  0
VERTEX
  8
C126
  10
55.043900
  20
50.823800
  0
VERTEX
  8
C126
  10
54.028800
  20
50.695400
  0
VERTEX
  8
C126
  10
53.015100
  20
50.541200
  0
VERTEX
  8
C126
  10
52.004500
  20
50.368800
  0
VERTEX
  8
C126
  10
50.998900
  20
50.185800
  0
VERTEX
  8
C126
  10
50.000000
  20
50.000000
  0
VERTEX
  8
C126
  10
59.000000
  20
55.000000
  0
VERTEX
  8
C126
  10
57.999300
  20
55.341300
  0
VERTEX
  8
C126
  10
57.001100
  20
55.557700
  0
VERTEX
  8
C126
  10
56.004600
  20
55.663600
  0
VERTEX
  8
C126
  10
55.009200
  20
55.673100
  0
VERTEX
  8
C126
  10
54.014100
  20
55.600700
  0
VERTEX
  8
C126
  10
53.018700
  20
55.460600
  0
VERTEX
  8
C126
  10
52.022200
  20
55.267200
  0
VERTEX
  8
C126
  10
51.024000
  20
55.034600
  0
VERTEX
  8
C126
  10
50.023300
  20
54.777300
  0
VERTEX
  8
C126
  10
49.019600
  20
54.509600
  0
VERTEX
  8
C126
  10
48.012000
  20
54.245700
  0
VERTEX
  8
C126
  10
47.000000
  20
54.000000
  0
VERTEX
  8
C126
  10
56.000000
  20
61.000000
  0
VERTEX
  8
C126
  10
55.114500
  20
61.246700
  0
VERTEX
  8
C126
  10
54.222300
  20
61.382400
  0
VERTEX
  8
C126
  10
53.325900
  20
61.415200
  0
VERTEX
  8
C126
  10
52.427500
  20
61.352900
  0
VERTEX
  8
C126
  10
51.529700
  20
61.203800
  0
VERTEX
  8
C126
  10
50.634900
  20
60.975700
  0
VERTEX
  8
C126
  10
49.745400
  20
60.676700
  0
VERTEX
  8
C126
  10
48.863600
  20
60.314800
  0
VERTEX
  8
C126
  10
47.991900
  20
59.898000
  0
VERTEX
  8
C126
  10
47.132800
  20
59.434300
  0
VERTEX
  8
C126
  10
46.288600
  20
58.931800
  0
VERTEX
  8
C126
  10
45.461800
  20
58.398500
  0
VERTEX
  8
C126
  10
44.654800
  20
57.842300
  0
VERTEX
  8
C126
  10
43.869900
  20
57.271400
  0
VERTEX
  8
C126
  10
43.109500
  20
56.693700
  0
VERTEX
  8
C126
  10
42.376200
  20
56.117200
  0
VERTEX
  8
C126
  10
41.672200
  20
55.549900
  0
VERTEX
  8
C126
  10
41.000000
  20
55.000000
  0
VERTEX
  8
C126
  10
41.568300
  20
55.826500
  0
VERTEX
  8
C126
  10
42.146000
  20
56.604400
  0
VERTEX
  8
C126
  10
42.732700
  20
57.334500
  0
VERTEX
  8
C126
  10
43.327900
  20
58.017400
  0
VERTEX
  8
C126
  10
43.931400
  20
58.654000
  0
VERTEX
  8
C126
  10
44.542700
  20
59.245000
  0
VERTEX
  8
C126
  10
45.161400
  20
59.791300
  0
VERTEX
  8
C126
  10
45.787000
  20
60.293700
  0
VERTEX
  8
C126
  10
46.419200
  20
60.752900
  0
VERTEX
  8
C126
  10
47.057600
  20
61.169700
  0
VERTEX
  8
C126
  10
47.701800
  20
61.544900
  0
VERTEX
  8
C126
  10
48.351400
  20
61.879300
  0
VERTEX
  8
C126
  10
49.006000
  20
62.173600
  0
VERTEX
  8
C126
  10
49.665100
  20
62.428800
  0
VERTEX
  8
C126
  10
50.328500
  20
62.645400
  0
VERTEX
  8
C126
  10
50.995600
  20
62.824400
  0
VERTEX
  8
C126
  10
51.666000
  20
62.966600
  0
VERTEX
  8
C126
  10
52.339500
  20
63.072600
  0
VERTEX
  8
C126
  10
53.015500
  20
63.143300
  0
VERTEX
  8
C126
  10
53.693700
  20
63.179500
  0
VERTEX
  8
C126
  10
54.373700
  20
63.182000
  0
VERTEX
  8
C126
  10
55.055000
  20
63.151500
  0
VERTEX
  8
C126
  10
55.737300
  20
63.088800
  0
VERTEX
  8
C126
  10
56.420200
  20
62.994800
  0
VERTEX
  8
C126
  10
57.103200
  20
62.870200
  0
VERTEX
  8
C126
  10
57.786000
  20
62.715800
  0
VERTEX
  8
C126
  10
58.468200
  20
62.532400
  0
VERTEX
  8
C126
  10
59.149300
  20
62.320700
  0
VERTEX
  8
C126
  10
59.829000
  20
62.081600
  0
VERTEX
  8
C126
  10
60.506900
  20
61.815900
  0
VERTEX
  8
C126
  10
61.182500
  20
61.524200
  0
VERTEX
  8
C126
  10
61.855500
  20
61.207500
  0
VERTEX
  8
C126
  10
62.525400
  20
60.866500
  0
VERTEX
  8
C126
  10
63.191800
  20
60.502000
  0
VERTEX
  8
C126
  10
63.854500
  20
60.114800
  0
VERTEX
  8
C126
  10
64.512900
  20
59.705600
  0
VERTEX
  8
C126
  10
65.166600
  20
59.275300
  0
VERTEX
  8
C126
  10
65.815300
  20
58.824600
  0
VERTEX
  8
C126
  10
66.458500
  20
58.354300
  0
VERTEX
  8
C126
  10
67.095900
  20
57.865300
  0
VERTEX
  8
C126
  10
67.727000
  20
57.358200
  0
VERTEX
  8
C126
  10
68.351400
  20
56.833900
  0
VERTEX
  8
C126
  10
68.968800
  20
56.293200
  0
VERTEX
  8
C126
  10
69.578800
  20
55.736800
  0
VERTEX
  8
C126
  10
70.180900
  20
55.165600
  0
VERTEX
  8
C126
  10
70.774700
  20
54.580300
  0
VERTEX
  8
C126
  10
71.359900
  20
53.981800
  0
VERTEX
  8
C126
  10
71.936000
  20
53.370700
  0
VERTEX
  8
C126
  10
72.502600
  20
52.747900
  0
VERTEX
  8
C126
  10
73.059400
  20
52.114200
  0
VERTEX
  8
C126
  10
73.605900
  20
51.470300
  0
VERTEX
  8
C126
  10
74.141700
  20
50.817100
  0
VERTEX
  8
C126
  10
74.666500
  20
50.155300
  0
VERTEX
  8
C126
  10
75.179800
  20
49.485800
  0
VERTEX
  8
C126
  10
75.681200
  20
48.809200
  0
VERTEX
  8
C126
  10
76.170300
  20
48.126500
  0
VERTEX
  8
C126
  10
76.646800
  20
47.438300
  0
VERTEX
  8
C126
  10
77.110200
  20
46.745500
  0
VERTEX
  8
C126
  10
77.560100
  20
46.048800
  0
VERTEX
  8
C126
  10
77.996100
  20
45.349100
  0
VERTEX
  8
C126
  10
78.417900
  20
44.647100
  0
VERTEX
  8
C126
  10
78.825000
  20
43.943600
  0
VERTEX
  8
C126
  10
79.217000
  20
43.239400
  0
VERTEX
  8
C126
  10
79.593500
  20
42.535300
  0
VERTEX
  8
C126
  10
79.954100
  20
41.832100
  0
VERTEX
  8
C126
  10
80.298400
  20
41.130500
  0
VERTEX
  8
C126
  10
80.626100
  20
40.431400
  0
VERTEX
  8
C126
  10
80.936600
  20
39.735500
  0
VERTEX
  8
C126
  10
81.229700
  20
39.043600
  0
VERTEX
  8
C126
  10
81.504900
  20
38.356600
  0
VERTEX
  8
C126
  10
81.761800
  20
37.675100
  0
VERTEX
  8
C126
  10
82.000000
  20
37.000000
  0
VERTEX
  8
C126
  10
82.562300
  20
37.578800
  0
VERTEX
  8
C126
  10
83.092600
  20
38.212100
  0
VERTEX
  8
C126
  10
83.564000
  20
38.879700
  0
VERTEX
  8
C126
  10
83.949700
  20
39.560900
  0
VERTEX
  8
C126
  10
84.222900
  20
40.235500
  0
VERTEX
  8
C126
  10
84.356900
  20
40.883000
  0
VERTEX
  8
C126
  10
84.324800
  20
41.483100
  0
VERTEX
  8
C126
  10
84.099800
  20
42.015200
  0
VERTEX
  8
C126
  10
83.655200
  20
42.459000
  0
VERTEX
  8
C126
  10
82.964200
  20
42.794000
  0
VERTEX
  8
C126
  10
82.000000
  20
43.000000
  0
VERTEX
  8
C126
  10
83.059800
  20
43.703000
  0
VERTEX
  8
C126
  10
83.811600
  20
44.305100
  0
VERTEX
  8
C126
  10
84.333600
  20
44.955700
  0
VERTEX
  8
C126
  10
84.703700
  20
45.804200
  0
VERTEX
  8
C126
  10
85.000000
  20
47.000000
  0
VERTEX
  8
C126
  10
92.000000
  20
47.000000
  0
VERTEX
  8
C126
  10
91.088200
  20
47.597300
  0
VERTEX
  8
C126
  10
90.158500
  20
48.108200
  0
VERTEX
  8
C126
  10
89.210700
  20
48.539700
  0
VERTEX
  8
C126
  10
88.245200
  20
48.899000
  0
VERTEX
  8
C126
  10
87.262000
  20
49.193400
  0
VERTEX
  8
C126
  10
86.261300
  20
49.430100
  0
VERTEX
  8
C126
  10
85.243200
  20
49.616300
  0
VERTEX
  8
C126
  10
84.207900
  20
49.759200
  0
VERTEX
  8
C126
  10
83.155500
  20
49.865900
  0
VERTEX
  8
C126
  10
82.086100
  20
49.943800
  0
VERTEX
  8
C126
  10
81.000000
  20
50.000000
  0
VERTEX
  8
C126
  10
95.000000
  20
55.000000
  0
VERTEX
  8
C126
  10
94.022700
  20
55.385100
  0
VERTEX
  8
C126
  10
93.044700
  20
55.718400
  0
VERTEX
  8
C126
  10
92.065600
  20
56.003600
  0
VERTEX
  8
C126
  10
91.084900
  20
56.244300
  0
VERTEX
  8
C126
  10
90.102100
  20
56.444300
  0
VERTEX
  8
C126
  10
89.117000
  20
56.607100
  0
VERTEX
  8
C126
  10
88.129000
  20
56.736500
  0
VERTEX
  8
C126
  10
87.137700
  20
56.836200
  0
VERTEX
  8
C126
  10
86.142800
  20
56.909700
  0
VERTEX
  8
C126
  10
85.143700
  20
56.960900
  0
VERTEX
  8
C126
  10
84.140200
  20
56.993300
  0
VERTEX
  8
C126
  10
83.131600
  20
57.010600
  0
VERTEX
  8
C126
  10
82.117700
  20
57.016600
  0
VERTEX
  8
C126
  10
81.098000
  20
57.014800
  0
VERTEX
  8
C126
  10
80.072100
  20
57.009000
  0
VERTEX
  8
C126
  10
79.039600
  20
57.002800
  0
VERTEX
  8
C126
  10
78.000000
  20
57.000000
  0
VERTEX
  8
C126
  10
95.000000
  20
64.000000
  0
VERTEX
  8
C126
  10
94.095400
  20
64.344600
  0
VERTEX
  8
C126
  10
93.162300
  20
64.633900
  0
VERTEX
  8
C126
  10
92.203600
  20
64.870500
  0
VERTEX
  8
C126
  10
91.222300
  20
65.056900
  0
VERTEX
  8
C126
  10
90.221400
  20
65.195600
  0
VERTEX
  8
C126
  10
89.204000
  20
65.289200
  0
VERTEX
  8
C126
  10
88.173000
  20
65.340200
  0
VERTEX
  8
C126
  10
87.131400
  20
65.351100
  0
VERTEX
  8
C126
  10
86.082300
  20
65.324400
  0
VERTEX
  8
C126
  10
85.028600
  20
65.262800
  0
VERTEX
  8
C126
  10
83.973400
  20
65.168700
  0
VERTEX
  8
C126
  10
82.919800
  20
65.044600
  0
VERTEX
  8
C126
  10
81.870600
  20
64.893200
  0
VERTEX
  8
C126
  10
80.828900
  20
64.716900
  0
VERTEX
  8
C126
  10
79.797700
  20
64.518300
  0
VERTEX
  8
C126
  10
78.780100
  20
64.300000
  0
VERTEX
  8
C126
  10
77.778900
  20
64.064300
  0
VERTEX
  8
C126
  10
76.797400
  20
63.814000
  0
VERTEX
  8
C126
  10
75.838300
  20
63.551400
  0
VERTEX
  8
C126
  10
74.904900
  20
63.279200
  0
VERTEX
  8
C126
  10
74.000000
  20
63.000000
  0
VERTEX
  8
C126
  10
92.000000
  20
73.000000
  0
VERTEX
  8
C126
  10
91.089700
  20
73.345700
  0
VERTEX
  8
C126
  10
90.169100
  20
73.625700
  0
VERTEX
  8
C126
  10
89.239200
  20
73.842900
  0
VERTEX
  8
C126
  10
88.301200
  20
74.000300
  0
VERTEX
  8
C126
  10
87.356100
  20
74.100900
  0
VERTEX
  8
C126
  10
86.405000
  20
74.147700
  0
VERTEX
  8
C126
  10
85.449100
  20
74.143700
  0
VERTEX
  8
C126
  10
84.489400
  20
74.091800
  0
VERTEX
  8
C126
  10
83.527000
  20
73.995200
  0
VERTEX
  8
C126
  10
82.563100
  20
73.856700
  0
VERTEX
  8
C126
  10
81.598600
  20
73.679400
  0
VERTEX
  8
C126
  10
80.634800
  20
73.466200
  0
VERTEX
  8
C126
  10
79.672800
  20
73.220100
  0
VERTEX
  8
C126
  10
78.713500
  20
72.944200
  0
VERTEX
  8
C126
  10
77.758200
  20
72.641400
  0
VERTEX
  8
C126
  10
76.807900
  20
72.314700
  0
VERTEX
  8
C126
  10
75.863700
  20
71.967100
  0
VERTEX
  8
C126
  10
74.926700
  20
71.601600
  0
VERTEX
  8
C126
  10
73.998000
  20
71.221200
  0
VERTEX
  8
C126
  10
73.078800
  20
70.828800
  0
VERTEX
  8
C126
  10
72.170000
  20
70.427600
  0
VERTEX
  8
C126
  10
71.272900
  20
70.020400
  0
VERTEX
  8
C126
  10
70.388500
  20
69.610200
  0
VERTEX
  8
C126
  10
69.517900
  20
69.200100
  0
VERTEX
  8
C126
  10
68.662200
  20
68.793000
  0
VERTEX
  8
C126
  10
67.822500
  20
68.392000
  0
VERTEX
  8
C126
  10
67.000000
  20
68.000000
  0
VERTEX
  8
C126
  10
87.000000
  20
82.000000
  0
VERTEX
  8
C126
  10
86.164600
  20
82.304000
  0
VERTEX
  8
C126
  10
85.304700
  20
82.534900
  0
VERTEX
  8
C126
  10
84.422600
  20
82.696000
  0
VERTEX
  8
C126
  10
83.520700
  20
82.790800
  0
VERTEX
  8
C126
  10
82.601300
  20
82.822500
  0
VERTEX
  8
C126
  10
81.666700
  20
82.794600
  0
VERTEX
  8
C126
  10
80.719300
  20
82.710600
  0
VERTEX
  8
C126
  10
79.761400
  20
82.573800
  0
VERTEX
  8
C126
  10
78.795300
  20
82.387700
  0
VERTEX
  8
C126
  10
77.823400
  20
82.155600
  0
VERTEX
  8
C126
  10
76.848100
  20
81.880900
  0
VERTEX
  8
C126
  10
75.871600
  20
81.567100
  0
VERTEX
  8
C126
  10
74.896300
  20
81.217500
  0
VERTEX
  8
C126
  10
73.924500
  20
80.835600
  0
VERTEX
  8
C126
  10
72.958600
  20
80.424800
  0
VERTEX
  8
C126
  10
72.000900
  20
79.988400
  0
VERTEX
  8
C126
  10
71.053700
  20
79.529900
  0
VERTEX
  8
C126
  10
70.119500
  20
79.052700
  0
VERTEX
  8
C126
  10
69.200400
  20
78.560200
  0
VERTEX
  8
C126
  10
68.299000
  20
78.055700
  0
VERTEX
  8
C126
  10
67.417400
  20
77.542800
  0
VERTEX
  8
C126
  10
66.558000
  20
77.024700
  0
VERTEX
  8
C126
  10
65.723300
  20
76.505000
  0
VERTEX
  8
C126
  10
64.915400
  20
75.986900
  0
VERTEX
  8
C126
  10
64.136800
  20
75.474000
  0
VERTEX
  8
C126
  10
63.389800
  20
74.969600
  0
VERTEX
  8
C126
  10
62.676800
  20
74.477100
  0
VERTEX
  8
C126
  10
62.000000
  20
74.000000
  0
VERTEX
  8
C126
  10
62.562400
  20
74.779500
  0
VERTEX
  8
C126
  10
63.145900
  20
75.552700
  0
VERTEX
  8
C126
  10
63.749400
  20
76.319500
  0
VERTEX
  8
C126
  10
64.371800
  20
77.079400
  0
VERTEX
  8
C126
  10
65.012100
  20
77.832300
  0
VERTEX
  8
C126
  10
65.669400
  20
78.577900
  0
VERTEX
  8
C126
  10
66.342500
  20
79.315900
  0
VERTEX
  8
C126
  10
67.030400
  20
80.046000
  0
VERTEX
  8
C126
  10
67.732200
  20
80.768000
  0
VERTEX
  8
C126
  10
68.446800
  20
81.481700
  0
VERTEX
  8
C126
  10
69.173100
  20
82.186700
  0
VERTEX
  8
C126
  10
69.910100
  20
82.882700
  0
VERTEX
  8
C126
  10
70.656900
  20
83.569600
  0
VERTEX
  8
C126
  10
71.412300
  20
84.247100
  0
VERTEX
  8
C126
  10
72.175300
  20
84.914800
  0
VERTEX
  8
C126
  10
72.945000
  20
85.572600
  0
VERTEX
  8
C126
  10
73.720300
  20
86.220100
  0
VERTEX
  8
C126
  10
74.500100
  20
86.857100
  0
VERTEX
  8
C126
  10
75.283400
  20
87.483400
  0
VERTEX
  8
C126
  10
76.069200
  20
88.098600
  0
VERTEX
  8
C126
  10
76.856600
  20
88.702600
  0
VERTEX
  8
C126
  10
77.644300
  20
89.294900
  0
VERTEX
  8
C126
  10
78.431500
  20
89.875400
  0
VERTEX
  8
C126
  10
79.217000
  20
90.443900
  0
VERTEX
  8
C126
  10
80.000000
  20
91.000000
  0
VERTEX
  8
C126
  10
79.148000
  20
91.215000
  0
VERTEX
  8
C126
  10
78.290600
  20
91.359900
  0
VERTEX
  8
C126
  10
77.428600
  20
91.437500
  0
VERTEX
  8
C126
  10
76.562900
  20
91.450800
  0
VERTEX
  8
C126
  10
75.694300
  20
91.402500
  0
VERTEX
  8
C126
  10
74.823600
  20
91.295600
  0
VERTEX
  8
C126
  10
73.951800
  20
91.132900
  0
VERTEX
  8
C126
  10
73.079700
  20
90.917300
  0
VERTEX
  8
C126
  10
72.208100
  20
90.651600
  0
VERTEX
  8
C126
  10
71.337900
  20
90.338600
  0
VERTEX
  8
C126
  10
70.470000
  20
89.981300
  0
VERTEX
  8
C126
  10
69.605100
  20
89.582500
  0
VERTEX
  8
C126
  10
68.744200
  20
89.145100
  0
VERTEX
  8
C126
  10
67.888100
  20
88.671900
  0
VERTEX
  8
C126
  10
67.037700
  20
88.165700
  0
VERTEX
  8
C126
  10
66.193800
  20
87.629600
  0
VERTEX
  8
C126
  10
65.357200
  20
87.066200
  0
VERTEX
  8
C126
  10
64.528900
  20
86.478500
  0
VERTEX
  8
C126
  10
63.709700
  20
85.869300
  0
VERTEX
  8
C126
  10
62.900400
  20
85.241500
  0
VERTEX
  8
C126
  10
62.101900
  20
84.598000
  0
VERTEX
  8
C126
  10
61.315000
  20
83.941500
  0
VERTEX
  8
C126
  10
60.540700
  20
83.275100
  0
VERTEX
  8
C126
  10
59.779700
  20
82.601500
  0
VERTEX
  8
C126
  10
59.032800
  20
81.923500
  0
VERTEX
  8
C126
  10
58.301100
  20
81.244100
  0
VERTEX
  8
C126
  10
57.585300
  20
80.566200
  0
VERTEX
  8
C126
  10
56.886200
  20
79.892400
  0
VERTEX
  8
C126
  10
56.204800
  20
79.225900
  0
VERTEX
  8
C126
  10
55.541800
  20
78.569300
  0
VERTEX
  8
C126
  10
54.898200
  20
77.925600
  0
VERTEX
  8
C126
  10
54.274700
  20
77.297600
  0
VERTEX
  8
C126
  10
53.672300
  20
76.688200
  0
VERTEX
  8
C126
  10
53.091800
  20
76.100200
  0
VERTEX
  8
C126
  10
52.534100
  20
75.536500
  0
VERTEX
  8
C126
  10
52.000000
  20
75.000000
  0
VERTEX
  8
C126
  10
67.000000
  20
97.000000
  0
VERTEX
  8
C126
  10
66.141200
  20
96.730400
  0
VERTEX
  8
C126
  10
65.281700
  20
96.427500
  0
VERTEX
  8
C126
  10
64.422600
  20
96.092200
  0
VERTEX
  8
C126
  10
63.565100
  20
95.725500
  0
VERTEX
  8
C126
  10
62.710100
  20
95.328400
  0
VERTEX
  8
C126
  10
61.858800
  20
94.901800
  0
VERTEX
  8
C126
  10
61.012300
  20
94.446800
  0
VERTEX
  8
C126
  10
60.171800
  20
93.964300
  0
VERTEX
  8
C126
  10
59.338200
  20
93.455300
  0
VERTEX
  8
C126
  10
58.512700
  20
92.920800
  0
VERTEX
  8
C126
  10
57.696500
  20
92.361700
  0
VERTEX
  8
C126
  10
56.890600
  20
91.779200
  0
VERTEX
  8
C126
  10
56.096100
  20
91.174000
  0
VERTEX
  8
C126
  10
55.314100
  20
90.547300
  0
VERTEX
  8
C126
  10
54.545700
  20
89.900100
  0
VERTEX
  8
C126
  10
53.792000
  20
89.233200
  0
VERTEX
  8
C126
  10
53.054200
  20
88.547700
  0
VERTEX
  8
C126
  10
52.333300
  20
87.844600
  0
VERTEX
  8
C126
  10
51.630400
  20
87.124800
  0
VERTEX
  8
C126
  10
50.946700
  20
86.389400
  0
VERTEX
  8
C126
  10
50.283200
  20
85.639300
  0
VERTEX
  8
C126
  10
49.641000
  20
84.875400
  0
VERTEX
  8
C126
  10
49.021200
  20
84.098900
  0
VERTEX
  8
C126
  10
48.425000
  20
83.310700
  0
VERTEX
  8
C126
  10
47.853400
  20
82.511700
  0
VERTEX
  8
C126
  10
47.307600
  20
81.703000
  0
VERTEX
  8
C126
  10
46.788600
  20
80.885500
  0
VERTEX
  8
C126
  10
46.297600
  20
80.060200
  0
VERTEX
  8
C126
  10
45.835600
  20
79.228100
  0
VERTEX
  8
C126
  10
45.403800
  20
78.390100
  0
VERTEX
  8
C126
  10
45.003200
  20
77.547400
  0
VERTEX
  8
C126
  10
44.634900
  20
76.700800
  0
VERTEX
  8
C126
  10
44.300200
  20
75.851300
  0
VERTEX
  8
C126
  10
44.000000
  20
75.000000
  0
SEQEND
  8
C7
  0
POLYLINE
  8
C7
  66
1
  10
42.333332
  20
74.333336
  0
VERTEX
  8
C7
  10
42.333332
  20
74.333336
  0
VERTEX
  8
C7
  10
42.666668
  20
73.666664
  0
VERTEX
  8
C7
  10
42.333332
  20
74.333336
  0
SEQEND
  8
C7
  0
POLYLINE
  8
C7
  66
1
  10
61.000000
  20
74.000000
  0
VERTEX
  8
C7
  10
61.000000
  20
74.000000
  0
VERTEX
  8
C7
  10
59.000000
  20
71.000000
  0
VERTEX
  8
C7
  10
61.000000
  20
74.000000
  0
SEQEND
  8
C7
  0
POLYLINE
  8
C7
  66
1
  10
66.000000
  20
68.000000
  0
VERTEX
  8
C7
  10
66.000000
  20
68.000000
  0
VERTEX
  8
C7
  10
65.000000
  20
66.000000
  0
VERTEX
  8
C7
  10
66.000000
  20
68.000000
  0
SEQEND
  8
C7
  0
POLYLINE
  8
C7
  66
1
  10
34.000000
  20
54.000000
  0
VERTEX
  8
C7
  10
34.000000
  20
54.000000
  0
VERTEX
  8
C7
  10
43.000000
  20
64.000000
  0
VERTEX
  8
C7
  10
41.876800
  20
63.713000
  0
VERTEX
  8
C7
  10
40.861800
  20
63.378600
  0
VERTEX
  8
C7
  10
39.947100
  20
62.995000
  0
VERTEX
  8
C7
  10
39.125100
  20
62.560800
  0
VERTEX
  8
C7
  10
38.388100
  20
62.074400
  0
VERTEX
  8
C7
  10
37.728400
  20
61.534300
  0
VERTEX
  8
C7
  10
37.138300
  20
60.938900
  0
VERTEX
  8
C7
  10
36.610100
  20
60.286600
  0
VERTEX
  8
C7
  10
36.136100
  20
59.576000
  0
VERTEX
  8
C7
  10
35.708700
  20
58.805500
  0
VERTEX
  8
C7
  10
35.320000
  20
57.973500
  0
VERTEX
  8
C7
  10
34.962500
  20
57.078500
  0
VERTEX
  8
C7
  10
34.628500
  20
56.118900
  0
VERTEX
  8
C7
  10
34.310200
  20
55.093300
  0
VERTEX
  8
C7
  10
34.000000
  20
54.000000
  0
SEQEND
  8
C7
  0
POLYLINE
  8
C7
  66
1
  10
41.000000
  20
55.000000
  0
VERTEX
  8
C7
  10
41.000000
  20
55.000000
  0
VERTEX
  8
C7
  10
41.905400
  20
55.548500
  0
VERTEX
  8
C7
  10
42.804800
  20
56.097500
  0
VERTEX
  8
C7
  10
43.700400
  20
56.643500
  0
VERTEX
  8
C7
  10
44.594300
  20
57.183400
  0
VERTEX
  8
C7
  10
45.488900
  20
57.714000
  0
VERTEX
  8
C7
  10
46.386200
  20
58.231800
  0
VERTEX
  8
C7
  10
47.288600
  20
58.733800
  0
VERTEX
  8
C7
  10
48.198200
  20
59.216700
  0
VERTEX
  8
C7
  10
49.117200
  20
59.677100
  0
VERTEX
  8
C7
  10
50.047900
  20
60.111900
  0
VERTEX
  8
C7
  10
50.992400
  20
60.517800
  0
VERTEX
  8
C7
  10
51.952900
  20
60.891500
  0
VERTEX
  8
C7
  10
52.931800
  20
61.229900
  0
VERTEX
  8
C7
  10
53.931100
  20
61.529500
  0
VERTEX
  8
C7
  10
54.953100
  20
61.787300
  0
VERTEX
  8
C7
  10
56.000000
  20
62.000000
  0
VERTEX
  8
C7
  10
47.000000
  20
54.000000
  0
VERTEX
  8
C7
  10
59.000000
  20
56.000000
  0
VERTEX
  8
C7
  10
50.000000
  20
51.000000
  0
VERTEX
  8
C7
  10
63.000000
  20
51.000000
  0
VERTEX
  8
C7
  10
51.000000
  20
46.000000
  0
VERTEX
  8
C7
  10
64.000000
  20
45.000000
  0
VERTEX
  8
C7
  10
54.000000
  20
42.000000
  0
VERTEX
  8
C7
  10
54.904300
  20
41.645300
  0
VERTEX
  8
C7
  10
55.812200
  20
41.358000
  0
VERTEX
  8
C7
  10
56.716500
  20
41.140800
  0
VERTEX
  8
C7
  10
57.610100
  20
40.996300
  0
VERTEX
  8
C7
  10
58.485800
  20
40.927500
  0
VERTEX
  8
C7
  10
59.336400
  20
40.936900
  0
VERTEX
  8
C7
  10
60.154900
  20
41.027500
  0
VERTEX
  8
C7
  10
60.934100
  20
41.201900
  0
VERTEX
  8
C7
  10
61.666900
  20
41.462900
  0
VERTEX
  8
C7
  10
62.346100
  20
41.813300
  0
VERTEX
  8
C7
  10
62.964500
  20
42.255800
  0
VERTEX
  8
C7
  10
63.515100
  20
42.793200
  0
VERTEX
  8
C7
  10
63.990700
  20
43.428200
  0
VERTEX
  8
C7
  10
64.384100
  20
44.163700
  0
VERTEX
  8
C7
  10
64.688200
  20
45.002200
  0
VERTEX
  8
C7
  10
64.895900
  20
45.946800
  0
VERTEX
  8
C7
  10
65.000000
  20
47.000000
  0
VERTEX
  8
C7
  10
66.156200
  20
46.976500
  0
VERTEX
  8
C7
  10
67.223000
  20
46.908700
  0
VERTEX
  8
C7
  10
68.204700
  20
46.798200
  0
VERTEX
  8
C7
  10
69.105200
  20
46.646100
  0
VERTEX
  8
C7
  10
69.928900
  20
46.453800
  0
VERTEX
  8
C7
  10
70.679900
  20
46.222800
  0
VERTEX
  8
C7
  10
71.362200
  20
45.954400
  0
VERTEX
  8
C7
  10
71.980200
  20
45.649900
  0
VERTEX
  8
C7
  10
72.537800
  20
45.310700
  0
VERTEX
  8
C7
  10
73.039400
  20
44.938100
  0
VERTEX
  8
C7
  10
73.489000
  20
44.533600
  0
VERTEX
  8
C7
  10
73.890800
  20
44.098400
  0
VERTEX
  8
C7
  10
74.248900
  20
43.633900
  0
VERTEX
  8
C7
  10
74.567600
  20
43.141600
  0
VERTEX
  8
C7
  10
74.850900
  20
42.622700
  0
VERTEX
  8
C7
  10
75.103000
  20
42.078600
  0
VERTEX
  8
C7
  10
75.328200
  20
41.510700
  0
VERTEX
  8
C7
  10
75.530400
  20
40.920200
  0
VERTEX
  8
C7
  10
75.714000
  20
40.308700
  0
VERTEX
  8
C7
  10
75.883000
  20
39.677500
  0
VERTEX
  8
C7
  10
76.041600
  20
39.027800
  0
VERTEX
  8
C7
  10
76.194000
  20
38.361100
  0
VERTEX
  8
C7
  10
76.344300
  20
37.678700
  0
VERTEX
  8
C7
  10
76.496700
  20
36.982100
  0
VERTEX
  8
C7
  10
76.655300
  20
36.272400
  0
VERTEX
  8
C7
  10
76.824300
  20
35.551200
  0
VERTEX
  8
C7
  10
77.007800
  20
34.819700
  0
VERTEX
  8
C7
  10
77.210000
  20
34.079300
  0
VERTEX
  8
C7
  10
77.435100
  20
33.331500
  0
VERTEX
  8
C7
  10
77.687200
  20
32.577400
  0
VERTEX
  8
C7
  10
77.970500
  20
31.818600
  0
VERTEX
  8
C7
  10
78.289100
  20
31.056300
  0
VERTEX
  8
C7
  10
78.647200
  20
30.291900
  0
VERTEX
  8
C7
  10
79.048900
  20
29.526800
  0
VERTEX
  8
C7
  10
79.498500
  20
28.762400
  0
VERTEX
  8
C7
  10
80.000000
  20
28.000000
  0
VERTEX
  8
C7
  10
80.255100
  20
28.642800
  0
VERTEX
  8
C7
  10
80.481200
  20
29.291900
  0
VERTEX
  8
C7
  10
80.678500
  20
29.946800
  0
VERTEX
  8
C7
  10
80.847700
  20
30.606900
  0
VERTEX
  8
C7
  10
80.989200
  20
31.271900
  0
VERTEX
  8
C7
  10
81.103500
  20
31.941300
  0
VERTEX
  8
C7
  10
81.191100
  20
32.614800
  0
VERTEX
  8
C7
  10
81.252400
  20
33.291700
  0
VERTEX
  8
C7
  10
81.288000
  20
33.971800
  0
VERTEX
  8
C7
  10
81.298400
  20
34.654500
  0
VERTEX
  8
C7
  10
81.283900
  20
35.339500
  0
VERTEX
  8
C7
  10
81.245200
  20
36.026200
  0
VERTEX
  8
C7
  10
81.182700
  20
36.714300
  0
VERTEX
  8
C7
  10
81.096900
  20
37.403300
  0
VERTEX
  8
C7
  10
80.988200
  20
38.092700
  0
VERTEX
  8
C7
  10
80.857200
  20
38.782200
  0
VERTEX
  8
C7
  10
80.704300
  20
39.471200
  0
VERTEX
  8
C7
  10
80.530000
  20
40.159400
  0
VERTEX
  8
C7
  10
80.334900
  20
40.846300
  0
VERTEX
  8
C7
  10
80.119300
  20
41.531400
  0
VERTEX
  8
C7
  10
79.883900
  20
42.214300
  0
VERTEX
  8
C7
  10
79.629000
  20
42.894700
  0
VERTEX
  8
C7
  10
79.355100
  20
43.572000
  0
VERTEX
  8
C7
  10
79.062800
  20
44.245700
  0
VERTEX
  8
C7
  10
78.752500
  20
44.915600
  0
VERTEX
  8
C7
  10
78.424800
  20
45.581000
  0
VERTEX
  8
C7
  10
78.080000
  20
46.241600
  0
VERTEX
  8
C7
  10
77.718700
  20
46.897000
  0
VERTEX
  8
C7
  10
77.341400
  20
47.546600
  0
VERTEX
  8
C7
  10
76.948600
  20
48.190100
  0
VERTEX
  8
C7
  10
76.540700
  20
48.827000
  0
VERTEX
  8
C7
  10
76.118200
  20
49.456900
  0
VERTEX
  8
C7
  10
75.681600
  20
50.079400
  0
VERTEX
  8
C7
  10
75.231500
  20
50.693900
  0
VERTEX
  8
C7
  10
74.768200
  20
51.300000
  0
VERTEX
  8
C7
  10
74.292300
  20
51.897400
  0
VERTEX
  8
C7
  10
73.804200
  20
52.485600
  0
VERTEX
  8
C7
  10
73.304500
  20
53.064100
  0
VERTEX
  8
C7
  10
72.793600
  20
53.632400
  0
VERTEX
  8
C7
  10
72.272000
  20
54.190300
  0
VERTEX
  8
C7
  10
71.740200
  20
54.737100
  0
VERTEX
  8
C7
  10
71.198800
  20
55.272500
  0
VERTEX
  8
C7
  10
70.648000
  20
55.796000
  0
VERTEX
  8
C7
  10
70.088600
  20
56.307200
  0
VERTEX
  8
C7
  10
69.520900
  20
56.805700
  0
VERTEX
  8
C7
  10
68.945400
  20
57.291000
  0
VERTEX
  8
C7
  10
68.362600
  20
57.762600
  0
VERTEX
  8
C7
  10
67.773000
  20
58.220200
  0
VERTEX
  8
C7
  10
67.177200
  20
58.663200
  0
VERTEX
  8
C7
  10
66.575400
  20
59.091300
  0
VERTEX
  8
C7
  10
65.968400
  20
59.504000
  0
VERTEX
  8
C7
  10
65.356500
  20
59.900900
  0
VERTEX
  8
C7
  10
64.740200
  20
60.281500
  0
VERTEX
  8
C7
  10
64.120000
  20
60.645400
  0
VERTEX
  8
C7
  10
63.496500
  20
60.992100
  0
VERTEX
  8
C7
  10
62.870000
  20
61.321200
  0
VERTEX
  8
C7
  10
62.241100
  20
61.632300
  0
VERTEX
  8
C7
  10
61.610300
  20
61.924900
  0
VERTEX
  8
C7
  10
60.978000
  20
62.198600
  0
VERTEX
  8
C7
  10
60.344700
  20
62.452900
  0
VERTEX
  8
C7
  10
59.710900
  20
62.687500
  0
VERTEX
  8
C7
  10
59.077200
  20
62.901700
  0
VERTEX
  8
C7
  10
58.443900
  20
63.095400
  0
VERTEX
  8
C7
  10
57.811600
  20
63.267800
  0
VERTEX
  8
C7
  10
57.180800
  20
63.418800
  0
VERTEX
  8
C7
  10
56.551900
  20
63.547700
  0
VERTEX
  8
C7
  10
55.925500
  20
63.654200
  0
VERTEX
  8
C7
  10
55.301900
  20
63.737800
  0
VERTEX
  8
C7
  10
54.681800
  20
63.798000
  0
VERTEX
  8
C7
  10
54.065600
  20
63.834600
  0
VERTEX
  8
C7
  10
53.453700
  20
63.846900
  0
VERTEX
  8
C7
  10
52.846700
  20
63.834500
  0
VERTEX
  8
C7
  10
52.245100
  20
63.797100
  0
VERTEX
  8
C7
  10
51.649200
  20
63.734200
  0
VERTEX
  8
C7
  10
51.059700
  20
63.645300
  0
VERTEX
  8
C7
  10
50.477000
  20
63.529900
  0
VERTEX
  8
C7
  10
49.901600
  20
63.387800
  0
VERTEX
  8
C7
  10
49.334000
  20
63.218300
  0
VERTEX
  8
C7
  10
48.774600
  20
63.021100
  0
VERTEX
  8
C7
  10
48.224000
  20
62.795800
  0
VERTEX
  8
C7
  10
47.682600
  20
62.541800
  0
VERTEX
  8
C7
  10
47.150900
  20
62.258800
  0
VERTEX
  8
C7
  10
46.629400
  20
61.946300
  0
VERTEX
  8
C7
  10
46.118600
  20
61.603900
  0
VERTEX
  8
C7
  10
45.619000
  20
61.231100
  0
VERTEX
  8
C7
  10
45.131100
  20
60.827500
  0
VERTEX
  8
C7
  10
44.655300
  20
60.392600
  0
VERTEX
  8
C7
  10
44.192100
  20
59.926100
  0
VERTEX
  8
C7
  10
43.742100
  20
59.427400
  0
VERTEX
  8
C7
  10
43.305600
  20
58.896200
  0
VERTEX
  8
C7
  10
42.883300
  20
58.331900
  0
VERTEX
  8
C7
  10
42.475500
  20
57.734200
  0
VERTEX
  8
C7
  10
42.082800
  20
57.102600
  0
VERTEX
  8
C7
  10
41.705700
  20
56.436600
  0
VERTEX
  8
C7
  10
41.344600
  20
55.735900
  0
VERTEX
  8
C7
  10
41.000000
  20
55.000000
  0
SEQEND
  8
C7
  0
POLYLINE
  8
C7
  66
1
  10
31.000000
  20
60.000000
  0
VERTEX
  8
C7
  10
31.000000
  20
60.000000
  0
VERTEX
  8
C7
  10
28.000000
  20
53.000000
  0
VERTEX
  8
C7
  10
28.767000
  20
53.792700
  0
VERTEX
  8
C7
  10
29.447000
  20
54.570000
  0
VERTEX
  8
C7
  10
30.027400
  20
55.351200
  0
VERTEX
  8
C7
  10
30.495800
  20
56.155900
  0
VERTEX
  8
C7
  10
30.839700
  20
57.003500
  0
VERTEX
  8
C7
  10
31.046700
  20
57.913800
  0
VERTEX
  8
C7
  10
31.104200
  20
58.906100
  0
VERTEX
  8
C7
  10
31.000000
  20
60.000000
  0
SEQEND
  8
C7
  0
POLYLINE
  8
C7
  66
1
  10
20.000000
  20
58.000000
  0
VERTEX
  8
C7
  10
20.000000
  20
58.000000
  0
VERTEX
  8
C7
  10
21.000000
  20
57.000000
  0
VERTEX
  8
C7
  10
20.000000
  20
58.000000
  0
SEQEND
  8
C7
  0
POLYLINE
  8
C7
  66
1
  10
77.000000
  20
57.000000
  0
VERTEX
  8
C7
  10
77.000000
  20
57.000000
  0
VERTEX
  8
C7
  10
78.000000
  20
56.000000
  0
VERTEX
  8
C7
  10
77.000000
  20
57.000000
  0
SEQEND
  8
C7
  0
POLYLINE
  8
C7
  66
1
  10
46.000000
  20
54.000000
  0
VERTEX
  8
C7
  10
46.000000
  20
54.000000
  0
VERTEX
  8
C7
  10
45.000000
  20
52.000000
  0
VERTEX
  8
C7
  10
46.000000
  20
54.000000
  0
SEQEND
  8
C7
  0
POLYLINE
  8
C7
  66
1
  10
16.000000
  20
50.000000
  0
VERTEX
  8
C7
  10
16.000000
  20
50.000000
  0
VERTEX
  8
C7
  10
17.000000
  20
49.000000
  0
VERTEX
  8
C7
  10
16.000000
  20
50.000000
  0
SEQEND
  8
C7
  0
POLYLINE
  8
C7
  66
1
  10
49.000000
  20
50.000000
  0
VERTEX
  8
C7
  10
49.000000
  20
50.000000
  0
VERTEX
  8
C7
  10
50.000000
  20
49.000000
  0
VERTEX
  8
C7
  10
49.000000
  20
50.000000
  0
SEQEND
  8
C18
  0
POLYLINE
  8
C18
  66
1
  10
65.000000
  20
47.000000
  0
VERTEX
  8
C18
  10
65.000000
  20
47.000000
  0
VERTEX
  8
C18
  10
64.870600
  20
46.186700
  0
VERTEX
  8
C18
  10
64.666200
  20
45.326000
  0
VERTEX
  8
C18
  10
64.391400
  20
44.427600
  0
VERTEX
  8
C18
  10
64.051000
  20
43.501100
  0
VERTEX
  8
C18
  10
63.649500
  20
42.556200
  0
VERTEX
  8
C18
  10
63.191600
  20
41.602600
  0
VERTEX
  8
C18
  10
62.682100
  20
40.650000
  0
VERTEX
  8
C18
  10
62.125500
  20
39.708000
  0
VERTEX
  8
C18
  10
61.526600
  20
38.786300
  0
VERTEX
  8
C18
  10
60.889900
  20
37.894500
  0
VERTEX
  8
C18
  10
60.220300
  20
37.042400
  0
VERTEX
  8
C18
  10
59.522300
  20
36.239600
  0
VERTEX
  8
C18
  10
58.800500
  20
35.495800
  0
VERTEX
  8
C18
  10
58.059800
  20
34.820600
  0
VERTEX
  8
C18
  10
57.304700
  20
34.223800
  0
VERTEX
  8
C18
  10
56.539900
  20
33.714900
  0
VERTEX
  8
C18
  10
55.770100
  20
33.303800
  0
VERTEX
  8
C18
  10
55.000000
  20
33.000000
  0
VERTEX
  8
C18
  10
54.000000
  20
27.000000
  0
VERTEX
  8
C18
  10
61.000000
  20
29.000000
  0
VERTEX
  8
C18
  10
60.000000
  20
32.000000
  0
VERTEX
  8
C18
  10
61.006400
  20
32.225600
  0
VERTEX
  8
C18
  10
61.988700
  20
32.414900
  0
VERTEX
  8
C18
  10
62.942900
  20
32.560200
  0
VERTEX
  8
C18
  10
63.865100
  20
32.653900
  0
VERTEX
  8
C18
  10
64.751300
  20
32.688500
  0
VERTEX
  8
C18
  10
65.597700
  20
32.656300
  0
VERTEX
  8
C18
  10
66.400200
  20
32.549900
  0
VERTEX
  8
C18
  10
67.154900
  20
32.361600
  0
VERTEX
  8
C18
  10
67.858000
  20
32.083900
  0
VERTEX
  8
C18
  10
68.505300
  20
31.709100
  0
VERTEX
  8
C18
  10
69.093100
  20
31.229900
  0
VERTEX
  8
C18
  10
69.617300
  20
30.638400
  0
VERTEX
  8
C18
  10
70.074000
  20
29.927300
  0
VERTEX
  8
C18
  10
70.459300
  20
29.088900
  0
VERTEX
  8
C18
  10
70.769300
  20
28.115600
  0
VERTEX
  8
C18
  10
71.000000
  20
27.000000
  0
VERTEX
  8
C18
  10
88.000000
  20
27.000000
  0
VERTEX
  8
C18
  10
88.094700
  20
28.050600
  0
VERTEX
  8
C18
  10
88.209700
  20
29.074400
  0
VERTEX
  8
C18
  10
88.351700
  20
30.072000
  0
VERTEX
  8
C18
  10
88.527800
  20
31.044300
  0
VERTEX
  8
C18
  10
88.745000
  20
31.991900
  0
VERTEX
  8
C18
  10
89.010100
  20
32.915600
  0
VERTEX
  8
C18
  10
89.330300
  20
33.816300
  0
VERTEX
  8
C18
  10
89.712400
  20
34.694600
  0
VERTEX
  8
C18
  10
90.163500
  20
35.551400
  0
VERTEX
  8
C18
  10
90.690400
  20
36.387400
  0
VERTEX
  8
C18
  10
91.300300
  20
37.203300
  0
VERTEX
  8
C18
  10
92.000000
  20
38.000000
  0
VERTEX
  8
C18
  10
93.000000
  20
47.000000
  0
VERTEX
  8
C18
  10
85.000000
  20
47.000000
  0
VERTEX
  8
C18
  10
80.000000
  20
28.000000
  0
VERTEX
  8
C18
  10
79.577100
  20
28.905800
  0
VERTEX
  8
C18
  10
79.196900
  20
29.802100
  0
VERTEX
  8
C18
  10
78.855300
  20
30.687800
  0
VERTEX
  8
C18
  10
78.548200
  20
31.561700
  0
VERTEX
  8
C18
  10
78.271500
  20
32.422900
  0
VERTEX
  8
C18
  10
78.021000
  20
33.270200
  0
VERTEX
  8
C18
  10
77.792700
  20
34.102600
  0
VERTEX
  8
C18
  10
77.582500
  20
34.919000
  0
VERTEX
  8
C18
  10
77.386200
  20
35.718200
  0
VERTEX
  8
C18
  10
77.199800
  20
36.499300
  0
VERTEX
  8
C18
  10
77.019100
  20
37.261200
  0
VERTEX
  8
C18
  10
76.840000
  20
38.002700
  0
VERTEX
  8
C18
  10
76.658400
  20
38.722900
  0
VERTEX
  8
C18
  10
76.470300
  20
39.420600
  0
VERTEX
  8
C18
  10
76.271500
  20
40.094700
  0
VERTEX
  8
C18
  10
76.057900
  20
40.744200
  0
VERTEX
  8
C18
  10
75.825300
  20
41.368100
  0
VERTEX
  8
C18
  10
75.569800
  20
41.965100
  0
VERTEX
  8
C18
  10
75.287100
  20
42.534400
  0
VERTEX
  8
C18
  10
74.973200
  20
43.074700
  0
VERTEX
  8
C18
  10
74.624000
  20
43.585000
  0
VERTEX
  8
C18
  10
74.235400
  20
44.064200
  0
VERTEX
  8
C18
  10
73.803100
  20
44.511300
  0
VERTEX
  8
C18
  10
73.323300
  20
44.925100
  0
VERTEX
  8
C18
  10
72.791600
  20
45.304700
  0
VERTEX
  8
C18
  10
72.204100
  20
45.648900
  0
VERTEX
  8
C18
  10
71.556700
  20
45.956600
  0
VERTEX
  8
C18
  10
70.845100
  20
46.226900
  0
VERTEX
  8
C18
  10
70.065300
  20
46.458500
  0
VERTEX
  8
C18
  10
69.213300
  20
46.650400
  0
VERTEX
  8
C18
  10
68.284800
  20
46.801600
  0
VERTEX
  8
C18
  10
67.275900
  20
46.911000
  0
VERTEX
  8
C18
  10
66.182300
  20
46.977500
  0
VERTEX
  8
C18
  10
65.000000
  20
47.000000
  0
SEQEND
  8
C126
  0
POLYLINE
  8
C126
  66
1
  10
93.000000
  20
47.000000
  0
VERTEX
  8
C126
  10
93.000000
  20
47.000000
  0
VERTEX
  8
C126
  10
94.000000
  20
46.000000
  0
VERTEX
  8
C126
  10
93.000000
  20
47.000000
  0
SEQEND
  8
C18
  0
POLYLINE
  8
C18
  66
1
  10
114.000000
  20
44.000000
  0
VERTEX
  8
C18
  10
114.000000
  20
44.000000
  0
VERTEX
  8
C18
  10
122.000000
  20
44.000000
  0
VERTEX
  8
C18
  10
122.000000
  20
47.000000
  0
VERTEX
  8
C18
  10
120.855500
  20
46.984700
  0
VERTEX
  8
C18
  10
119.798000
  20
46.949700
  0
VERTEX
  8
C18
  10
118.817600
  20
46.869400
  0
VERTEX
  8
C18
  10
117.904400
  20
46.718200
  0
VERTEX
  8
C18
  10
117.048400
  20
46.470300
  0
VERTEX
  8
C18
  10
116.239900
  20
46.100100
  0
VERTEX
  8
C18
  10
115.468900
  20
45.582100
  0
VERTEX
  8
C18
  10
114.725500
  20
44.890600
  0
VERTEX
  8
C18
  10
114.000000
  20
44.000000
  0
SEQEND
  8
C18
  0
POLYLINE
  8
C18
  66
1
  10
146.000000
  20
44.000000
  0
VERTEX
  8
C18
  10
146.000000
  20
44.000000
  0
VERTEX
  8
C18
  10
154.000000
  20
44.000000
  0
VERTEX
  8
C18
  10
154.000000
  20
47.000000
  0
VERTEX
  8
C18
  10
152.855500
  20
46.984700
  0
VERTEX
  8
C18
  10
151.798000
  20
46.949700
  0
VERTEX
  8
C18
  10
150.817600
  20
46.869400
  0
VERTEX
  8
C18
  10
149.904400
  20
46.718200
  0
VERTEX
  8
C18
  10
149.048400
  20
46.470300
  0
VERTEX
  8
C18
  10
148.239900
  20
46.100100
  0
VERTEX
  8
C18
  10
147.468900
  20
45.582100
  0
VERTEX
  8
C18
  10
146.725500
  20
44.890600
  0
VERTEX
  8
C18
  10
146.000000
  20
44.000000
  0
SEQEND
  8
C18
  0
POLYLINE
  8
C18
  66
1
  10
208.000000
  20
47.000000
  0
VERTEX
  8
C18
  10
208.000000
  20
47.000000
  0
VERTEX
  8
C18
  10
204.000000
  20
27.000000
  0
VERTEX
  8
C18
  10
212.000000
  20
27.000000
  0
VERTEX
  8
C18
  10
213.000000
  20
36.000000
  0
VERTEX
  8
C18
  10
216.000000
  20
36.000000
  0
VERTEX
  8
C18
  10
217.000000
  20
27.000000
  0
VERTEX
  8
C18
  10
225.000000
  20
27.000000
  0
VERTEX
  8
C18
  10
223.000000
  20
36.000000
  0
VERTEX
  8
C18
  10
223.647200
  20
36.264300
  0
VERTEX
  8
C18
  10
224.291600
  20
36.631800
  0
VERTEX
  8
C18
  10
224.921400
  20
37.090400
  0
VERTEX
  8
C18
  10
225.525100
  20
37.628200
  0
VERTEX
  8
C18
  10
226.090900
  20
38.233300
  0
VERTEX
  8
C18
  10
226.607200
  20
38.893600
  0
VERTEX
  8
C18
  10
227.062300
  20
39.597400
  0
VERTEX
  8
C18
  10
227.444600
  20
40.332700
  0
VERTEX
  8
C18
  10
227.742300
  20
41.087400
  0
VERTEX
  8
C18
  10
227.943900
  20
41.849800
  0
VERTEX
  8
C18
  10
228.037600
  20
42.607800
  0
VERTEX
  8
C18
  10
228.011800
  20
43.349600
  0
VERTEX
  8
C18
  10
227.854900
  20
44.063100
  0
VERTEX
  8
C18
  10
227.555100
  20
44.736500
  0
VERTEX
  8
C18
  10
227.100700
  20
45.357900
  0
VERTEX
  8
C18
  10
226.480300
  20
45.915200
  0
VERTEX
  8
C18
  10
225.682000
  20
46.396600
  0
VERTEX
  8
C18
  10
224.902200
  20
46.730000
  0
VERTEX
  8
C18
  10
224.059300
  20
46.998400
  0
VERTEX
  8
C18
  10
223.160700
  20
47.207400
  0
VERTEX
  8
C18
  10
222.213800
  20
47.362600
  0
VERTEX
  8
C18
  10
221.225900
  20
47.469500
  0
VERTEX
  8
C18
  10
220.204400
  20
47.533700
  0
VERTEX
  8
C18
  10
219.156600
  20
47.560800
  0
VERTEX
  8
C18
  10
218.089900
  20
47.556200
  0
VERTEX
  8
C18
  10
217.011600
  20
47.525700
  0
VERTEX
  8
C18
  10
215.929100
  20
47.474800
  0
VERTEX
  8
C18
  10
214.849700
  20
47.409000
  0
VERTEX
  8
C18
  10
213.780800
  20
47.333900
  0
VERTEX
  8
C18
  10
212.729800
  20
47.255000
  0
VERTEX
  8
C18
  10
211.704000
  20
47.178100
  0
VERTEX
  8
C18
  10
210.710700
  20
47.108500
  0
VERTEX
  8
C18
  10
209.757400
  20
47.051900
  0
VERTEX
  8
C18
  10
208.851400
  20
47.013900
  0
VERTEX
  8
C18
  10
208.000000
  20
47.000000
  0
SEQEND
  8
C18
  0
POLYLINE
  8
C18
  66
1
  10
275.000000
  20
42.000000
  0
VERTEX
  8
C18
  10
275.000000
  20
42.000000
  0
VERTEX
  8
C18
  10
271.000000
  20
42.000000
  0
VERTEX
  8
C18
  10
271.270200
  20
40.826400
  0
VERTEX
  8
C18
  10
271.583500
  20
40.061600
  0
VERTEX
  8
C18
  10
272.061600
  20
39.583500
  0
VERTEX
  8
C18
  10
272.826400
  20
39.270200
  0
VERTEX
  8
C18
  10
274.000000
  20
39.000000
  0
VERTEX
  8
C18
  10
271.000000
  20
27.000000
  0
VERTEX
  8
C18
  10
278.000000
  20
27.000000
  0
VERTEX
  8
C18
  10
278.205400
  20
28.010300
  0
VERTEX
  8
C18
  10
278.406400
  20
29.002500
  0
VERTEX
  8
C18
  10
278.610300
  20
29.972200
  0
VERTEX
  8
C18
  10
278.824400
  20
30.915400
  0
VERTEX
  8
C18
  10
279.056000
  20
31.827800
  0
VERTEX
  8
C18
  10
279.312500
  20
32.705400
  0
VERTEX
  8
C18
  10
279.601200
  20
33.543900
  0
VERTEX
  8
C18
  10
279.929400
  20
34.339200
  0
VERTEX
  8
C18
  10
280.304500
  20
35.087100
  0
VERTEX
  8
C18
  10
280.733800
  20
35.783500
  0
VERTEX
  8
C18
  10
281.224700
  20
36.424200
  0
VERTEX
  8
C18
  10
281.784400
  20
37.005100
  0
VERTEX
  8
C18
  10
282.420400
  20
37.521900
  0
VERTEX
  8
C18
  10
283.139900
  20
37.970500
  0
VERTEX
  8
C18
  10
283.950200
  20
38.346800
  0
VERTEX
  8
C18
  10
284.858800
  20
38.646600
  0
VERTEX
  8
C18
  10
285.872900
  20
38.865700
  0
VERTEX
  8
C18
  10
287.000000
  20
39.000000
  0
VERTEX
  8
C18
  10
286.807400
  20
37.867900
  0
VERTEX
  8
C18
  10
286.726300
  20
36.870000
  0
VERTEX
  8
C18
  10
286.751200
  20
35.996300
  0
VERTEX
  8
C18
  10
286.876300
  20
35.236800
  0
VERTEX
  8
C18
  10
287.096000
  20
34.581600
  0
VERTEX
  8
C18
  10
287.404800
  20
34.020500
  0
VERTEX
  8
C18
  10
287.796900
  20
33.543700
  0
VERTEX
  8
C18
  10
288.266700
  20
33.141100
  0
VERTEX
  8
C18
  10
288.808700
  20
32.802800
  0
VERTEX
  8
C18
  10
289.417000
  20
32.518700
  0
VERTEX
  8
C18
  10
290.086200
  20
32.278800
  0
VERTEX
  8
C18
  10
290.810600
  20
32.073200
  0
VERTEX
  8
C18
  10
291.584500
  20
31.892000
  0
VERTEX
  8
C18
  10
292.402300
  20
31.724900
  0
VERTEX
  8
C18
  10
293.258400
  20
31.562200
  0
VERTEX
  8
C18
  10
294.147100
  20
31.393800
  0
VERTEX
  8
C18
  10
295.062900
  20
31.209700
  0
VERTEX
  8
C18
  10
296.000000
  20
31.000000
  0
VERTEX
  8
C18
  10
285.000000
  20
30.000000
  0
VERTEX
  8
C18
  10
285.000000
  20
27.000000
  0
VERTEX
  8
C18
  10
285.943300
  20
26.995000
  0
VERTEX
  8
C18
  10
286.880800
  20
26.982500
  0
VERTEX
  8
C18
  10
287.810400
  20
26.966200
  0
VERTEX
  8
C18
  10
288.730300
  20
26.949500
  0
VERTEX
  8
C18
  10
289.638600
  20
26.936200
  0
VERTEX
  8
C18
  10
290.533300
  20
26.929800
  0
VERTEX
  8
C18
  10
291.412600
  20
26.934000
  0
VERTEX
  8
C18
  10
292.274600
  20
26.952300
  0
VERTEX
  8
C18
  10
293.117300
  20
26.988300
  0
VERTEX
  8
C18
  10
293.938900
  20
27.045800
  0
VERTEX
  8
C18
  10
294.737400
  20
27.128200
  0
VERTEX
  8
C18
  10
295.511000
  20
27.239200
  0
VERTEX
  8
C18
  10
296.257700
  20
27.382500
  0
VERTEX
  8
C18
  10
296.975700
  20
27.561500
  0
VERTEX
  8
C18
  10
297.663000
  20
27.780000
  0
VERTEX
  8
C18
  10
298.317700
  20
28.041500
  0
VERTEX
  8
C18
  10
298.938000
  20
28.349600
  0
VERTEX
  8
C18
  10
299.521900
  20
28.708000
  0
VERTEX
  8
C18
  10
300.067500
  20
29.120300
  0
VERTEX
  8
C18
  10
300.573000
  20
29.590100
  0
VERTEX
  8
C18
  10
301.036300
  20
30.120900
  0
VERTEX
  8
C18
  10
301.455700
  20
30.716400
  0
VERTEX
  8
C18
  10
301.829200
  20
31.380300
  0
VERTEX
  8
C18
  10
302.154900
  20
32.116000
  0
VERTEX
  8
C18
  10
302.430900
  20
32.927300
  0
VERTEX
  8
C18
  10
302.655300
  20
33.817700
  0
VERTEX
  8
C18
  10
302.826200
  20
34.790900
  0
VERTEX
  8
C18
  10
302.941700
  20
35.850500
  0
VERTEX
  8
C18
  10
303.000000
  20
37.000000
  0
VERTEX
  8
C18
  10
294.000000
  20
38.000000
  0
VERTEX
  8
C18
  10
305.000000
  20
39.000000
  0
VERTEX
  8
C18
  10
305.000000
  20
42.000000
  0
VERTEX
  8
C18
  10
304.086000
  20
42.011500
  0
VERTEX
  8
C18
  10
303.143700
  20
42.042100
  0
VERTEX
  8
C18
  10
302.177700
  20
42.085500
  0
VERTEX
  8
C18
  10
301.192700
  20
42.135300
  0
VERTEX
  8
C18
  10
300.193300
  20
42.185300
  0
VERTEX
  8
C18
  10
299.184100
  20
42.229200
  0
VERTEX
  8
C18
  10
298.169800
  20
42.260700
  0
VERTEX
  8
C18
  10
297.155000
  20
42.273700
  0
VERTEX
  8
C18
  10
296.144300
  20
42.261800
  0
VERTEX
  8
C18
  10
295.142500
  20
42.218700
  0
VERTEX
  8
C18
  10
294.154000
  20
42.138100
  0
VERTEX
  8
C18
  10
293.183600
  20
42.013900
  0
VERTEX
  8
C18
  10
292.235900
  20
41.839800
  0
VERTEX
  8
C18
  10
291.315500
  20
41.609300
  0
VERTEX
  8
C18
  10
290.427100
  20
41.316400
  0
VERTEX
  8
C18
  10
289.575300
  20
40.954700
  0
VERTEX
  8
C18
  10
288.764700
  20
40.518000
  0
VERTEX
  8
C18
  10
288.000000
  20
40.000000
  0
VERTEX
  8
C18
  10
282.000000
  20
42.000000
  0
VERTEX
  8
C18
  10
289.000000
  20
47.000000
  0
VERTEX
  8
C18
  10
288.065100
  20
47.011100
  0
VERTEX
  8
C18
  10
287.118500
  20
47.038400
  0
VERTEX
  8
C18
  10
286.165800
  20
47.072400
  0
VERTEX
  8
C18
  10
285.212800
  20
47.103700
  0
VERTEX
  8
C18
  10
284.265000
  20
47.122900
  0
VERTEX
  8
C18
  10
283.328100
  20
47.120600
  0
VERTEX
  8
C18
  10
282.407900
  20
47.087500
  0
VERTEX
  8
C18
  10
281.509900
  20
47.014100
  0
VERTEX
  8
C18
  10
280.639800
  20
46.891100
  0
VERTEX
  8
C18
  10
279.803300
  20
46.709000
  0
VERTEX
  8
C18
  10
279.006000
  20
46.458500
  0
VERTEX
  8
C18
  10
278.253700
  20
46.130200
  0
VERTEX
  8
C18
  10
277.551900
  20
45.714600
  0
VERTEX
  8
C18
  10
276.906400
  20
45.202500
  0
VERTEX
  8
C18
  10
276.322800
  20
44.584300
  0
VERTEX
  8
C18
  10
275.806700
  20
43.850800
  0
VERTEX
  8
C18
  10
275.363900
  20
42.992400
  0
VERTEX
  8
C18
  10
275.000000
  20
42.000000
  0
SEQEND
  8
C7
  0
POLYLINE
  8
C7
  66
1
  10
82.000000
  20
44.000000
  0
VERTEX
  8
C7
  10
82.000000
  20
44.000000
  0
VERTEX
  8
C7
  10
85.000000
  20
43.000000
  0
VERTEX
  8
C7
  10
82.000000
  20
44.000000
  0
SEQEND
  8
C7
  0
POLYLINE
  8
C7
  66
1
  10
215.000000
  20
39.000000
  0
VERTEX
  8
C7
  10
215.000000
  20
39.000000
  0
VERTEX
  8
C7
  10
216.186800
  20
39.126700
  0
VERTEX
  8
C7
  10
217.205800
  20
39.316400
  0
VERTEX
  8
C7
  10
218.073200
  20
39.588200
  0
VERTEX
  8
C7
  10
218.805200
  20
39.960900
  0
VERTEX
  8
C7
  10
219.417900
  20
40.453400
  0
VERTEX
  8
C7
  10
219.927500
  20
41.084700
  0
VERTEX
  8
C7
  10
220.350300
  20
41.873600
  0
VERTEX
  8
C7
  10
220.702400
  20
42.839000
  0
VERTEX
  8
C7
  10
221.000000
  20
44.000000
  0
VERTEX
  8
C7
  10
219.797900
  20
43.878100
  0
VERTEX
  8
C7
  10
218.759400
  20
43.698500
  0
VERTEX
  8
C7
  10
217.871700
  20
43.439300
  0
VERTEX
  8
C7
  10
217.122200
  20
43.078800
  0
VERTEX
  8
C7
  10
216.498000
  20
42.595500
  0
VERTEX
  8
C7
  10
215.986400
  20
41.967600
  0
VERTEX
  8
C7
  10
215.574700
  20
41.173500
  0
VERTEX
  8
C7
  10
215.250100
  20
40.191500
  0
VERTEX
  8
C7
  10
215.000000
  20
39.000000
  0
SEQEND
  8
C7
  0
POLYLINE
  8
C7
  66
1
  10
67.000000
  20
43.000000
  0
VERTEX
  8
C7
  10
67.000000
  20
43.000000
  0
VERTEX
  8
C7
  10
63.000000
  20
36.000000
  0
VERTEX
  8
C7
  10
70.000000
  20
36.000000
  0
VERTEX
  8
C7
  10
67.000000
  20
43.000000
  0
SEQEND
  8
C7
  0
POLYLINE
  8
C7
  66
1
  10
14.000000
  20
42.000000
  0
VERTEX
  8
C7
  10
14.000000
  20
42.000000
  0
VERTEX
  8
C7
  10
15.000000
  20
41.000000
  0
VERTEX
  8
C7
  10
14.000000
  20
42.000000
  0
SEQEND
  8
C18
  0
POLYLINE
  8
C18
  66
1
  10
101.000000
  20
32.000000
  0
VERTEX
  8
C18
  10
101.000000
  20
32.000000
  0
VERTEX
  8
C18
  10
101.000000
  20
30.000000
  0
VERTEX
  8
C18
  10
90.000000
  20
29.000000
  0
VERTEX
  8
C18
  10
90.767300
  20
28.456800
  0
VERTEX
  8
C18
  10
91.549800
  20
27.976600
  0
VERTEX
  8
C18
  10
92.345000
  20
27.558300
  0
VERTEX
  8
C18
  10
93.150200
  20
27.200900
  0
VERTEX
  8
C18
  10
93.962700
  20
26.903400
  0
VERTEX
  8
C18
  10
94.779900
  20
26.664900
  0
VERTEX
  8
C18
  10
95.599200
  20
26.484400
  0
VERTEX
  8
C18
  10
96.417900
  20
26.360900
  0
VERTEX
  8
C18
  10
97.233300
  20
26.293400
  0
VERTEX
  8
C18
  10
98.042800
  20
26.280900
  0
VERTEX
  8
C18
  10
98.843800
  20
26.322500
  0
VERTEX
  8
C18
  10
99.633700
  20
26.417200
  0
VERTEX
  8
C18
  10
100.409700
  20
26.564000
  0
VERTEX
  8
C18
  10
101.169200
  20
26.762000
  0
VERTEX
  8
C18
  10
101.909700
  20
27.010000
  0
VERTEX
  8
C18
  10
102.628400
  20
27.307300
  0
VERTEX
  8
C18
  10
103.322700
  20
27.652700
  0
VERTEX
  8
C18
  10
103.989900
  20
28.045300
  0
VERTEX
  8
C18
  10
104.627500
  20
28.484200
  0
VERTEX
  8
C18
  10
105.232700
  20
28.968300
  0
VERTEX
  8
C18
  10
105.802900
  20
29.496700
  0
VERTEX
  8
C18
  10
106.335600
  20
30.068400
  0
VERTEX
  8
C18
  10
106.827900
  20
30.682400
  0
VERTEX
  8
C18
  10
107.277400
  20
31.337700
  0
VERTEX
  8
C18
  10
107.681300
  20
32.033400
  0
VERTEX
  8
C18
  10
108.037000
  20
32.768400
  0
VERTEX
  8
C18
  10
108.341900
  20
33.541800
  0
VERTEX
  8
C18
  10
108.593200
  20
34.352700
  0
VERTEX
  8
C18
  10
108.788500
  20
35.200000
  0
VERTEX
  8
C18
  10
108.924900
  20
36.082700
  0
VERTEX
  8
C18
  10
109.000000
  20
37.000000
  0
VERTEX
  8
C18
  10
100.000000
  20
38.000000
  0
VERTEX
  8
C18
  10
110.000000
  20
39.000000
  0
VERTEX
  8
C18
  10
110.000000
  20
42.000000
  0
VERTEX
  8
C18
  10
109.127700
  20
42.015700
  0
VERTEX
  8
C18
  10
108.194900
  20
42.057200
  0
VERTEX
  8
C18
  10
107.212000
  20
42.115700
  0
VERTEX
  8
C18
  10
106.189200
  20
42.182500
  0
VERTEX
  8
C18
  10
105.137100
  20
42.248900
  0
VERTEX
  8
C18
  10
104.065900
  20
42.306200
  0
VERTEX
  8
C18
  10
102.986000
  20
42.345600
  0
VERTEX
  8
C18
  10
101.907800
  20
42.358400
  0
VERTEX
  8
C18
  10
100.841600
  20
42.336000
  0
VERTEX
  8
C18
  10
99.797900
  20
42.269500
  0
VERTEX
  8
C18
  10
98.787000
  20
42.150300
  0
VERTEX
  8
C18
  10
97.819200
  20
41.969700
  0
VERTEX
  8
C18
  10
96.904900
  20
41.719000
  0
VERTEX
  8
C18
  10
96.054600
  20
41.389400
  0
VERTEX
  8
C18
  10
95.278500
  20
40.972200
  0
VERTEX
  8
C18
  10
94.360300
  20
40.345200
  0
VERTEX
  8
C18
  10
93.608000
  20
39.731700
  0
VERTEX
  8
C18
  10
93.012700
  20
39.132700
  0
VERTEX
  8
C18
  10
92.565500
  20
38.549600
  0
VERTEX
  8
C18
  10
92.257400
  20
37.983400
  0
VERTEX
  8
C18
  10
92.079500
  20
37.435300
  0
VERTEX
  8
C18
  10
92.023100
  20
36.906600
  0
VERTEX
  8
C18
  10
92.079000
  20
36.398200
  0
VERTEX
  8
C18
  10
92.238500
  20
35.911500
  0
VERTEX
  8
C18
  10
92.492700
  20
35.447600
  0
VERTEX
  8
C18
  10
92.832500
  20
35.007600
  0
VERTEX
  8
C18
  10
93.249200
  20
34.592800
  0
VERTEX
  8
C18
  10
93.733800
  20
34.204200
  0
VERTEX
  8
C18
  10
94.277400
  20
33.843200
  0
VERTEX
  8
C18
  10
94.871100
  20
33.510700
  0
VERTEX
  8
C18
  10
95.506000
  20
33.208100
  0
VERTEX
  8
C18
  10
96.173300
  20
32.936400
  0
VERTEX
  8
C18
  10
96.863900
  20
32.696900
  0
VERTEX
  8
C18
  10
97.568900
  20
32.490600
  0
VERTEX
  8
C18
  10
98.279600
  20
32.318900
  0
VERTEX
  8
C18
  10
98.986900
  20
32.182800
  0
VERTEX
  8
C18
  10
99.682100
  20
32.083500
  0
VERTEX
  8
C18
  10
100.356000
  20
32.022100
  0
VERTEX
  8
C18
  10
101.000000
  20
32.000000
  0
SEQEND
  8
C18
  0
POLYLINE
  8
C18
  66
1
  10
113.000000
  20
42.000000
  0
VERTEX
  8
C18
  10
113.000000
  20
42.000000
  0
VERTEX
  8
C18
  10
110.000000
  20
27.000000
  0
VERTEX
  8
C18
  10
111.106200
  20
27.050900
  0
VERTEX
  8
C18
  10
112.117500
  20
27.174100
  0
VERTEX
  8
C18
  10
113.039300
  20
27.366500
  0
VERTEX
  8
C18
  10
113.876600
  20
27.625100
  0
VERTEX
  8
C18
  10
114.634900
  20
27.946800
  0
VERTEX
  8
C18
  10
115.319200
  20
28.328600
  0
VERTEX
  8
C18
  10
115.935000
  20
28.767500
  0
VERTEX
  8
C18
  10
116.487400
  20
29.260300
  0
VERTEX
  8
C18
  10
116.981800
  20
29.804000
  0
VERTEX
  8
C18
  10
117.423300
  20
30.395700
  0
VERTEX
  8
C18
  10
117.817200
  20
31.032200
  0
VERTEX
  8
C18
  10
118.168800
  20
31.710500
  0
VERTEX
  8
C18
  10
118.483400
  20
32.427500
  0
VERTEX
  8
C18
  10
118.766100
  20
33.180200
  0
VERTEX
  8
C18
  10
119.022300
  20
33.965600
  0
VERTEX
  8
C18
  10
119.257100
  20
34.780600
  0
VERTEX
  8
C18
  10
119.475900
  20
35.622100
  0
VERTEX
  8
C18
  10
119.684000
  20
36.487100
  0
VERTEX
  8
C18
  10
119.886500
  20
37.372500
  0
VERTEX
  8
C18
  10
120.088700
  20
38.275400
  0
VERTEX
  8
C18
  10
120.295900
  20
39.192600
  0
VERTEX
  8
C18
  10
120.513300
  20
40.121200
  0
VERTEX
  8
C18
  10
120.746300
  20
41.058000
  0
VERTEX
  8
C18
  10
121.000000
  20
42.000000
  0
VERTEX
  8
C18
  10
113.000000
  20
42.000000
  0
SEQEND
  8
C18
  0
POLYLINE
  8
C18
  66
1
  10
123.000000
  20
42.000000
  0
VERTEX
  8
C18
  10
123.000000
  20
42.000000
  0
VERTEX
  8
C18
  10
119.000000
  20
22.000000
  0
VERTEX
  8
C18
  10
126.000000
  20
22.000000
  0
VERTEX
  8
C18
  10
127.000000
  20
28.000000
  0
VERTEX
  8
C18
  10
127.585100
  20
27.853300
  0
VERTEX
  8
C18
  10
128.209000
  20
27.746200
  0
VERTEX
  8
C18
  10
128.866800
  20
27.677900
  0
VERTEX
  8
C18
  10
129.553900
  20
27.647600
  0
VERTEX
  8
C18
  10
130.265400
  20
27.654500
  0
VERTEX
  8
C18
  10
130.996700
  20
27.697700
  0
VERTEX
  8
C18
  10
131.743200
  20
27.776600
  0
VERTEX
  8
C18
  10
132.500000
  20
27.890100
  0
VERTEX
  8
C18
  10
133.262400
  20
28.037600
  0
VERTEX
  8
C18
  10
134.025700
  20
28.218300
  0
VERTEX
  8
C18
  10
134.785300
  20
28.431200
  0
VERTEX
  8
C18
  10
135.536300
  20
28.675700
  0
VERTEX
  8
C18
  10
136.274100
  20
28.951000
  0
VERTEX
  8
C18
  10
136.994000
  20
29.256100
  0
VERTEX
  8
C18
  10
137.691200
  20
29.590300
  0
VERTEX
  8
C18
  10
138.361000
  20
29.952900
  0
VERTEX
  8
C18
  10
138.998700
  20
30.342900
  0
VERTEX
  8
C18
  10
139.599600
  20
30.759600
  0
VERTEX
  8
C18
  10
140.159000
  20
31.202100
  0
VERTEX
  8
C18
  10
140.672100
  20
31.669800
  0
VERTEX
  8
C18
  10
141.134200
  20
32.161700
  0
VERTEX
  8
C18
  10
141.540700
  20
32.677000
  0
VERTEX
  8
C18
  10
141.886700
  20
33.215000
  0
VERTEX
  8
C18
  10
142.167600
  20
33.774800
  0
VERTEX
  8
C18
  10
142.378700
  20
34.355700
  0
VERTEX
  8
C18
  10
142.515200
  20
34.956800
  0
VERTEX
  8
C18
  10
142.572500
  20
35.577300
  0
VERTEX
  8
C18
  10
142.545700
  20
36.216400
  0
VERTEX
  8
C18
  10
142.430300
  20
36.873300
  0
VERTEX
  8
C18
  10
142.221400
  20
37.547200
  0
VERTEX
  8
C18
  10
141.914300
  20
38.237300
  0
VERTEX
  8
C18
  10
141.504400
  20
38.942700
  0
VERTEX
  8
C18
  10
140.986900
  20
39.662800
  0
VERTEX
  8
C18
  10
140.357200
  20
40.396600
  0
VERTEX
  8
C18
  10
139.784000
  20
40.900800
  0
VERTEX
  8
C18
  10
139.094100
  20
41.319200
  0
VERTEX
  8
C18
  10
138.300700
  20
41.658600
  0
VERTEX
  8
C18
  10
137.417100
  20
41.926000
  0
VERTEX
  8
C18
  10
136.456500
  20
42.128400
  0
VERTEX
  8
C18
  10
135.432200
  20
42.272600
  0
VERTEX
  8
C18
  10
134.357400
  20
42.365600
  0
VERTEX
  8
C18
  10
133.245500
  20
42.414500
  0
VERTEX
  8
C18
  10
132.109700
  20
42.426000
  0
VERTEX
  8
C18
  10
130.963200
  20
42.407300
  0
VERTEX
  8
C18
  10
129.819300
  20
42.365200
  0
VERTEX
  8
C18
  10
128.691300
  20
42.306700
  0
VERTEX
  8
C18
  10
127.592500
  20
42.238700
  0
VERTEX
  8
C18
  10
126.536100
  20
42.168200
  0
VERTEX
  8
C18
  10
125.535400
  20
42.102100
  0
VERTEX
  8
C18
  10
124.603600
  20
42.047400
  0
VERTEX
  8
C18
  10
123.754000
  20
42.011000
  0
VERTEX
  8
C18
  10
123.000000
  20
42.000000
  0
SEQEND
  8
C18
  0
POLYLINE
  8
C18
  66
1
  10
145.000000
  20
42.000000
  0
VERTEX
  8
C18
  10
145.000000
  20
42.000000
  0
VERTEX
  8
C18
  10
142.000000
  20
27.000000
  0
VERTEX
  8
C18
  10
143.106200
  20
27.050900
  0
VERTEX
  8
C18
  10
144.117500
  20
27.174100
  0
VERTEX
  8
C18
  10
145.039300
  20
27.366500
  0
VERTEX
  8
C18
  10
145.876600
  20
27.625100
  0
VERTEX
  8
C18
  10
146.634900
  20
27.946800
  0
VERTEX
  8
C18
  10
147.319200
  20
28.328600
  0
VERTEX
  8
C18
  10
147.935000
  20
28.767500
  0
VERTEX
  8
C18
  10
148.487400
  20
29.260300
  0
VERTEX
  8
C18
  10
148.981800
  20
29.804000
  0
VERTEX
  8
C18
  10
149.423300
  20
30.395700
  0
VERTEX
  8
C18
  10
149.817200
  20
31.032200
  0
VERTEX
  8
C18
  10
150.168800
  20
31.710500
  0
VERTEX
  8
C18
  10
150.483400
  20
32.427500
  0
VERTEX
  8
C18
  10
150.766100
  20
33.180200
  0
VERTEX
  8
C18
  10
151.022300
  20
33.965600
  0
VERTEX
  8
C18
  10
151.257100
  20
34.780600
  0
VERTEX
  8
C18
  10
151.475900
  20
35.622100
  0
VERTEX
  8
C18
  10
151.684000
  20
36.487100
  0
VERTEX
  8
C18
  10
151.886500
  20
37.372500
  0
VERTEX
  8
C18
  10
152.088700
  20
38.275400
  0
VERTEX
  8
C18
  10
152.295900
  20
39.192600
  0
VERTEX
  8
C18
  10
152.513300
  20
40.121200
  0
VERTEX
  8
C18
  10
152.746300
  20
41.058000
  0
VERTEX
  8
C18
  10
153.000000
  20
42.000000
  0
VERTEX
  8
C18
  10
145.000000
  20
42.000000
  0
SEQEND
  8
C18
  0
POLYLINE
  8
C18
  66
1
  10
155.000000
  20
39.000000
  0
VERTEX
  8
C18
  10
155.000000
  20
39.000000
  0
VERTEX
  8
C18
  10
166.000000
  20
39.000000
  0
VERTEX
  8
C18
  10
166.000000
  20
37.000000
  0
VERTEX
  8
C18
  10
165.654000
  20
36.989100
  0
VERTEX
  8
C18
  10
165.236200
  20
36.956900
  0
VERTEX
  8
C18
  10
164.753600
  20
36.903700
  0
VERTEX
  8
C18
  10
164.213400
  20
36.830100
  0
VERTEX
  8
C18
  10
163.622500
  20
36.736300
  0
VERTEX
  8
C18
  10
162.988200
  20
36.623000
  0
VERTEX
  8
C18
  10
162.317500
  20
36.490400
  0
VERTEX
  8
C18
  10
161.617500
  20
36.339100
  0
VERTEX
  8
C18
  10
160.895200
  20
36.169500
  0
VERTEX
  8
C18
  10
160.157800
  20
35.982000
  0
VERTEX
  8
C18
  10
159.412300
  20
35.777100
  0
VERTEX
  8
C18
  10
158.665800
  20
35.555100
  0
VERTEX
  8
C18
  10
157.925500
  20
35.316600
  0
VERTEX
  8
C18
  10
157.198400
  20
35.062000
  0
VERTEX
  8
C18
  10
156.491500
  20
34.791700
  0
VERTEX
  8
C18
  10
155.812100
  20
34.506100
  0
VERTEX
  8
C18
  10
155.167100
  20
34.205700
  0
VERTEX
  8
C18
  10
154.563700
  20
33.890900
  0
VERTEX
  8
C18
  10
154.008900
  20
33.562200
  0
VERTEX
  8
C18
  10
153.509800
  20
33.220000
  0
VERTEX
  8
C18
  10
153.073500
  20
32.864800
  0
VERTEX
  8
C18
  10
152.707200
  20
32.496900
  0
VERTEX
  8
C18
  10
152.417800
  20
32.116800
  0
VERTEX
  8
C18
  10
152.212500
  20
31.725000
  0
VERTEX
  8
C18
  10
152.098400
  20
31.321900
  0
VERTEX
  8
C18
  10
152.082500
  20
30.907900
  0
VERTEX
  8
C18
  10
152.172000
  20
30.483400
  0
VERTEX
  8
C18
  10
152.373900
  20
30.049000
  0
VERTEX
  8
C18
  10
152.695300
  20
29.605000
  0
VERTEX
  8
C18
  10
153.143300
  20
29.151900
  0
VERTEX
  8
C18
  10
153.725000
  20
28.690100
  0
VERTEX
  8
C18
  10
154.447500
  20
28.220000
  0
VERTEX
  8
C18
  10
155.317900
  20
27.742200
  0
VERTEX
  8
C18
  10
156.091400
  20
27.405700
  0
VERTEX
  8
C18
  10
156.937100
  20
27.139200
  0
VERTEX
  8
C18
  10
157.845300
  20
26.935800
  0
VERTEX
  8
C18
  10
158.806500
  20
26.789000
  0
VERTEX
  8
C18
  10
159.811200
  20
26.692000
  0
VERTEX
  8
C18
  10
160.849900
  20
26.638100
  0
VERTEX
  8
C18
  10
161.912800
  20
26.620600
  0
VERTEX
  8
C18
  10
162.990600
  20
26.632900
  0
VERTEX
  8
C18
  10
164.073700
  20
26.668300
  0
VERTEX
  8
C18
  10
165.152400
  20
26.720100
  0
VERTEX
  8
C18
  10
166.217400
  20
26.781500
  0
VERTEX
  8
C18
  10
167.258900
  20
26.845900
  0
VERTEX
  8
C18
  10
168.267400
  20
26.906700
  0
VERTEX
  8
C18
  10
169.233500
  20
26.957100
  0
VERTEX
  8
C18
  10
170.147500
  20
26.990400
  0
VERTEX
  8
C18
  10
171.000000
  20
27.000000
  0
VERTEX
  8
C18
  10
171.146000
  20
27.865800
  0
VERTEX
  8
C18
  10
171.348100
  20
28.795500
  0
VERTEX
  8
C18
  10
171.587900
  20
29.776800
  0
VERTEX
  8
C18
  10
171.846600
  20
30.797100
  0
VERTEX
  8
C18
  10
172.105700
  20
31.844000
  0
VERTEX
  8
C18
  10
172.346500
  20
32.905100
  0
VERTEX
  8
C18
  10
172.550400
  20
33.967800
  0
VERTEX
  8
C18
  10
172.698900
  20
35.019800
  0
VERTEX
  8
C18
  10
172.773200
  20
36.048500
  0
VERTEX
  8
C18
  10
172.754900
  20
37.041500
  0
VERTEX
  8
C18
  10
172.625200
  20
37.986400
  0
VERTEX
  8
C18
  10
172.365600
  20
38.870700
  0
VERTEX
  8
C18
  10
171.957500
  20
39.682000
  0
VERTEX
  8
C18
  10
171.495600
  20
40.280100
  0
VERTEX
  8
C18
  10
170.925400
  20
40.802100
  0
VERTEX
  8
C18
  10
170.258700
  20
41.249900
  0
VERTEX
  8
C18
  10
169.506900
  20
41.625600
  0
VERTEX
  8
C18
  10
168.681900
  20
41.931300
  0
VERTEX
  8
C18
  10
167.795100
  20
42.169100
  0
VERTEX
  8
C18
  10
166.858300
  20
42.341100
  0
VERTEX
  8
C18
  10
165.883000
  20
42.449300
  0
VERTEX
  8
C18
  10
164.880900
  20
42.495800
  0
VERTEX
  8
C18
  10
163.863600
  20
42.482700
  0
VERTEX
  8
C18
  10
162.842900
  20
42.412100
  0
VERTEX
  8
C18
  10
161.830200
  20
42.286100
  0
VERTEX
  8
C18
  10
160.837200
  20
42.106700
  0
VERTEX
  8
C18
  10
159.875600
  20
41.876000
  0
VERTEX
  8
C18
  10
158.957000
  20
41.596100
  0
VERTEX
  8
C18
  10
158.093100
  20
41.269100
  0
VERTEX
  8
C18
  10
157.295400
  20
40.897100
  0
VERTEX
  8
C18
  10
156.575600
  20
40.482000
  0
VERTEX
  8
C18
  10
155.945300
  20
40.026100
  0
VERTEX
  8
C18
  10
155.416200
  20
39.531400
  0
VERTEX
  8
C18
  10
155.000000
  20
39.000000
  0
SEQEND
  8
C18
  0
POLYLINE
  8
C18
  66
1
  10
177.000000
  20
42.000000
  0
VERTEX
  8
C18
  10
177.000000
  20
42.000000
  0
VERTEX
  8
C18
  10
174.000000
  20
27.000000
  0
VERTEX
  8
C18
  10
181.000000
  20
27.000000
  0
VERTEX
  8
C18
  10
181.191400
  20
27.956200
  0
VERTEX
  8
C18
  10
181.376800
  20
28.910400
  0
VERTEX
  8
C18
  10
181.564500
  20
29.857000
  0
VERTEX
  8
C18
  10
181.762800
  20
30.790500
  0
VERTEX
  8
C18
  10
181.980100
  20
31.705600
  0
VERTEX
  8
C18
  10
182.224600
  20
32.596800
  0
VERTEX
  8
C18
  10
182.504700
  20
33.458700
  0
VERTEX
  8
C18
  10
182.828700
  20
34.285900
  0
VERTEX
  8
C18
  10
183.205000
  20
35.072800
  0
VERTEX
  8
C18
  10
183.641800
  20
35.814200
  0
VERTEX
  8
C18
  10
184.147400
  20
36.504500
  0
VERTEX
  8
C18
  10
184.730300
  20
37.138300
  0
VERTEX
  8
C18
  10
185.398600
  20
37.710200
  0
VERTEX
  8
C18
  10
186.160800
  20
38.214700
  0
VERTEX
  8
C18
  10
187.025100
  20
38.646400
  0
VERTEX
  8
C18
  10
188.000000
  20
39.000000
  0
VERTEX
  8
C18
  10
186.000000
  20
27.000000
  0
VERTEX
  8
C18
  10
193.000000
  20
27.000000
  0
VERTEX
  8
C18
  10
193.259000
  20
28.319600
  0
VERTEX
  8
C18
  10
193.474800
  20
29.559100
  0
VERTEX
  8
C18
  10
193.647200
  20
30.721100
  0
VERTEX
  8
C18
  10
193.776100
  20
31.808000
  0
VERTEX
  8
C18
  10
193.861500
  20
32.822400
  0
VERTEX
  8
C18
  10
193.903300
  20
33.766700
  0
VERTEX
  8
C18
  10
193.901300
  20
34.643600
  0
VERTEX
  8
C18
  10
193.855500
  20
35.455400
  0
VERTEX
  8
C18
  10
193.765900
  20
36.204800
  0
VERTEX
  8
C18
  10
193.632200
  20
36.894200
  0
VERTEX
  8
C18
  10
193.454500
  20
37.526200
  0
VERTEX
  8
C18
  10
193.232600
  20
38.103300
  0
VERTEX
  8
C18
  10
192.966400
  20
38.627900
  0
VERTEX
  8
C18
  10
192.656000
  20
39.102700
  0
VERTEX
  8
C18
  10
192.301100
  20
39.530100
  0
VERTEX
  8
C18
  10
191.901700
  20
39.912700
  0
VERTEX
  8
C18
  10
191.457600
  20
40.252900
  0
VERTEX
  8
C18
  10
190.968900
  20
40.553300
  0
VERTEX
  8
C18
  10
190.435400
  20
40.816400
  0
VERTEX
  8
C18
  10
189.857100
  20
41.044800
  0
VERTEX
  8
C18
  10
189.233800
  20
41.240900
  0
VERTEX
  8
C18
  10
188.565400
  20
41.407200
  0
VERTEX
  8
C18
  10
187.852000
  20
41.546300
  0
VERTEX
  8
C18
  10
187.093300
  20
41.660800
  0
VERTEX
  8
C18
  10
186.289300
  20
41.753000
  0
VERTEX
  8
C18
  10
185.439900
  20
41.825500
  0
VERTEX
  8
C18
  10
184.545000
  20
41.880900
  0
VERTEX
  8
C18
  10
183.604500
  20
41.921700
  0
VERTEX
  8
C18
  10
182.618400
  20
41.950400
  0
VERTEX
  8
C18
  10
181.586600
  20
41.969400
  0
VERTEX
  8
C18
  10
180.508900
  20
41.981400
  0
VERTEX
  8
C18
  10
179.385300
  20
41.988800
  0
VERTEX
  8
C18
  10
178.215700
  20
41.994100
  0
VERTEX
  8
C18
  10
177.000000
  20
42.000000
  0
SEQEND
  8
C18
  0
POLYLINE
  8
C18
  66
1
  10
246.000000
  20
30.000000
  0
VERTEX
  8
C18
  10
246.000000
  20
30.000000
  0
VERTEX
  8
C18
  10
235.000000
  20
30.000000
  0
VERTEX
  8
C18
  10
235.000000
  20
33.000000
  0
VERTEX
  8
C18
  10
241.986115
  20
33.019291
  0
VERTEX
  8
C18
  10
242.762400
  20
33.105400
  0
VERTEX
  8
C18
  10
243.548400
  20
33.290000
  0
VERTEX
  8
C18
  10
244.325800
  20
33.564800
  0
VERTEX
  8
C18
  10
245.076000
  20
33.921800
  0
VERTEX
  8
C18
  10
245.780700
  20
34.353000
  0
VERTEX
  8
C18
  10
246.421200
  20
34.850200
  0
VERTEX
  8
C18
  10
246.979200
  20
35.405600
  0
VERTEX
  8
C18
  10
247.436300
  20
36.010900
  0
VERTEX
  8
C18
  10
247.773800
  20
36.658200
  0
VERTEX
  8
C18
  10
247.973500
  20
37.339400
  0
VERTEX
  8
C18
  10
248.016800
  20
38.046400
  0
VERTEX
  8
C18
  10
247.885200
  20
38.771300
  0
VERTEX
  8
C18
  10
247.560300
  20
39.505900
  0
VERTEX
  8
C18
  10
247.023700
  20
40.242200
  0
VERTEX
  8
C18
  10
246.256900
  20
40.972200
  0
VERTEX
  8
C18
  10
245.653900
  20
41.382600
  0
VERTEX
  8
C18
  10
244.939700
  20
41.729700
  0
VERTEX
  8
C18
  10
244.128500
  20
42.014500
  0
VERTEX
  8
C18
  10
243.234600
  20
42.237600
  0
VERTEX
  8
C18
  10
242.272500
  20
42.400100
  0
VERTEX
  8
C18
  10
241.256300
  20
42.502700
  0
VERTEX
  8
C18
  10
240.200500
  20
42.546200
  0
VERTEX
  8
C18
  10
239.119400
  20
42.531600
  0
VERTEX
  8
C18
  10
238.027300
  20
42.459600
  0
VERTEX
  8
C18
  10
236.938400
  20
42.331100
  0
VERTEX
  8
C18
  10
235.867300
  20
42.146900
  0
VERTEX
  8
C18
  10
234.828100
  20
41.908000
  0
VERTEX
  8
C18
  10
233.835200
  20
41.615100
  0
VERTEX
  8
C18
  10
232.903000
  20
41.269000
  0
VERTEX
  8
C18
  10
232.045700
  20
40.870700
  0
VERTEX
  8
C18
  10
231.277700
  20
40.421000
  0
VERTEX
  8
C18
  10
230.613300
  20
39.920600
  0
VERTEX
  8
C18
  10
230.066800
  20
39.370500
  0
VERTEX
  8
C18
  10
229.652700
  20
38.771600
  0
VERTEX
  8
C18
  10
229.213700
  20
37.911400
  0
VERTEX
  8
C18
  10
228.857000
  20
37.077900
  0
VERTEX
  8
C18
  10
228.579300
  20
36.271500
  0
VERTEX
  8
C18
  10
228.377700
  20
35.492500
  0
VERTEX
  8
C18
  10
228.248900
  20
34.741500
  0
VERTEX
  8
C18
  10
228.189900
  20
34.018800
  0
VERTEX
  8
C18
  10
228.197600
  20
33.324900
  0
VERTEX
  8
C18
  10
228.268900
  20
32.660300
  0
VERTEX
  8
C18
  10
228.400700
  20
32.025300
  0
VERTEX
  8
C18
  10
228.589900
  20
31.420500
  0
VERTEX
  8
C18
  10
228.833300
  20
30.846200
  0
VERTEX
  8
C18
  10
229.127900
  20
30.302900
  0
VERTEX
  8
C18
  10
229.470600
  20
29.791000
  0
VERTEX
  8
C18
  10
229.858300
  20
29.311000
  0
VERTEX
  8
C18
  10
230.287900
  20
28.863300
  0
VERTEX
  8
C18
  10
230.756300
  20
28.448400
  0
VERTEX
  8
C18
  10
231.260300
  20
28.066600
  0
VERTEX
  8
C18
  10
231.796900
  20
27.718500
  0
VERTEX
  8
C18
  10
232.363000
  20
27.404400
  0
VERTEX
  8
C18
  10
232.955500
  20
27.124800
  0
VERTEX
  8
C18
  10
233.571300
  20
26.880200
  0
VERTEX
  8
C18
  10
234.207200
  20
26.671000
  0
VERTEX
  8
C18
  10
234.860200
  20
26.497500
  0
VERTEX
  8
C18
  10
235.527200
  20
26.360300
  0
VERTEX
  8
C18
  10
236.205100
  20
26.259800
  0
VERTEX
  8
C18
  10
236.890700
  20
26.196500
  0
VERTEX
  8
C18
  10
237.581000
  20
26.170700
  0
VERTEX
  8
C18
  10
238.272900
  20
26.182900
  0
VERTEX
  8
C18
  10
238.963300
  20
26.233600
  0
VERTEX
  8
C18
  10
239.649000
  20
26.323100
  0
VERTEX
  8
C18
  10
240.327000
  20
26.452000
  0
VERTEX
  8
C18
  10
240.994200
  20
26.620600
  0
VERTEX
  8
C18
  10
241.647400
  20
26.829400
  0
VERTEX
  8
C18
  10
242.283700
  20
27.078900
  0
VERTEX
  8
C18
  10
242.899800
  20
27.369500
  0
VERTEX
  8
C18
  10
243.492600
  20
27.701500
  0
VERTEX
  8
C18
  10
244.059200
  20
28.075600
  0
VERTEX
  8
C18
  10
244.596200
  20
28.492000
  0
VERTEX
  8
C18
  10
245.100800
  20
28.951200
  0
VERTEX
  8
C18
  10
245.569700
  20
29.453700
  0
VERTEX
  8
C18
  10
246.000000
  20
30.000000
  0
SEQEND
  8
C18
  0
POLYLINE
  8
C18
  66
1
  10
267.000000
  20
30.000000
  0
VERTEX
  8
C18
  10
267.000000
  20
30.000000
  0
VERTEX
  8
C18
  10
256.000000
  20
30.000000
  0
VERTEX
  8
C18
  10
256.000000
  20
33.000000
  0
VERTEX
  8
C18
  10
269.000000
  20
33.000000
  0
VERTEX
  8
C18
  10
268.965500
  20
33.863600
  0
VERTEX
  8
C18
  10
268.870300
  20
34.688000
  0
VERTEX
  8
C18
  10
268.717400
  20
35.473000
  0
VERTEX
  8
C18
  10
268.509700
  20
36.218200
  0
VERTEX
  8
C18
  10
268.250300
  20
36.923600
  0
VERTEX
  8
C18
  10
267.942100
  20
37.589000
  0
VERTEX
  8
C18
  10
267.588000
  20
38.214100
  0
VERTEX
  8
C18
  10
267.191100
  20
38.798700
  0
VERTEX
  8
C18
  10
266.754300
  20
39.342800
  0
VERTEX
  8
C18
  10
266.280600
  20
39.846000
  0
VERTEX
  8
C18
  10
265.773000
  20
40.308100
  0
VERTEX
  8
C18
  10
265.234500
  20
40.729100
  0
VERTEX
  8
C18
  10
264.667900
  20
41.108600
  0
VERTEX
  8
C18
  10
264.076400
  20
41.446600
  0
VERTEX
  8
C18
  10
263.462900
  20
41.742700
  0
VERTEX
  8
C18
  10
262.830300
  20
41.996900
  0
VERTEX
  8
C18
  10
262.181700
  20
42.208800
  0
VERTEX
  8
C18
  10
261.520000
  20
42.378400
  0
VERTEX
  8
C18
  10
260.848200
  20
42.505400
  0
VERTEX
  8
C18
  10
260.169200
  20
42.589700
  0
VERTEX
  8
C18
  10
259.486100
  20
42.631000
  0
VERTEX
  8
C18
  10
258.801700
  20
42.629100
  0
VERTEX
  8
C18
  10
258.119200
  20
42.583900
  0
VERTEX
  8
C18
  10
257.441500
  20
42.495200
  0
VERTEX
  8
C18
  10
256.771500
  20
42.362700
  0
VERTEX
  8
C18
  10
256.112200
  20
42.186300
  0
VERTEX
  8
C18
  10
255.466600
  20
41.965800
  0
VERTEX
  8
C18
  10
254.837600
  20
41.701000
  0
VERTEX
  8
C18
  10
254.228400
  20
41.391600
  0
VERTEX
  8
C18
  10
253.641700
  20
41.037600
  0
VERTEX
  8
C18
  10
253.080700
  20
40.638700
  0
VERTEX
  8
C18
  10
252.548200
  20
40.194600
  0
VERTEX
  8
C18
  10
252.047300
  20
39.705300
  0
VERTEX
  8
C18
  10
251.580900
  20
39.170600
  0
VERTEX
  8
C18
  10
251.152000
  20
38.590100
  0
VERTEX
  8
C18
  10
250.763600
  20
37.963800
  0
VERTEX
  8
C18
  10
250.418600
  20
37.291400
  0
VERTEX
  8
C18
  10
250.120100
  20
36.572800
  0
VERTEX
  8
C18
  10
249.871000
  20
35.807700
  0
VERTEX
  8
C18
  10
249.674300
  20
34.996100
  0
VERTEX
  8
C18
  10
249.542300
  20
34.125800
  0
VERTEX
  8
C18
  10
249.505700
  20
33.301500
  0
VERTEX
  8
C18
  10
249.559200
  20
32.523000
  0
VERTEX
  8
C18
  10
249.697700
  20
31.790500
  0
VERTEX
  8
C18
  10
249.915900
  20
31.103900
  0
VERTEX
  8
C18
  10
250.208700
  20
30.463300
  0
VERTEX
  8
C18
  10
250.570900
  20
29.868600
  0
VERTEX
  8
C18
  10
250.997300
  20
29.319900
  0
VERTEX
  8
C18
  10
251.482700
  20
28.817200
  0
VERTEX
  8
C18
  10
252.021900
  20
28.360600
  0
VERTEX
  8
C18
  10
252.609700
  20
27.950000
  0
VERTEX
  8
C18
  10
253.241000
  20
27.585500
  0
VERTEX
  8
C18
  10
253.910500
  20
27.267100
  0
VERTEX
  8
C18
  10
254.613100
  20
26.994800
  0
VERTEX
  8
C18
  10
255.343600
  20
26.768600
  0
VERTEX
  8
C18
  10
256.096800
  20
26.588500
  0
VERTEX
  8
C18
  10
256.867400
  20
26.454700
  0
VERTEX
  8
C18
  10
257.650400
  20
26.367000
  0
VERTEX
  8
C18
  10
258.440600
  20
26.325500
  0
VERTEX
  8
C18
  10
259.232600
  20
26.330200
  0
VERTEX
  8
C18
  10
260.021400
  20
26.381200
  0
VERTEX
  8
C18
  10
260.801800
  20
26.478500
  0
VERTEX
  8
C18
  10
261.568500
  20
26.622000
  0
VERTEX
  8
C18
  10
262.316400
  20
26.811900
  0
VERTEX
  8
C18
  10
263.040400
  20
27.048000
  0
VERTEX
  8
C18
  10
263.735100
  20
27.330600
  0
VERTEX
  8
C18
  10
264.395400
  20
27.659400
  0
VERTEX
  8
C18
  10
265.016200
  20
28.034700
  0
VERTEX
  8
C18
  10
265.592300
  20
28.456400
  0
VERTEX
  8
C18
  10
266.118400
  20
28.924400
  0
VERTEX
  8
C18
  10
266.589300
  20
29.439000
  0
VERTEX
  8
C18
  10
267.000000
  20
30.000000
  0
SEQEND
  8
C7
  0
POLYLINE
  8
C7
  66
1
  10
128.000000
  20
30.000000
  0
VERTEX
  8
C7
  10
128.000000
  20
30.000000
  0
VERTEX
  8
C7
  10
133.000000
  20
30.000000
  0
VERTEX
  8
C7
  10
135.000000
  20
39.000000
  0
VERTEX
  8
C7
  10
133.875500
  20
38.858500
  0
VERTEX
  8
C7
  10
132.889300
  20
38.627000
  0
VERTEX
  8
C7
  10
132.030800
  20
38.308900
  0
VERTEX
  8
C7
  10
131.289400
  20
37.907200
  0
VERTEX
  8
C7
  10
130.654600
  20
37.425200
  0
VERTEX
  8
C7
  10
130.115900
  20
36.866100
  0
VERTEX
  8
C7
  10
129.662700
  20
36.233100
  0
VERTEX
  8
C7
  10
129.284500
  20
35.529200
  0
VERTEX
  8
C7
  10
128.970700
  20
34.757900
  0
VERTEX
  8
C7
  10
128.710900
  20
33.922200
  0
VERTEX
  8
C7
  10
128.494400
  20
33.025400
  0
VERTEX
  8
C7
  10
128.310800
  20
32.070600
  0
VERTEX
  8
C7
  10
128.149500
  20
31.061000
  0
VERTEX
  8
C7
  10
128.000000
  20
30.000000
  0
SEQEND
  8
C7
  0
POLYLINE
  8
C7
  66
1
  10
236.000000
  20
36.000000
  0
VERTEX
  8
C7
  10
236.000000
  20
36.000000
  0
VERTEX
  8
C7
  10
241.000000
  20
36.000000
  0
VERTEX
  8
C7
  10
241.000000
  20
39.000000
  0
VERTEX
  8
C7
  10
239.796200
  20
38.791200
  0
VERTEX
  8
C7
  10
238.829700
  20
38.543800
  0
VERTEX
  8
C7
  10
238.033700
  20
38.199300
  0
VERTEX
  8
C7
  10
237.341300
  20
37.699400
  0
VERTEX
  8
C7
  10
236.685700
  20
36.985800
  0
VERTEX
  8
C7
  10
236.000000
  20
36.000000
  0
SEQEND
  8
C7
  0
POLYLINE
  8
C7
  66
1
  10
257.000000
  20
36.000000
  0
VERTEX
  8
C7
  10
257.000000
  20
36.000000
  0
VERTEX
  8
C7
  10
262.000000
  20
36.000000
  0
VERTEX
  8
C7
  10
262.000000
  20
39.000000
  0
VERTEX
  8
C7
  10
260.796200
  20
38.791200
  0
VERTEX
  8
C7
  10
259.829700
  20
38.543800
  0
VERTEX
  8
C7
  10
259.033700
  20
38.199300
  0
VERTEX
  8
C7
  10
258.341300
  20
37.699400
  0
VERTEX
  8
C7
  10
257.685700
  20
36.985800
  0
VERTEX
  8
C7
  10
257.000000
  20
36.000000
  0
SEQEND
  8
C7
  0
POLYLINE
  8
C7
  66
1
  10
56.000000
  20
38.000000
  0
VERTEX
  8
C7
  10
56.000000
  20
38.000000
  0
VERTEX
  8
C7
  10
60.000000
  20
36.000000
  0
VERTEX
  8
C7
  10
56.000000
  20
38.000000
  0
SEQEND
  8
C7
  0
POLYLINE
  8
C7
  66
1
  10
160.000000
  20
34.000000
  0
VERTEX
  8
C7
  10
160.000000
  20
34.000000
  0
VERTEX
  8
C7
  10
160.000000
  20
30.000000
  0
VERTEX
  8
C7
  10
161.191500
  20
30.222500
  0
VERTEX
  8
C7
  10
162.162700
  20
30.491800
  0
VERTEX
  8
C7
  10
162.950200
  20
30.849600
  0
VERTEX
  8
C7
  10
163.590900
  20
31.337700
  0
VERTEX
  8
C7
  10
164.121500
  20
31.997600
  0
VERTEX
  8
C7
  10
164.579000
  20
32.871200
  0
VERTEX
  8
C7
  10
165.000000
  20
34.000000
  0
VERTEX
  8
C7
  10
160.000000
  20
34.000000
  0
SEQEND
  8
C7
  0
POLYLINE
  8
C7
  66
1
  10
56.000000
  20
33.000000
  0
VERTEX
  8
C7
  10
56.000000
  20
33.000000
  0
VERTEX
  8
C7
  10
57.000000
  20
32.000000
  0
VERTEX
  8
C7
  10
56.000000
  20
33.000000
  0
SEQEND
  8
C244
  0
POLYLINE
  8
C244
  66
1
  10
14.000000
  20
24.000000
  0
VERTEX
  8
C244
  10
14.000000
  20
24.000000
  0
VERTEX
  8
C244
  10
14.000000
  20
22.000000
  0
VERTEX
  8
C244
  10
14.953500
  20
21.905700
  0
VERTEX
  8
C244
  10
15.911300
  20
21.812400
  0
VERTEX
  8
C244
  10
16.873400
  20
21.720100
  0
VERTEX
  8
C244
  10
17.839500
  20
21.628900
  0
VERTEX
  8
C244
  10
18.809600
  20
21.539000
  0
VERTEX
  8
C244
  10
19.783500
  20
21.450300
  0
VERTEX
  8
C244
  10
20.761100
  20
21.363000
  0
VERTEX
  8
C244
  10
21.742200
  20
21.277200
  0
VERTEX
  8
C244
  10
22.726700
  20
21.192900
  0
VERTEX
  8
C244
  10
23.714500
  20
21.110200
  0
VERTEX
  8
C244
  10
24.705500
  20
21.029300
  0
VERTEX
  8
C244
  10
25.699400
  20
20.950100
  0
VERTEX
  8
C244
  10
26.696200
  20
20.872800
  0
VERTEX
  8
C244
  10
27.695800
  20
20.797500
  0
VERTEX
  8
C244
  10
28.697900
  20
20.724300
  0
VERTEX
  8
C244
  10
29.702500
  20
20.653100
  0
VERTEX
  8
C244
  10
30.709400
  20
20.584300
  0
VERTEX
  8
C244
  10
31.718600
  20
20.517700
  0
VERTEX
  8
C244
  10
32.729700
  20
20.453500
  0
VERTEX
  8
C244
  10
33.742900
  20
20.391700
  0
VERTEX
  8
C244
  10
34.757800
  20
20.332600
  0
VERTEX
  8
C244
  10
35.774300
  20
20.276000
  0
VERTEX
  8
C244
  10
36.792400
  20
20.222200
  0
VERTEX
  8
C244
  10
37.811900
  20
20.171300
  0
VERTEX
  8
C244
  10
38.832600
  20
20.123200
  0
VERTEX
  8
C244
  10
39.854500
  20
20.078100
  0
VERTEX
  8
C244
  10
40.877300
  20
20.036000
  0
VERTEX
  8
C244
  10
41.901000
  20
19.997200
  0
VERTEX
  8
C244
  10
42.925400
  20
19.961500
  0
VERTEX
  8
C244
  10
43.950300
  20
19.929200
  0
VERTEX
  8
C244
  10
44.975800
  20
19.900300
  0
VERTEX
  8
C244
  10
46.001500
  20
19.874900
  0
VERTEX
  8
C244
  10
47.027400
  20
19.853000
  0
VERTEX
  8
C244
  10
48.053400
  20
19.834900
  0
VERTEX
  8
C244
  10
49.079200
  20
19.820400
  0
VERTEX
  8
C244
  10
50.104800
  20
19.809800
  0
VERTEX
  8
C244
  10
51.130100
  20
19.803100
  0
VERTEX
  8
C244
  10
52.154900
  20
19.800400
  0
VERTEX
  8
C244
  10
53.179000
  20
19.801800
  0
VERTEX
  8
C244
  10
54.202400
  20
19.807400
  0
VERTEX
  8
C244
  10
55.224900
  20
19.817200
  0
VERTEX
  8
C244
  10
56.246300
  20
19.831400
  0
VERTEX
  8
C244
  10
57.266600
  20
19.849900
  0
VERTEX
  8
C244
  10
58.285600
  20
19.873000
  0
VERTEX
  8
C244
  10
59.303100
  20
19.900700
  0
VERTEX
  8
C244
  10
60.319100
  20
19.933100
  0
VERTEX
  8
C244
  10
61.333300
  20
19.970200
  0
VERTEX
  8
C244
  10
62.345700
  20
20.012200
  0
VERTEX
  8
C244
  10
63.356200
  20
20.059100
  0
VERTEX
  8
C244
  10
64.364500
  20
20.111000
  0
VERTEX
  8
C244
  10
65.370600
  20
20.168000
  0
VERTEX
  8
C244
  10
66.374300
  20
20.230200
  0
VERTEX
  8
C244
  10
67.375500
  20
20.297700
  0
VERTEX
  8
C244
  10
68.374000
  20
20.370500
  0
VERTEX
  8
C244
  10
69.369700
  20
20.448800
  0
VERTEX
  8
C244
  10
70.362600
  20
20.532600
  0
VERTEX
  8
C244
  10
71.352400
  20
20.622000
  0
VERTEX
  8
C244
  10
72.338900
  20
20.717100
  0
VERTEX
  8
C244
  10
73.322200
  20
20.818000
  0
VERTEX
  8
C244
  10
74.302000
  20
20.924700
  0
VERTEX
  8
C244
  10
75.278300
  20
21.037400
  0
VERTEX
  8
C244
  10
76.250700
  20
21.156100
  0
VERTEX
  8
C244
  10
77.219400
  20
21.281000
  0
VERTEX
  8
C244
  10
78.184000
  20
21.412000
  0
VERTEX
  8
C244
  10
79.144500
  20
21.549400
  0
VERTEX
  8
C244
  10
80.100800
  20
21.693100
  0
VERTEX
  8
C244
  10
81.052600
  20
21.843200
  0
VERTEX
  8
C244
  10
82.000000
  20
22.000000
  0
VERTEX
  8
C244
  10
82.000000
  20
24.000000
  0
VERTEX
  8
C244
  10
81.005300
  20
23.915100
  0
VERTEX
  8
C244
  10
80.010300
  20
23.834000
  0
VERTEX
  8
C244
  10
79.014800
  20
23.756500
  0
VERTEX
  8
C244
  10
78.019000
  20
23.682600
  0
VERTEX
  8
C244
  10
77.022700
  20
23.612300
  0
VERTEX
  8
C244
  10
76.026100
  20
23.545500
  0
VERTEX
  8
C244
  10
75.029100
  20
23.482100
  0
VERTEX
  8
C244
  10
74.031800
  20
23.422100
  0
VERTEX
  8
C244
  10
73.034100
  20
23.365400
  0
VERTEX
  8
C244
  10
72.036100
  20
23.312000
  0
VERTEX
  8
C244
  10
71.037800
  20
23.261800
  0
VERTEX
  8
C244
  10
70.039100
  20
23.214800
  0
VERTEX
  8
C244
  10
69.040200
  20
23.171000
  0
VERTEX
  8
C244
  10
68.041000
  20
23.130200
  0
VERTEX
  8
C244
  10
67.041600
  20
23.092400
  0
VERTEX
  8
C244
  10
66.041900
  20
23.057500
  0
VERTEX
  8
C244
  10
65.041900
  20
23.025600
  0
VERTEX
  8
C244
  10
64.041700
  20
22.996500
  0
VERTEX
  8
C244
  10
63.041300
  20
22.970300
  0
VERTEX
  8
C244
  10
62.040700
  20
22.946800
  0
VERTEX
  8
C244
  10
61.039800
  20
22.925900
  0
VERTEX
  8
C244
  10
60.038800
  20
22.907700
  0
VERTEX
  8
C244
  10
59.037700
  20
22.892100
  0
VERTEX
  8
C244
  10
58.036300
  20
22.879000
  0
VERTEX
  8
C244
  10
57.034800
  20
22.868500
  0
VERTEX
  8
C244
  10
56.033200
  20
22.860300
  0
VERTEX
  8
C244
  10
55.031500
  20
22.854500
  0
VERTEX
  8
C244
  10
54.029600
  20
22.851000
  0
VERTEX
  8
C244
  10
53.027700
  20
22.849800
  0
VERTEX
  8
C244
  10
52.025600
  20
22.850800
  0
VERTEX
  8
C244
  10
51.023500
  20
22.854000
  0
VERTEX
  8
C244
  10
50.021300
  20
22.859200
  0
VERTEX
  8
C244
  10
49.019100
  20
22.866500
  0
VERTEX
  8
C244
  10
48.016800
  20
22.875900
  0
VERTEX
  8
C244
  10
47.014500
  20
22.887100
  0
VERTEX
  8
C244
  10
46.012100
  20
22.900300
  0
VERTEX
  8
C244
  10
45.009800
  20
22.915200
  0
VERTEX
  8
C244
  10
44.007500
  20
22.932000
  0
VERTEX
  8
C244
  10
43.005200
  20
22.950500
  0
VERTEX
  8
C244
  10
42.002900
  20
22.970700
  0
VERTEX
  8
C244
  10
41.000700
  20
22.992500
  0
VERTEX
  8
C244
  10
39.998500
  20
23.015900
  0
VERTEX
  8
C244
  10
38.996400
  20
23.040800
  0
VERTEX
  8
C244
  10
37.994300
  20
23.067100
  0
VERTEX
  8
C244
  10
36.992400
  20
23.094900
  0
VERTEX
  8
C244
  10
35.990500
  20
23.124000
  0
VERTEX
  8
C244
  10
34.988800
  20
23.154500
  0
VERTEX
  8
C244
  10
33.987200
  20
23.186100
  0
VERTEX
  8
C244
  10
32.985700
  20
23.219000
  0
VERTEX
  8
C244
  10
31.984400
  20
23.253000
  0
VERTEX
  8
C244
  10
30.983300
  20
23.288100
  0
VERTEX
  8
C244
  10
29.982300
  20
23.324300
  0
VERTEX
  8
C244
  10
28.981500
  20
23.361400
  0
VERTEX
  8
C244
  10
27.980900
  20
23.399500
  0
VERTEX
  8
C244
  10
26.980500
  20
23.438400
  0
VERTEX
  8
C244
  10
25.980300
  20
23.478200
  0
VERTEX
  8
C244
  10
24.980400
  20
23.518700
  0
VERTEX
  8
C244
  10
23.980700
  20
23.559900
  0
VERTEX
  8
C244
  10
22.981300
  20
23.601800
  0
VERTEX
  8
C244
  10
21.982100
  20
23.644300
  0
VERTEX
  8
C244
  10
20.983200
  20
23.687400
  0
VERTEX
  8
C244
  10
19.984700
  20
23.731000
  0
VERTEX
  8
C244
  10
18.986400
  20
23.775000
  0
VERTEX
  8
C244
  10
17.988400
  20
23.819400
  0
VERTEX
  8
C244
  10
16.990800
  20
23.864200
  0
VERTEX
  8
C244
  10
15.993500
  20
23.909200
  0
VERTEX
  8
C244
  10
14.996500
  20
23.954500
  0
VERTEX
  8
C244
  10
14.000000
  20
24.000000
  0
SEQEND
  8
C244
  0
POLYLINE
  8
C244
  66
1
  10
14.000000
  20
18.000000
  0
VERTEX
  8
C244
  10
14.000000
  20
18.000000
  0
VERTEX
  8
C244
  10
14.000000
  20
15.000000
  0
VERTEX
  8
C244
  10
38.000000
  20
14.775463
  0
VERTEX
  8
C244
  10
39.001000
  20
14.704000
  0
VERTEX
  8
C244
  10
40.002200
  20
14.632500
  0
VERTEX
  8
C244
  10
41.003500
  20
14.561000
  0
VERTEX
  8
C244
  10
42.005000
  20
14.489800
  0
VERTEX
  8
C244
  10
43.006600
  20
14.419200
  0
VERTEX
  8
C244
  10
44.008200
  20
14.349500
  0
VERTEX
  8
C244
  10
45.010000
  20
14.280900
  0
VERTEX
  8
C244
  10
46.011800
  20
14.213700
  0
VERTEX
  8
C244
  10
47.013600
  20
14.148100
  0
VERTEX
  8
C244
  10
48.015500
  20
14.084500
  0
VERTEX
  8
C244
  10
49.017400
  20
14.023100
  0
VERTEX
  8
C244
  10
50.019300
  20
13.964200
  0
VERTEX
  8
C244
  10
51.021300
  20
13.908000
  0
VERTEX
  8
C244
  10
52.023200
  20
13.854800
  0
VERTEX
  8
C244
  10
53.025000
  20
13.805000
  0
VERTEX
  8
C244
  10
54.026800
  20
13.758600
  0
VERTEX
  8
C244
  10
55.028600
  20
13.716100
  0
VERTEX
  8
C244
  10
56.030200
  20
13.677700
  0
VERTEX
  8
C244
  10
57.031800
  20
13.643700
  0
VERTEX
  8
C244
  10
58.033300
  20
13.614300
  0
VERTEX
  8
C244
  10
59.034700
  20
13.589800
  0
VERTEX
  8
C244
  10
60.035900
  20
13.570400
  0
VERTEX
  8
C244
  10
61.036900
  20
13.556500
  0
VERTEX
  8
C244
  10
62.037900
  20
13.548400
  0
VERTEX
  8
C244
  10
63.038600
  20
13.546200
  0
VERTEX
  8
C244
  10
64.039100
  20
13.550200
  0
VERTEX
  8
C244
  10
65.039500
  20
13.560800
  0
VERTEX
  8
C244
  10
66.039600
  20
13.578200
  0
VERTEX
  8
C244
  10
67.039500
  20
13.602600
  0
VERTEX
  8
C244
  10
68.039100
  20
13.634400
  0
VERTEX
  8
C244
  10
69.038500
  20
13.673700
  0
VERTEX
  8
C244
  10
70.037600
  20
13.721000
  0
VERTEX
  8
C244
  10
71.036400
  20
13.776400
  0
VERTEX
  8
C244
  10
72.034900
  20
13.840100
  0
VERTEX
  8
C244
  10
73.033000
  20
13.912600
  0
VERTEX
  8
C244
  10
74.030900
  20
13.994000
  0
VERTEX
  8
C244
  10
75.028400
  20
14.084700
  0
VERTEX
  8
C244
  10
76.025500
  20
14.184800
  0
VERTEX
  8
C244
  10
77.022300
  20
14.294700
  0
VERTEX
  8
C244
  10
78.018700
  20
14.414600
  0
VERTEX
  8
C244
  10
79.014600
  20
14.544800
  0
VERTEX
  8
C244
  10
80.010200
  20
14.685600
  0
VERTEX
  8
C244
  10
81.005300
  20
14.837200
  0
VERTEX
  8
C244
  10
82.000000
  20
15.000000
  0
VERTEX
  8
C244
  10
82.000000
  20
18.000000
  0
VERTEX
  8
C244
  10
81.000500
  20
17.949600
  0
VERTEX
  8
C244
  10
80.001100
  20
17.900900
  0
VERTEX
  8
C244
  10
79.001600
  20
17.853900
  0
VERTEX
  8
C244
  10
78.002100
  20
17.808500
  0
VERTEX
  8
C244
  10
77.002600
  20
17.764700
  0
VERTEX
  8
C244
  10
76.003100
  20
17.722600
  0
VERTEX
  8
C244
  10
75.003500
  20
17.682100
  0
VERTEX
  8
C244
  10
74.003900
  20
17.643200
  0
VERTEX
  8
C244
  10
73.004300
  20
17.605900
  0
VERTEX
  8
C244
  10
72.004600
  20
17.570200
  0
VERTEX
  8
C244
  10
71.004900
  20
17.536200
  0
VERTEX
  8
C244
  10
70.005200
  20
17.503700
  0
VERTEX
  8
C244
  10
69.005500
  20
17.472800
  0
VERTEX
  8
C244
  10
68.005800
  20
17.443400
  0
VERTEX
  8
C244
  10
67.006000
  20
17.415700
  0
VERTEX
  8
C244
  10
66.006200
  20
17.389500
  0
VERTEX
  8
C244
  10
65.006400
  20
17.364800
  0
VERTEX
  8
C244
  10
64.006600
  20
17.341700
  0
VERTEX
  8
C244
  10
63.006700
  20
17.320100
  0
VERTEX
  8
C244
  10
62.006900
  20
17.300100
  0
VERTEX
  8
C244
  10
61.007000
  20
17.281600
  0
VERTEX
  8
C244
  10
60.007100
  20
17.264600
  0
VERTEX
  8
C244
  10
59.007200
  20
17.249100
  0
VERTEX
  8
C244
  10
58.007200
  20
17.235100
  0
VERTEX
  8
C244
  10
57.007300
  20
17.222600
  0
VERTEX
  8
C244
  10
56.007300
  20
17.211600
  0
VERTEX
  8
C244
  10
55.007300
  20
17.202100
  0
VERTEX
  8
C244
  10
54.007300
  20
17.194100
  0
VERTEX
  8
C244
  10
53.007300
  20
17.187500
  0
VERTEX
  8
C244
  10
52.007200
  20
17.182400
  0
VERTEX
  8
C244
  10
51.007200
  20
17.178700
  0
VERTEX
  8
C244
  10
50.007100
  20
17.176500
  0
VERTEX
  8
C244
  10
49.007100
  20
17.175700
  0
VERTEX
  8
C244
  10
48.007000
  20
17.176400
  0
VERTEX
  8
C244
  10
47.006900
  20
17.178500
  0
VERTEX
  8
C244
  10
46.006700
  20
17.182000
  0
VERTEX
  8
C244
  10
45.006600
  20
17.186900
  0
VERTEX
  8
C244
  10
44.006500
  20
17.193200
  0
VERTEX
  8
C244
  10
43.006300
  20
17.200900
  0
VERTEX
  8
C244
  10
42.006200
  20
17.210000
  0
VERTEX
  8
C244
  10
41.006000
  20
17.220500
  0
VERTEX
  8
C244
  10
40.005900
  20
17.232300
  0
VERTEX
  8
C244
  10
39.005700
  20
17.245500
  0
VERTEX
  8
C244
  10
38.005500
  20
17.260100
  0
VERTEX
  8
C244
  10
37.005300
  20
17.276100
  0
VERTEX
  8
C244
  10
36.005100
  20
17.293400
  0
VERTEX
  8
C244
  10
35.004900
  20
17.312000
  0
VERTEX
  8
C244
  10
34.004700
  20
17.331900
  0
VERTEX
  8
C244
  10
33.004400
  20
17.353200
  0
VERTEX
  8
C244
  10
32.004200
  20
17.375800
  0
VERTEX
  8
C244
  10
31.004000
  20
17.399700
  0
VERTEX
  8
C244
  10
30.003800
  20
17.425000
  0
VERTEX
  8
C244
  10
29.003500
  20
17.451500
  0
VERTEX
  8
C244
  10
28.003300
  20
17.479300
  0
VERTEX
  8
C244
  10
27.003100
  20
17.508400
  0
VERTEX
  8
C244
  10
26.002800
  20
17.538700
  0
VERTEX
  8
C244
  10
25.002600
  20
17.570300
  0
VERTEX
  8
C244
  10
24.002300
  20
17.603200
  0
VERTEX
  8
C244
  10
23.002100
  20
17.637400
  0
VERTEX
  8
C244
  10
22.001800
  20
17.672800
  0
VERTEX
  8
C244
  10
21.001600
  20
17.709400
  0
VERTEX
  8
C244
  10
20.001300
  20
17.747300
  0
VERTEX
  8
C244
  10
19.001100
  20
17.786400
  0
VERTEX
  8
C244
  10
18.000900
  20
17.826700
  0
VERTEX
  8
C244
  10
17.000600
  20
17.868200
  0
VERTEX
  8
C244
  10
16.000400
  20
17.910900
  0
VERTEX
  8
C244
  10
15.000200
  20
17.954800
  0
VERTEX
  8
C244
  10
14.000000
  20
18.000000
  0
SEQEND
  8
C244
  0
POLYLINE
  8
C244
  66
1
  10
14.000000
  20
11.000000
  0
VERTEX
  8
C244
  10
14.000000
  20
11.000000
  0
VERTEX
  8
C244
  10
14.000000
  20
7.000000
  0
VERTEX
  8
C244
  10
14.948000
  20
6.790800
  0
VERTEX
  8
C244
  10
15.903900
  20
6.594800
  0
VERTEX
  8
C244
  10
16.867200
  20
6.411500
  0
VERTEX
  8
C244
  10
17.837600
  20
6.240600
  0
VERTEX
  8
C244
  10
18.814400
  20
6.081600
  0
VERTEX
  8
C244
  10
19.797400
  20
5.934300
  0
VERTEX
  8
C244
  10
20.786100
  20
5.798100
  0
VERTEX
  8
C244
  10
21.780100
  20
5.672700
  0
VERTEX
  8
C244
  10
22.778900
  20
5.557800
  0
VERTEX
  8
C244
  10
23.782100
  20
5.453000
  0
VERTEX
  8
C244
  10
24.789300
  20
5.357800
  0
VERTEX
  8
C244
  10
25.800000
  20
5.272000
  0
VERTEX
  8
C244
  10
26.813800
  20
5.195100
  0
VERTEX
  8
C244
  10
27.830300
  20
5.126700
  0
VERTEX
  8
C244
  10
28.849100
  20
5.066500
  0
VERTEX
  8
C244
  10
29.869600
  20
5.014100
  0
VERTEX
  8
C244
  10
30.891600
  20
4.969100
  0
VERTEX
  8
C244
  10
31.914500
  20
4.931100
  0
VERTEX
  8
C244
  10
32.938000
  20
4.899800
  0
VERTEX
  8
C244
  10
33.961500
  20
4.874700
  0
VERTEX
  8
C244
  10
34.984700
  20
4.855500
  0
VERTEX
  8
C244
  10
36.007200
  20
4.841800
  0
VERTEX
  8
C244
  10
37.028400
  20
4.833300
  0
VERTEX
  8
C244
  10
38.048100
  20
4.829500
  0
VERTEX
  8
C244
  10
39.065600
  20
4.830100
  0
VERTEX
  8
C244
  10
40.080700
  20
4.834700
  0
VERTEX
  8
C244
  10
41.092900
  20
4.842800
  0
VERTEX
  8
C244
  10
42.101700
  20
4.854200
  0
VERTEX
  8
C244
  10
43.106700
  20
4.868500
  0
VERTEX
  8
C244
  10
44.107500
  20
4.885200
  0
VERTEX
  8
C244
  10
45.103700
  20
4.904000
  0
VERTEX
  8
C244
  10
46.094800
  20
4.924600
  0
VERTEX
  8
C244
  10
47.080400
  20
4.946400
  0
VERTEX
  8
C244
  10
48.060100
  20
4.969200
  0
VERTEX
  8
C244
  10
49.033400
  20
4.992600
  0
VERTEX
  8
C244
  10
50.000000
  20
5.016200
  0
VERTEX
  8
C244
  10
63.000000
  20
6.390432
  0
VERTEX
  8
C244
  10
63.728500
  20
6.244800
  0
VERTEX
  8
C244
  10
64.498600
  20
6.089400
  0
VERTEX
  8
C244
  10
65.305200
  20
5.928700
  0
VERTEX
  8
C244
  10
66.143000
  20
5.767100
  0
VERTEX
  8
C244
  10
67.006800
  20
5.609100
  0
VERTEX
  8
C244
  10
67.891500
  20
5.459100
  0
VERTEX
  8
C244
  10
68.792000
  20
5.321600
  0
VERTEX
  8
C244
  10
69.702900
  20
5.201000
  0
VERTEX
  8
C244
  10
70.619200
  20
5.101700
  0
VERTEX
  8
C244
  10
71.535700
  20
5.028300
  0
VERTEX
  8
C244
  10
72.447200
  20
4.985200
  0
VERTEX
  8
C244
  10
73.348500
  20
4.976800
  0
VERTEX
  8
C244
  10
74.234500
  20
5.007600
  0
VERTEX
  8
C244
  10
75.100000
  20
5.082100
  0
VERTEX
  8
C244
  10
75.939700
  20
5.204600
  0
VERTEX
  8
C244
  10
76.748600
  20
5.379700
  0
VERTEX
  8
C244
  10
77.521400
  20
5.611700
  0
VERTEX
  8
C244
  10
78.252900
  20
5.905300
  0
VERTEX
  8
C244
  10
78.938100
  20
6.264700
  0
VERTEX
  8
C244
  10
79.571700
  20
6.694500
  0
VERTEX
  8
C244
  10
80.148500
  20
7.199100
  0
VERTEX
  8
C244
  10
80.663300
  20
7.782900
  0
VERTEX
  8
C244
  10
81.111100
  20
8.450500
  0
VERTEX
  8
C244
  10
81.486600
  20
9.206200
  0
VERTEX
  8
C244
  10
81.784600
  20
10.054500
  0
VERTEX
  8
C244
  10
82.000000
  20
11.000000
  0
VERTEX
  8
C244
  10
81.005200
  20
10.915100
  0
VERTEX
  8
C244
  10
80.010000
  20
10.833900
  0
VERTEX
  8
C244
  10
79.014500
  20
10.756500
  0
VERTEX
  8
C244
  10
78.018600
  20
10.682600
  0
VERTEX
  8
C244
  10
77.022400
  20
10.612200
  0
VERTEX
  8
C244
  10
76.025900
  20
10.545400
  0
VERTEX
  8
C244
  10
75.029000
  20
10.481900
  0
VERTEX
  8
C244
  10
74.031800
  20
10.421900
  0
VERTEX
  8
C244
  10
73.034300
  20
10.365200
  0
VERTEX
  8
C244
  10
72.036500
  20
10.311800
  0
VERTEX
  8
C244
  10
71.038500
  20
10.261600
  0
VERTEX
  8
C244
  10
70.040100
  20
10.214600
  0
VERTEX
  8
C244
  10
69.041500
  20
10.170700
  0
VERTEX
  8
C244
  10
68.042700
  20
10.129900
  0
VERTEX
  8
C244
  10
67.043600
  20
10.092100
  0
VERTEX
  8
C244
  10
66.044300
  20
10.057200
  0
VERTEX
  8
C244
  10
65.044700
  20
10.025300
  0
VERTEX
  8
C244
  10
64.044900
  20
9.996200
  0
VERTEX
  8
C244
  10
63.045000
  20
9.969900
  0
VERTEX
  8
C244
  10
62.044800
  20
9.946300
  0
VERTEX
  8
C244
  10
61.044500
  20
9.925500
  0
VERTEX
  8
C244
  10
60.043900
  20
9.907300
  0
VERTEX
  8
C244
  10
59.043200
  20
9.891600
  0
VERTEX
  8
C244
  10
58.042400
  20
9.878600
  0
VERTEX
  8
C244
  10
57.041400
  20
9.867900
  0
VERTEX
  8
C244
  10
56.040200
  20
9.859700
  0
VERTEX
  8
C244
  10
55.039000
  20
9.853900
  0
VERTEX
  8
C244
  10
54.037600
  20
9.850400
  0
VERTEX
  8
C244
  10
53.036100
  20
9.849200
  0
VERTEX
  8
C244
  10
52.034600
  20
9.850200
  0
VERTEX
  8
C244
  10
51.032900
  20
9.853300
  0
VERTEX
  8
C244
  10
50.031200
  20
9.858600
  0
VERTEX
  8
C244
  10
49.029300
  20
9.865900
  0
VERTEX
  8
C244
  10
48.027500
  20
9.875200
  0
VERTEX
  8
C244
  10
47.025600
  20
9.886400
  0
VERTEX
  8
C244
  10
46.023600
  20
9.899600
  0
VERTEX
  8
C244
  10
45.021600
  20
9.914500
  0
VERTEX
  8
C244
  10
44.019600
  20
9.931300
  0
VERTEX
  8
C244
  10
43.017600
  20
9.949800
  0
VERTEX
  8
C244
  10
42.015600
  20
9.970000
  0
VERTEX
  8
C244
  10
41.013600
  20
9.991800
  0
VERTEX
  8
C244
  10
40.011700
  20
10.015100
  0
VERTEX
  8
C244
  10
39.009700
  20
10.040000
  0
VERTEX
  8
C244
  10
38.007800
  20
10.066400
  0
VERTEX
  8
C244
  10
37.006000
  20
10.094200
  0
VERTEX
  8
C244
  10
36.004200
  20
10.123300
  0
VERTEX
  8
C244
  10
35.002500
  20
10.153700
  0
VERTEX
  8
C244
  10
34.000800
  20
10.185400
  0
VERTEX
  8
C244
  10
32.999300
  20
10.218300
  0
VERTEX
  8
C244
  10
31.997800
  20
10.252300
  0
VERTEX
  8
C244
  10
30.996500
  20
10.287500
  0
VERTEX
  8
C244
  10
29.995300
  20
10.323600
  0
VERTEX
  8
C244
  10
28.994200
  20
10.360800
  0
VERTEX
  8
C244
  10
27.993200
  20
10.398800
  0
VERTEX
  8
C244
  10
26.992400
  20
10.437800
  0
VERTEX
  8
C244
  10
25.991800
  20
10.477600
  0
VERTEX
  8
C244
  10
24.991300
  20
10.518100
  0
VERTEX
  8
C244
  10
23.991000
  20
10.559400
  0
VERTEX
  8
C244
  10
22.990900
  20
10.601400
  0
VERTEX
  8
C244
  10
21.991000
  20
10.643900
  0
VERTEX
  8
C244
  10
20.991200
  20
10.687000
  0
VERTEX
  8
C244
  10
19.991800
  20
10.730600
  0
VERTEX
  8
C244
  10
18.992500
  20
10.774700
  0
VERTEX
  8
C244
  10
17.993500
  20
10.819200
  0
VERTEX
  8
C244
  10
16.994700
  20
10.864000
  0
VERTEX
  8
C244
  10
15.996200
  20
10.909100
  0
VERTEX
  8
C244
  10
14.997900
  20
10.954400
  0
VERTEX
  8
C244
  10
14.000000
  20
11.000000
  0
SEQEND
  8
0
  0
ENDSEC
  0
EOF
