0
SECTION
2
HEADER
0
ENDSEC
0
SECTION
2
TABLES
0
ENDSEC
0
SECTION
2
BLOCKS
0
ENDSEC
0
SECTION
2
ENTITIES
0
POLYLINE
8
R2V
62
0
66
1
70
8
0
VERTEX
8
R2V
62
0
70
32
10
2.504425
20
0.398230
30
0
0
VERTEX
8
R2V
62
0
70
32
10
2.504425
20
0.238938
30
0
0
VERTEX
8
R2V
62
0
70
32
10
2.336283
20
0.194690
30
0
0
VERTEX
8
R2V
62
0
70
32
10
2.238938
20
0.159292
30
0
0
VERTEX
8
R2V
62
0
70
32
10
2.000000
20
0.176991
30
0
0
VERTEX
8
R2V
62
0
70
32
10
1.858407
20
0.238938
30
0
0
VERTEX
8
R2V
62
0
70
32
10
1.681416
20
0.221239
30
0
0
VERTEX
8
R2V
62
0
70
32
10
1.504425
20
0.159292
30
0
0
VERTEX
8
R2V
62
0
70
32
10
1.256637
20
0.176991
30
0
0
VERTEX
8
R2V
62
0
70
32
10
1.106195
20
0.238938
30
0
0
VERTEX
8
R2V
62
0
70
32
10
0.920354
20
0.221239
30
0
0
VERTEX
8
R2V
62
0
70
32
10
0.752212
20
0.159292
30
0
0
VERTEX
8
R2V
62
0
70
32
10
0.504425
20
0.176991
30
0
0
VERTEX
8
R2V
62
0
70
32
10
0.345133
20
0.238938
30
0
0
VERTEX
8
R2V
62
0
70
32
10
0.283186
20
0.238938
30
0
0
VERTEX
8
R2V
62
0
70
32
10
0.283186
20
0.398230
30
0
0
VERTEX
8
R2V
62
0
70
32
10
0.345133
20
0.398230
30
0
0
VERTEX
8
R2V
62
0
70
32
10
0.592920
20
0.318584
30
0
0
VERTEX
8
R2V
62
0
70
32
10
0.796460
20
0.336283
30
0
0
VERTEX
8
R2V
62
0
70
32
10
0.911504
20
0.389381
30
0
0
VERTEX
8
R2V
62
0
70
32
10
1.176991
20
0.389381
30
0
0
VERTEX
8
R2V
62
0
70
32
10
1.345133
20
0.318584
30
0
0
VERTEX
8
R2V
62
0
70
32
10
1.557522
20
0.336283
30
0
0
VERTEX
8
R2V
62
0
70
32
10
1.663717
20
0.389381
30
0
0
VERTEX
8
R2V
62
0
70
32
10
1.920354
20
0.389381
30
0
0
VERTEX
8
R2V
62
0
70
32
10
2.088496
20
0.318584
30
0
0
VERTEX
8
R2V
62
0
70
32
10
2.274336
20
0.336283
30
0
0
VERTEX
8
R2V
62
0
70
32
10
2.398230
20
0.389381
30
0
0
VERTEX
8
R2V
62
0
70
32
10
2.504425
20
0.398230
30
0
0
SEQEND
0
POLYLINE
8
R2V
62
0
66
1
70
8
0
VERTEX
8
R2V
62
0
70
32
10
2.504425
20
0.814159
30
0
0
VERTEX
8
R2V
62
0
70
32
10
2.504425
20
0.734513
30
0
0
VERTEX
8
R2V
62
0
70
32
10
2.380531
20
0.716814
30
0
0
VERTEX
8
R2V
62
0
70
32
10
2.256637
20
0.663717
30
0
0
VERTEX
8
R2V
62
0
70
32
10
2.053097
20
0.663717
30
0
0
VERTEX
8
R2V
62
0
70
32
10
1.867257
20
0.734513
30
0
0
VERTEX
8
R2V
62
0
70
32
10
1.654867
20
0.716814
30
0
0
VERTEX
8
R2V
62
0
70
32
10
1.530973
20
0.663717
30
0
0
VERTEX
8
R2V
62
0
70
32
10
1.309735
20
0.663717
30
0
0
VERTEX
8
R2V
62
0
70
32
10
1.123894
20
0.734513
30
0
0
VERTEX
8
R2V
62
0
70
32
10
0.902655
20
0.716814
30
0
0
VERTEX
8
R2V
62
0
70
32
10
0.769912
20
0.663717
30
0
0
VERTEX
8
R2V
62
0
70
32
10
0.557522
20
0.663717
30
0
0
VERTEX
8
R2V
62
0
70
32
10
0.362832
20
0.734513
30
0
0
VERTEX
8
R2V
62
0
70
32
10
0.283186
20
0.734513
30
0
0
VERTEX
8
R2V
62
0
70
32
10
0.283186
20
0.814159
30
0
0
VERTEX
8
R2V
62
0
70
32
10
0.398230
20
0.814159
30
0
0
VERTEX
8
R2V
62
0
70
32
10
0.557522
20
0.743363
30
0
0
VERTEX
8
R2V
62
0
70
32
10
0.628319
20
0.743363
30
0
0
VERTEX
8
R2V
62
0
70
32
10
0.699115
20
0.734513
30
0
0
VERTEX
8
R2V
62
0
70
32
10
0.876106
20
0.787611
30
0
0
VERTEX
8
R2V
62
0
70
32
10
0.929204
20
0.814159
30
0
0
VERTEX
8
R2V
62
0
70
32
10
1.150442
20
0.814159
30
0
0
VERTEX
8
R2V
62
0
70
32
10
1.318584
20
0.743363
30
0
0
VERTEX
8
R2V
62
0
70
32
10
1.380531
20
0.743363
30
0
0
VERTEX
8
R2V
62
0
70
32
10
1.460177
20
0.734513
30
0
0
VERTEX
8
R2V
62
0
70
32
10
1.690265
20
0.814159
30
0
0
VERTEX
8
R2V
62
0
70
32
10
1.902655
20
0.814159
30
0
0
VERTEX
8
R2V
62
0
70
32
10
2.061947
20
0.743363
30
0
0
VERTEX
8
R2V
62
0
70
32
10
2.123894
20
0.743363
30
0
0
VERTEX
8
R2V
62
0
70
32
10
2.194690
20
0.734513
30
0
0
VERTEX
8
R2V
62
0
70
32
10
2.415929
20
0.814159
30
0
0
VERTEX
8
R2V
62
0
70
32
10
2.504425
20
0.814159
30
0
0
SEQEND
0
POLYLINE
8
R2V
62
0
66
1
70
8
0
VERTEX
8
R2V
62
0
70
32
10
2.504425
20
0.628319
30
0
0
VERTEX
8
R2V
62
0
70
32
10
2.504425
20
0.504425
30
0
0
VERTEX
8
R2V
62
0
70
32
10
2.389381
20
0.486726
30
0
0
VERTEX
8
R2V
62
0
70
32
10
2.265487
20
0.433628
30
0
0
VERTEX
8
R2V
62
0
70
32
10
2.053097
20
0.433628
30
0
0
VERTEX
8
R2V
62
0
70
32
10
1.876106
20
0.504425
30
0
0
VERTEX
8
R2V
62
0
70
32
10
1.690265
20
0.495575
30
0
0
VERTEX
8
R2V
62
0
70
32
10
1.530973
20
0.433628
30
0
0
VERTEX
8
R2V
62
0
70
32
10
1.309735
20
0.433628
30
0
0
VERTEX
8
R2V
62
0
70
32
10
1.123894
20
0.504425
30
0
0
VERTEX
8
R2V
62
0
70
32
10
0.929204
20
0.495575
30
0
0
VERTEX
8
R2V
62
0
70
32
10
0.778761
20
0.433628
30
0
0
VERTEX
8
R2V
62
0
70
32
10
0.557522
20
0.433628
30
0
0
VERTEX
8
R2V
62
0
70
32
10
0.362832
20
0.504425
30
0
0
VERTEX
8
R2V
62
0
70
32
10
0.283186
20
0.504425
30
0
0
VERTEX
8
R2V
62
0
70
32
10
0.283186
20
0.628319
30
0
0
VERTEX
8
R2V
62
0
70
32
10
0.345133
20
0.628319
30
0
0
VERTEX
8
R2V
62
0
70
32
10
0.592920
20
0.548673
30
0
0
VERTEX
8
R2V
62
0
70
32
10
0.805310
20
0.566372
30
0
0
VERTEX
8
R2V
62
0
70
32
10
0.911504
20
0.619469
30
0
0
VERTEX
8
R2V
62
0
70
32
10
1.168142
20
0.619469
30
0
0
VERTEX
8
R2V
62
0
70
32
10
1.345133
20
0.548673
30
0
0
VERTEX
8
R2V
62
0
70
32
10
1.557522
20
0.566372
30
0
0
VERTEX
8
R2V
62
0
70
32
10
1.672566
20
0.619469
30
0
0
VERTEX
8
R2V
62
0
70
32
10
1.920354
20
0.619469
30
0
0
VERTEX
8
R2V
62
0
70
32
10
2.088496
20
0.548673
30
0
0
VERTEX
8
R2V
62
0
70
32
10
2.283186
20
0.566372
30
0
0
VERTEX
8
R2V
62
0
70
32
10
2.389381
20
0.619469
30
0
0
VERTEX
8
R2V
62
0
70
32
10
2.504425
20
0.628319
30
0
0
SEQEND
0
POLYLINE
8
R2V
62
0
66
1
70
8
0
VERTEX
8
R2V
62
0
70
32
10
5.522124
20
1.079646
30
0
0
VERTEX
8
R2V
62
0
70
32
10
5.371681
20
1.070796
30
0
0
VERTEX
8
R2V
62
0
70
32
10
5.345133
20
0.955752
30
0
0
VERTEX
8
R2V
62
0
70
32
10
5.362832
20
0.955752
30
0
0
VERTEX
8
R2V
62
0
70
32
10
5.477876
20
0.946903
30
0
0
VERTEX
8
R2V
62
0
70
32
10
5.522124
20
1.079646
30
0
0
SEQEND
0
POLYLINE
8
R2V
62
0
66
1
70
8
0
VERTEX
8
R2V
62
0
70
32
10
0.309735
20
1.362832
30
0
0
VERTEX
8
R2V
62
0
70
32
10
0.300885
20
1.362832
30
0
0
VERTEX
8
R2V
62
0
70
32
10
0.300885
20
1.353982
30
0
0
VERTEX
8
R2V
62
0
70
32
10
0.309735
20
1.353982
30
0
0
VERTEX
8
R2V
62
0
70
32
10
0.309735
20
1.362832
30
0
0
SEQEND
0
POLYLINE
8
R2V
62
0
66
1
70
8
0
VERTEX
8
R2V
62
0
70
32
10
8.734513
20
1.327434
30
0
0
VERTEX
8
R2V
62
0
70
32
10
8.823009
20
1.283186
30
0
0
VERTEX
8
R2V
62
0
70
32
10
8.840708
20
1.141593
30
0
0
VERTEX
8
R2V
62
0
70
32
10
8.814159
20
1.044248
30
0
0
VERTEX
8
R2V
62
0
70
32
10
8.424779
20
1.044248
30
0
0
VERTEX
8
R2V
62
0
70
32
10
8.415929
20
0.955752
30
0
0
VERTEX
8
R2V
62
0
70
32
10
8.433628
20
0.955752
30
0
0
VERTEX
8
R2V
62
0
70
32
10
8.752212
20
0.946903
30
0
0
VERTEX
8
R2V
62
0
70
32
10
8.778761
20
0.955752
30
0
0
VERTEX
8
R2V
62
0
70
32
10
8.743363
20
0.858407
30
0
0
VERTEX
8
R2V
62
0
70
32
10
8.247788
20
0.867257
30
0
0
VERTEX
8
R2V
62
0
70
32
10
8.185841
20
0.929204
30
0
0
VERTEX
8
R2V
62
0
70
32
10
8.194690
20
1.070796
30
0
0
VERTEX
8
R2V
62
0
70
32
10
8.265487
20
1.283186
30
0
0
VERTEX
8
R2V
62
0
70
32
10
8.353982
20
1.327434
30
0
0
VERTEX
8
R2V
62
0
70
32
10
8.734513
20
1.327434
30
0
0
SEQEND
0
POLYLINE
8
R2V
62
0
66
1
70
8
0
VERTEX
8
R2V
62
0
70
32
10
8.061947
20
1.327434
30
0
0
VERTEX
8
R2V
62
0
70
32
10
8.132743
20
1.300885
30
0
0
VERTEX
8
R2V
62
0
70
32
10
8.168142
20
1.238938
30
0
0
VERTEX
8
R2V
62
0
70
32
10
8.132743
20
1.044248
30
0
0
VERTEX
8
R2V
62
0
70
32
10
7.752212
20
1.044248
30
0
0
VERTEX
8
R2V
62
0
70
32
10
7.734513
20
0.955752
30
0
0
VERTEX
8
R2V
62
0
70
32
10
7.752212
20
0.955752
30
0
0
VERTEX
8
R2V
62
0
70
32
10
8.070796
20
0.946903
30
0
0
VERTEX
8
R2V
62
0
70
32
10
8.097345
20
0.955752
30
0
0
VERTEX
8
R2V
62
0
70
32
10
8.061947
20
0.858407
30
0
0
VERTEX
8
R2V
62
0
70
32
10
7.575221
20
0.867257
30
0
0
VERTEX
8
R2V
62
0
70
32
10
7.513274
20
0.920354
30
0
0
VERTEX
8
R2V
62
0
70
32
10
7.513274
20
1.053097
30
0
0
VERTEX
8
R2V
62
0
70
32
10
7.584071
20
1.274336
30
0
0
VERTEX
8
R2V
62
0
70
32
10
7.637168
20
1.318584
30
0
0
VERTEX
8
R2V
62
0
70
32
10
8.061947
20
1.327434
30
0
0
SEQEND
0
POLYLINE
8
R2V
62
0
66
1
70
8
0
VERTEX
8
R2V
62
0
70
32
10
5.690265
20
1.327434
30
0
0
VERTEX
8
R2V
62
0
70
32
10
5.752212
20
1.283186
30
0
0
VERTEX
8
R2V
62
0
70
32
10
5.778761
20
1.176991
30
0
0
VERTEX
8
R2V
62
0
70
32
10
5.716814
20
0.884956
30
0
0
VERTEX
8
R2V
62
0
70
32
10
5.716814
20
0.858407
30
0
0
VERTEX
8
R2V
62
0
70
32
10
5.486726
20
0.858407
30
0
0
VERTEX
8
R2V
62
0
70
32
10
5.469027
20
0.884956
30
0
0
VERTEX
8
R2V
62
0
70
32
10
5.433628
20
0.858407
30
0
0
VERTEX
8
R2V
62
0
70
32
10
5.176991
20
0.867257
30
0
0
VERTEX
8
R2V
62
0
70
32
10
5.115044
20
0.929204
30
0
0
VERTEX
8
R2V
62
0
70
32
10
5.132743
20
1.079646
30
0
0
VERTEX
8
R2V
62
0
70
32
10
5.185841
20
1.159292
30
0
0
VERTEX
8
R2V
62
0
70
32
10
5.539823
20
1.176991
30
0
0
VERTEX
8
R2V
62
0
70
32
10
5.539823
20
1.230088
30
0
0
VERTEX
8
R2V
62
0
70
32
10
5.185841
20
1.230088
30
0
0
VERTEX
8
R2V
62
0
70
32
10
5.221239
20
1.327434
30
0
0
VERTEX
8
R2V
62
0
70
32
10
5.690265
20
1.327434
30
0
0
SEQEND
0
POLYLINE
8
R2V
62
0
66
1
70
8
0
VERTEX
8
R2V
62
0
70
32
10
4.672566
20
1.327434
30
0
0
VERTEX
8
R2V
62
0
70
32
10
4.761062
20
1.274336
30
0
0
VERTEX
8
R2V
62
0
70
32
10
4.769912
20
1.185841
30
0
0
VERTEX
8
R2V
62
0
70
32
10
4.699115
20
0.911504
30
0
0
VERTEX
8
R2V
62
0
70
32
10
4.628319
20
0.858407
30
0
0
VERTEX
8
R2V
62
0
70
32
10
4.336283
20
0.867257
30
0
0
VERTEX
8
R2V
62
0
70
32
10
4.309735
20
0.884956
30
0
0
VERTEX
8
R2V
62
0
70
32
10
4.283186
20
0.690265
30
0
0
VERTEX
8
R2V
62
0
70
32
10
4.035398
20
0.690265
30
0
0
VERTEX
8
R2V
62
0
70
32
10
4.176991
20
1.238938
30
0
0
VERTEX
8
R2V
62
0
70
32
10
4.176991
20
1.327434
30
0
0
VERTEX
8
R2V
62
0
70
32
10
4.415929
20
1.327434
30
0
0
VERTEX
8
R2V
62
0
70
32
10
4.424779
20
1.300885
30
0
0
VERTEX
8
R2V
62
0
70
32
10
4.486726
20
1.327434
30
0
0
VERTEX
8
R2V
62
0
70
32
10
4.672566
20
1.327434
30
0
0
SEQEND
0
POLYLINE
8
R2V
62
0
66
1
70
8
0
VERTEX
8
R2V
62
0
70
32
10
6.132743
20
1.309735
30
0
0
VERTEX
8
R2V
62
0
70
32
10
6.132743
20
1.300885
30
0
0
VERTEX
8
R2V
62
0
70
32
10
6.176991
20
1.327434
30
0
0
VERTEX
8
R2V
62
0
70
32
10
6.389381
20
1.327434
30
0
0
VERTEX
8
R2V
62
0
70
32
10
6.460177
20
1.283186
30
0
0
VERTEX
8
R2V
62
0
70
32
10
6.486726
20
1.238938
30
0
0
VERTEX
8
R2V
62
0
70
32
10
6.451327
20
1.017699
30
0
0
VERTEX
8
R2V
62
0
70
32
10
6.424779
20
0.858407
30
0
0
VERTEX
8
R2V
62
0
70
32
10
6.159292
20
0.858407
30
0
0
VERTEX
8
R2V
62
0
70
32
10
6.265487
20
1.221239
30
0
0
VERTEX
8
R2V
62
0
70
32
10
6.123894
20
1.230088
30
0
0
VERTEX
8
R2V
62
0
70
32
10
6.035398
20
0.876106
30
0
0
VERTEX
8
R2V
62
0
70
32
10
6.044248
20
0.876106
30
0
0
VERTEX
8
R2V
62
0
70
32
10
6.044248
20
0.858407
30
0
0
VERTEX
8
R2V
62
0
70
32
10
5.778761
20
0.867257
30
0
0
VERTEX
8
R2V
62
0
70
32
10
5.884956
20
1.212389
30
0
0
VERTEX
8
R2V
62
0
70
32
10
5.884956
20
1.327434
30
0
0
VERTEX
8
R2V
62
0
70
32
10
6.132743
20
1.327434
30
0
0
VERTEX
8
R2V
62
0
70
32
10
6.132743
20
1.309735
30
0
0
SEQEND
0
POLYLINE
8
R2V
62
0
66
1
70
8
0
VERTEX
8
R2V
62
0
70
32
10
7.274336
20
1.389381
30
0
0
VERTEX
8
R2V
62
0
70
32
10
7.123894
20
1.389381
30
0
0
VERTEX
8
R2V
62
0
70
32
10
7.088496
20
1.238938
30
0
0
VERTEX
8
R2V
62
0
70
32
10
7.256637
20
1.247788
30
0
0
VERTEX
8
R2V
62
0
70
32
10
7.274336
20
1.380531
30
0
0
VERTEX
8
R2V
62
0
70
32
10
7.274336
20
1.389381
30
0
0
SEQEND
0
POLYLINE
8
R2V
62
0
66
1
70
8
0
VERTEX
8
R2V
62
0
70
32
10
3.778761
20
1.327434
30
0
0
VERTEX
8
R2V
62
0
70
32
10
3.769912
20
1.221239
30
0
0
VERTEX
8
R2V
62
0
70
32
10
3.433628
20
1.230088
30
0
0
VERTEX
8
R2V
62
0
70
32
10
3.442478
20
1.194690
30
0
0
VERTEX
8
R2V
62
0
70
32
10
3.672566
20
1.194690
30
0
0
VERTEX
8
R2V
62
0
70
32
10
3.734513
20
1.141593
30
0
0
VERTEX
8
R2V
62
0
70
32
10
3.725664
20
1.017699
30
0
0
VERTEX
8
R2V
62
0
70
32
10
3.672566
20
0.893805
30
0
0
VERTEX
8
R2V
62
0
70
32
10
3.601770
20
0.858407
30
0
0
VERTEX
8
R2V
62
0
70
32
10
3.132743
20
0.867257
30
0
0
VERTEX
8
R2V
62
0
70
32
10
3.141593
20
0.964602
30
0
0
VERTEX
8
R2V
62
0
70
32
10
3.150442
20
0.964602
30
0
0
VERTEX
8
R2V
62
0
70
32
10
3.185841
20
0.946903
30
0
0
VERTEX
8
R2V
62
0
70
32
10
3.477876
20
0.955752
30
0
0
VERTEX
8
R2V
62
0
70
32
10
3.486726
20
0.991150
30
0
0
VERTEX
8
R2V
62
0
70
32
10
3.221239
20
1.008850
30
0
0
VERTEX
8
R2V
62
0
70
32
10
3.176991
20
1.061947
30
0
0
VERTEX
8
R2V
62
0
70
32
10
3.212389
20
1.256637
30
0
0
VERTEX
8
R2V
62
0
70
32
10
3.274336
20
1.318584
30
0
0
VERTEX
8
R2V
62
0
70
32
10
3.778761
20
1.327434
30
0
0
SEQEND
0
POLYLINE
8
R2V
62
0
66
1
70
8
0
VERTEX
8
R2V
62
0
70
32
10
8.610619
20
1.230088
30
0
0
VERTEX
8
R2V
62
0
70
32
10
8.469027
20
1.221239
30
0
0
VERTEX
8
R2V
62
0
70
32
10
8.451327
20
1.132743
30
0
0
VERTEX
8
R2V
62
0
70
32
10
8.601770
20
1.141593
30
0
0
VERTEX
8
R2V
62
0
70
32
10
8.610619
20
1.230088
30
0
0
SEQEND
0
POLYLINE
8
R2V
62
0
66
1
70
8
0
VERTEX
8
R2V
62
0
70
32
10
7.929204
20
1.230088
30
0
0
VERTEX
8
R2V
62
0
70
32
10
7.796460
20
1.221239
30
0
0
VERTEX
8
R2V
62
0
70
32
10
7.778761
20
1.132743
30
0
0
VERTEX
8
R2V
62
0
70
32
10
7.920354
20
1.132743
30
0
0
VERTEX
8
R2V
62
0
70
32
10
7.929204
20
1.230088
30
0
0
SEQEND
0
POLYLINE
8
R2V
62
0
66
1
70
8
0
VERTEX
8
R2V
62
0
70
32
10
2.424779
20
1.362832
30
0
0
VERTEX
8
R2V
62
0
70
32
10
2.265487
20
1.123894
30
0
0
VERTEX
8
R2V
62
0
70
32
10
2.469027
20
1.123894
30
0
0
VERTEX
8
R2V
62
0
70
32
10
2.424779
20
1.362832
30
0
0
SEQEND
0
POLYLINE
8
R2V
62
0
66
1
70
8
0
VERTEX
8
R2V
62
0
70
32
10
4.539823
20
1.230088
30
0
0
VERTEX
8
R2V
62
0
70
32
10
4.407080
20
1.221239
30
0
0
VERTEX
8
R2V
62
0
70
32
10
4.345133
20
0.955752
30
0
0
VERTEX
8
R2V
62
0
70
32
10
4.353982
20
0.955752
30
0
0
VERTEX
8
R2V
62
0
70
32
10
4.460177
20
0.946903
30
0
0
VERTEX
8
R2V
62
0
70
32
10
4.486726
20
0.964602
30
0
0
VERTEX
8
R2V
62
0
70
32
10
4.539823
20
1.221239
30
0
0
VERTEX
8
R2V
62
0
70
32
10
4.539823
20
1.230088
30
0
0
SEQEND
0
POLYLINE
8
R2V
62
0
66
1
70
8
0
VERTEX
8
R2V
62
0
70
32
10
5.123894
20
1.327434
30
0
0
VERTEX
8
R2V
62
0
70
32
10
5.017699
20
0.938053
30
0
0
VERTEX
8
R2V
62
0
70
32
10
5.017699
20
0.858407
30
0
0
VERTEX
8
R2V
62
0
70
32
10
4.761062
20
0.867257
30
0
0
VERTEX
8
R2V
62
0
70
32
10
4.867257
20
1.221239
30
0
0
VERTEX
8
R2V
62
0
70
32
10
4.867257
20
1.327434
30
0
0
VERTEX
8
R2V
62
0
70
32
10
5.123894
20
1.327434
30
0
0
SEQEND
0
POLYLINE
8
R2V
62
0
66
1
70
8
0
VERTEX
8
R2V
62
0
70
32
10
4.097345
20
1.327434
30
0
0
VERTEX
8
R2V
62
0
70
32
10
4.000000
20
0.946903
30
0
0
VERTEX
8
R2V
62
0
70
32
10
4.000000
20
0.858407
30
0
0
VERTEX
8
R2V
62
0
70
32
10
3.734513
20
0.858407
30
0
0
VERTEX
8
R2V
62
0
70
32
10
3.849558
20
1.230088
30
0
0
VERTEX
8
R2V
62
0
70
32
10
3.849558
20
1.327434
30
0
0
VERTEX
8
R2V
62
0
70
32
10
4.097345
20
1.327434
30
0
0
SEQEND
0
POLYLINE
8
R2V
62
0
66
1
70
8
0
VERTEX
8
R2V
62
0
70
32
10
0.371681
20
1.628319
30
0
0
VERTEX
8
R2V
62
0
70
32
10
0.362832
20
1.628319
30
0
0
VERTEX
8
R2V
62
0
70
32
10
0.362832
20
1.619469
30
0
0
VERTEX
8
R2V
62
0
70
32
10
0.371681
20
1.619469
30
0
0
VERTEX
8
R2V
62
0
70
32
10
0.371681
20
1.628319
30
0
0
SEQEND
0
POLYLINE
8
R2V
62
0
66
1
70
8
0
VERTEX
8
R2V
62
0
70
32
10
0.380531
20
1.619469
30
0
0
VERTEX
8
R2V
62
0
70
32
10
0.371681
20
1.619469
30
0
0
VERTEX
8
R2V
62
0
70
32
10
0.371681
20
1.610619
30
0
0
VERTEX
8
R2V
62
0
70
32
10
0.380531
20
1.610619
30
0
0
VERTEX
8
R2V
62
0
70
32
10
0.380531
20
1.619469
30
0
0
SEQEND
0
POLYLINE
8
R2V
62
0
66
1
70
8
0
VERTEX
8
R2V
62
0
70
32
10
7.442478
20
1.495575
30
0
0
VERTEX
8
R2V
62
0
70
32
10
7.530973
20
1.415929
30
0
0
VERTEX
8
R2V
62
0
70
32
10
7.495575
20
1.212389
30
0
0
VERTEX
8
R2V
62
0
70
32
10
7.460177
20
1.150442
30
0
0
VERTEX
8
R2V
62
0
70
32
10
7.371681
20
1.123894
30
0
0
VERTEX
8
R2V
62
0
70
32
10
7.424779
20
0.876106
30
0
0
VERTEX
8
R2V
62
0
70
32
10
7.433628
20
0.876106
30
0
0
VERTEX
8
R2V
62
0
70
32
10
7.442478
20
0.858407
30
0
0
VERTEX
8
R2V
62
0
70
32
10
7.168142
20
0.858407
30
0
0
VERTEX
8
R2V
62
0
70
32
10
7.115044
20
1.132743
30
0
0
VERTEX
8
R2V
62
0
70
32
10
7.053097
20
1.123894
30
0
0
VERTEX
8
R2V
62
0
70
32
10
7.008850
20
0.858407
30
0
0
VERTEX
8
R2V
62
0
70
32
10
6.734513
20
0.867257
30
0
0
VERTEX
8
R2V
62
0
70
32
10
6.884956
20
1.398230
30
0
0
VERTEX
8
R2V
62
0
70
32
10
6.884956
20
1.495575
30
0
0
VERTEX
8
R2V
62
0
70
32
10
7.442478
20
1.495575
30
0
0
SEQEND
0
POLYLINE
8
R2V
62
0
66
1
70
8
0
VERTEX
8
R2V
62
0
70
32
10
9.460177
20
1.495575
30
0
0
VERTEX
8
R2V
62
0
70
32
10
9.451327
20
1.389381
30
0
0
VERTEX
8
R2V
62
0
70
32
10
9.292035
20
1.407080
30
0
0
VERTEX
8
R2V
62
0
70
32
10
9.238938
20
1.389381
30
0
0
VERTEX
8
R2V
62
0
70
32
10
9.230088
20
1.327434
30
0
0
VERTEX
8
R2V
62
0
70
32
10
9.415929
20
1.327434
30
0
0
VERTEX
8
R2V
62
0
70
32
10
9.407080
20
1.265487
30
0
0
VERTEX
8
R2V
62
0
70
32
10
9.469027
20
1.318584
30
0
0
VERTEX
8
R2V
62
0
70
32
10
9.973451
20
1.327434
30
0
0
VERTEX
8
R2V
62
0
70
32
10
9.964602
20
1.221239
30
0
0
VERTEX
8
R2V
62
0
70
32
10
9.619469
20
1.221239
30
0
0
VERTEX
8
R2V
62
0
70
32
10
9.628319
20
1.194690
30
0
0
VERTEX
8
R2V
62
0
70
32
10
9.858407
20
1.194690
30
0
0
VERTEX
8
R2V
62
0
70
32
10
9.929204
20
1.132743
30
0
0
VERTEX
8
R2V
62
0
70
32
10
9.884956
20
0.920354
30
0
0
VERTEX
8
R2V
62
0
70
32
10
9.823009
20
0.867257
30
0
0
VERTEX
8
R2V
62
0
70
32
10
9.318584
20
0.858407
30
0
0
VERTEX
8
R2V
62
0
70
32
10
9.327434
20
0.964602
30
0
0
VERTEX
8
R2V
62
0
70
32
10
9.345133
20
0.964602
30
0
0
VERTEX
8
R2V
62
0
70
32
10
9.371681
20
0.946903
30
0
0
VERTEX
8
R2V
62
0
70
32
10
9.672566
20
0.955752
30
0
0
VERTEX
8
R2V
62
0
70
32
10
9.672566
20
0.991150
30
0
0
VERTEX
8
R2V
62
0
70
32
10
9.407080
20
1.008850
30
0
0
VERTEX
8
R2V
62
0
70
32
10
9.371681
20
1.053097
30
0
0
VERTEX
8
R2V
62
0
70
32
10
9.389381
20
1.221239
30
0
0
VERTEX
8
R2V
62
0
70
32
10
9.389381
20
1.230088
30
0
0
VERTEX
8
R2V
62
0
70
32
10
9.203540
20
1.230088
30
0
0
VERTEX
8
R2V
62
0
70
32
10
9.123894
20
0.867257
30
0
0
VERTEX
8
R2V
62
0
70
32
10
9.132743
20
0.867257
30
0
0
VERTEX
8
R2V
62
0
70
32
10
8.867257
20
0.867257
30
0
0
VERTEX
8
R2V
62
0
70
32
10
8.973451
20
1.230088
30
0
0
VERTEX
8
R2V
62
0
70
32
10
8.867257
20
1.230088
30
0
0
VERTEX
8
R2V
62
0
70
32
10
8.893805
20
1.327434
30
0
0
VERTEX
8
R2V
62
0
70
32
10
9.000000
20
1.327434
30
0
0
VERTEX
8
R2V
62
0
70
32
10
9.035398
20
1.442478
30
0
0
VERTEX
8
R2V
62
0
70
32
10
9.088496
20
1.486726
30
0
0
VERTEX
8
R2V
62
0
70
32
10
9.460177
20
1.495575
30
0
0
SEQEND
0
POLYLINE
8
R2V
62
0
66
1
70
8
0
VERTEX
8
R2V
62
0
70
32
10
5.168142
20
1.495575
30
0
0
VERTEX
8
R2V
62
0
70
32
10
5.132743
20
1.371681
30
0
0
VERTEX
8
R2V
62
0
70
32
10
4.902655
20
1.371681
30
0
0
VERTEX
8
R2V
62
0
70
32
10
4.929204
20
1.495575
30
0
0
VERTEX
8
R2V
62
0
70
32
10
5.168142
20
1.495575
30
0
0
SEQEND
0
POLYLINE
8
R2V
62
0
66
1
70
8
0
VERTEX
8
R2V
62
0
70
32
10
4.141593
20
1.495575
30
0
0
VERTEX
8
R2V
62
0
70
32
10
4.115044
20
1.371681
30
0
0
VERTEX
8
R2V
62
0
70
32
10
3.884956
20
1.371681
30
0
0
VERTEX
8
R2V
62
0
70
32
10
3.911504
20
1.495575
30
0
0
VERTEX
8
R2V
62
0
70
32
10
4.141593
20
1.495575
30
0
0
SEQEND
0
POLYLINE
8
R2V
62
0
66
1
70
8
0
VERTEX
8
R2V
62
0
70
32
10
2.318584
20
1.849558
30
0
0
VERTEX
8
R2V
62
0
70
32
10
2.309735
20
1.849558
30
0
0
VERTEX
8
R2V
62
0
70
32
10
2.309735
20
1.840708
30
0
0
VERTEX
8
R2V
62
0
70
32
10
2.318584
20
1.840708
30
0
0
VERTEX
8
R2V
62
0
70
32
10
2.318584
20
1.849558
30
0
0
SEQEND
0
POLYLINE
8
R2V
62
0
66
1
70
8
0
VERTEX
8
R2V
62
0
70
32
10
0.513274
20
1.849558
30
0
0
VERTEX
8
R2V
62
0
70
32
10
0.504425
20
1.849558
30
0
0
VERTEX
8
R2V
62
0
70
32
10
0.504425
20
1.840708
30
0
0
VERTEX
8
R2V
62
0
70
32
10
0.513274
20
1.840708
30
0
0
VERTEX
8
R2V
62
0
70
32
10
0.513274
20
1.849558
30
0
0
SEQEND
0
POLYLINE
8
R2V
62
0
66
1
70
8
0
VERTEX
8
R2V
62
0
70
32
10
1.097345
20
1.734513
30
0
0
VERTEX
8
R2V
62
0
70
32
10
1.097345
20
1.725664
30
0
0
VERTEX
8
R2V
62
0
70
32
10
1.097345
20
1.734513
30
0
0
SEQEND
0
POLYLINE
8
R2V
62
0
66
1
70
8
0
VERTEX
8
R2V
62
0
70
32
10
1.256637
20
1.681416
30
0
0
VERTEX
8
R2V
62
0
70
32
10
1.256637
20
1.672566
30
0
0
VERTEX
8
R2V
62
0
70
32
10
1.256637
20
1.681416
30
0
0
SEQEND
0
POLYLINE
8
R2V
62
0
66
1
70
8
0
VERTEX
8
R2V
62
0
70
32
10
1.973451
20
2.194690
30
0
0
VERTEX
8
R2V
62
0
70
32
10
1.973451
20
2.185841
30
0
0
VERTEX
8
R2V
62
0
70
32
10
1.973451
20
2.194690
30
0
0
SEQEND
0
POLYLINE
8
R2V
62
0
66
1
70
8
0
VERTEX
8
R2V
62
0
70
32
10
2.168142
20
2.035398
30
0
0
VERTEX
8
R2V
62
0
70
32
10
2.168142
20
2.026549
30
0
0
VERTEX
8
R2V
62
0
70
32
10
2.185841
20
2.044248
30
0
0
VERTEX
8
R2V
62
0
70
32
10
2.168142
20
2.035398
30
0
0
SEQEND
0
POLYLINE
8
R2V
62
0
66
1
70
8
0
VERTEX
8
R2V
62
0
70
32
10
0.929204
20
1.752212
30
0
0
VERTEX
8
R2V
62
0
70
32
10
0.929204
20
1.734513
30
0
0
VERTEX
8
R2V
62
0
70
32
10
1.017699
20
1.876106
30
0
0
VERTEX
8
R2V
62
0
70
32
10
1.221239
20
2.061947
30
0
0
VERTEX
8
R2V
62
0
70
32
10
1.247788
20
2.079646
30
0
0
VERTEX
8
R2V
62
0
70
32
10
1.044248
20
2.026549
30
0
0
VERTEX
8
R2V
62
0
70
32
10
0.929204
20
1.752212
30
0
0
SEQEND
0
POLYLINE
8
R2V
62
0
66
1
70
8
0
VERTEX
8
R2V
62
0
70
32
10
0.893805
20
1.964602
30
0
0
VERTEX
8
R2V
62
0
70
32
10
0.778761
20
1.902655
30
0
0
VERTEX
8
R2V
62
0
70
32
10
0.752212
20
1.699115
30
0
0
VERTEX
8
R2V
62
0
70
32
10
0.867257
20
1.929204
30
0
0
VERTEX
8
R2V
62
0
70
32
10
0.893805
20
1.964602
30
0
0
SEQEND
0
POLYLINE
8
R2V
62
0
66
1
70
8
0
VERTEX
8
R2V
62
0
70
32
10
1.486726
20
2.380531
30
0
0
VERTEX
8
R2V
62
0
70
32
10
1.486726
20
2.371681
30
0
0
VERTEX
8
R2V
62
0
70
32
10
1.486726
20
2.380531
30
0
0
SEQEND
0
POLYLINE
8
R2V
62
0
66
1
70
8
0
VERTEX
8
R2V
62
0
70
32
10
1.194690
20
2.345133
30
0
0
VERTEX
8
R2V
62
0
70
32
10
1.185841
20
2.345133
30
0
0
VERTEX
8
R2V
62
0
70
32
10
1.185841
20
2.327434
30
0
0
VERTEX
8
R2V
62
0
70
32
10
1.194690
20
2.327434
30
0
0
VERTEX
8
R2V
62
0
70
32
10
1.194690
20
2.345133
30
0
0
SEQEND
0
POLYLINE
8
R2V
62
0
66
1
70
8
0
VERTEX
8
R2V
62
0
70
32
10
2.008850
20
2.221239
30
0
0
VERTEX
8
R2V
62
0
70
32
10
1.982301
20
2.203540
30
0
0
VERTEX
8
R2V
62
0
70
32
10
2.283186
20
2.353982
30
0
0
VERTEX
8
R2V
62
0
70
32
10
2.610619
20
2.424779
30
0
0
VERTEX
8
R2V
62
0
70
32
10
2.787611
20
2.424779
30
0
0
VERTEX
8
R2V
62
0
70
32
10
2.840708
20
2.415929
30
0
0
VERTEX
8
R2V
62
0
70
32
10
2.769912
20
2.362832
30
0
0
VERTEX
8
R2V
62
0
70
32
10
2.238938
20
2.088496
30
0
0
VERTEX
8
R2V
62
0
70
32
10
2.185841
20
2.044248
30
0
0
VERTEX
8
R2V
62
0
70
32
10
2.451327
20
2.123894
30
0
0
VERTEX
8
R2V
62
0
70
32
10
2.849558
20
2.123894
30
0
0
VERTEX
8
R2V
62
0
70
32
10
2.929204
20
2.088496
30
0
0
VERTEX
8
R2V
62
0
70
32
10
2.327434
20
1.849558
30
0
0
VERTEX
8
R2V
62
0
70
32
10
2.725664
20
1.867257
30
0
0
VERTEX
8
R2V
62
0
70
32
10
2.938053
20
1.796460
30
0
0
VERTEX
8
R2V
62
0
70
32
10
2.911504
20
1.769912
30
0
0
VERTEX
8
R2V
62
0
70
32
10
2.424779
20
1.637168
30
0
0
VERTEX
8
R2V
62
0
70
32
10
2.557522
20
1.637168
30
0
0
VERTEX
8
R2V
62
0
70
32
10
2.814159
20
1.566372
30
0
0
VERTEX
8
R2V
62
0
70
32
10
2.893805
20
1.504425
30
0
0
VERTEX
8
R2V
62
0
70
32
10
2.654867
20
1.451327
30
0
0
VERTEX
8
R2V
62
0
70
32
10
2.681416
20
1.353982
30
0
0
VERTEX
8
R2V
62
0
70
32
10
2.699115
20
1.353982
30
0
0
VERTEX
8
R2V
62
0
70
32
10
2.805310
20
1.247788
30
0
0
VERTEX
8
R2V
62
0
70
32
10
2.699115
20
1.212389
30
0
0
VERTEX
8
R2V
62
0
70
32
10
2.707965
20
1.212389
30
0
0
VERTEX
8
R2V
62
0
70
32
10
2.778761
20
0.884956
30
0
0
VERTEX
8
R2V
62
0
70
32
10
2.787611
20
0.884956
30
0
0
VERTEX
8
R2V
62
0
70
32
10
2.796460
20
0.876106
30
0
0
VERTEX
8
R2V
62
0
70
32
10
2.849558
20
0.991150
30
0
0
VERTEX
8
R2V
62
0
70
32
10
2.955752
20
1.407080
30
0
0
VERTEX
8
R2V
62
0
70
32
10
2.955752
20
1.495575
30
0
0
VERTEX
8
R2V
62
0
70
32
10
3.203540
20
1.495575
30
0
0
VERTEX
8
R2V
62
0
70
32
10
3.061947
20
0.946903
30
0
0
VERTEX
8
R2V
62
0
70
32
10
3.061947
20
0.858407
30
0
0
VERTEX
8
R2V
62
0
70
32
10
2.504425
20
0.858407
30
0
0
VERTEX
8
R2V
62
0
70
32
10
2.495575
20
1.026549
30
0
0
VERTEX
8
R2V
62
0
70
32
10
2.185841
20
1.017699
30
0
0
VERTEX
8
R2V
62
0
70
32
10
2.106195
20
0.893805
30
0
0
VERTEX
8
R2V
62
0
70
32
10
2.106195
20
0.858407
30
0
0
VERTEX
8
R2V
62
0
70
32
10
1.946903
20
0.867257
30
0
0
VERTEX
8
R2V
62
0
70
32
10
2.353982
20
1.442478
30
0
0
VERTEX
8
R2V
62
0
70
32
10
2.336283
20
1.477876
30
0
0
VERTEX
8
R2V
62
0
70
32
10
2.309735
20
1.495575
30
0
0
VERTEX
8
R2V
62
0
70
32
10
2.371681
20
1.504425
30
0
0
VERTEX
8
R2V
62
0
70
32
10
2.238938
20
1.707965
30
0
0
VERTEX
8
R2V
62
0
70
32
10
2.026549
20
1.893805
30
0
0
VERTEX
8
R2V
62
0
70
32
10
1.752212
20
2.035398
30
0
0
VERTEX
8
R2V
62
0
70
32
10
1.495575
20
2.088496
30
0
0
VERTEX
8
R2V
62
0
70
32
10
1.380531
20
2.079646
30
0
0
VERTEX
8
R2V
62
0
70
32
10
1.123894
20
1.787611
30
0
0
VERTEX
8
R2V
62
0
70
32
10
1.115044
20
1.752212
30
0
0
VERTEX
8
R2V
62
0
70
32
10
1.309735
20
1.911504
30
0
0
VERTEX
8
R2V
62
0
70
32
10
1.504425
20
2.008850
30
0
0
VERTEX
8
R2V
62
0
70
32
10
1.699115
20
2.035398
30
0
0
VERTEX
8
R2V
62
0
70
32
10
1.292035
20
1.725664
30
0
0
VERTEX
8
R2V
62
0
70
32
10
1.274336
20
1.699115
30
0
0
SEQEND
0
POLYLINE
8
R2V
62
0
66
1
70
8
0
VERTEX
8
R2V
62
0
70
32
10
1.274336
20
1.699115
30
0
0
VERTEX
8
R2V
62
0
70
32
10
1.274336
20
1.690265
30
0
0
VERTEX
8
R2V
62
0
70
32
10
1.477876
20
1.805310
30
0
0
VERTEX
8
R2V
62
0
70
32
10
1.672566
20
1.858407
30
0
0
VERTEX
8
R2V
62
0
70
32
10
1.823009
20
1.858407
30
0
0
VERTEX
8
R2V
62
0
70
32
10
1.752212
20
1.805310
30
0
0
VERTEX
8
R2V
62
0
70
32
10
1.442478
20
1.637168
30
0
0
VERTEX
8
R2V
62
0
70
32
10
1.389381
20
1.592920
30
0
0
SEQEND
0
POLYLINE
8
R2V
62
0
66
1
70
8
0
VERTEX
8
R2V
62
0
70
32
10
1.389381
20
1.592920
30
0
0
VERTEX
8
R2V
62
0
70
32
10
1.389381
20
1.584071
30
0
0
VERTEX
8
R2V
62
0
70
32
10
1.548673
20
1.654867
30
0
0
VERTEX
8
R2V
62
0
70
32
10
1.805310
20
1.672566
30
0
0
VERTEX
8
R2V
62
0
70
32
10
1.867257
20
1.672566
30
0
0
VERTEX
8
R2V
62
0
70
32
10
1.893805
20
1.654867
30
0
0
VERTEX
8
R2V
62
0
70
32
10
1.504425
20
1.486726
30
0
0
SEQEND
0
POLYLINE
8
R2V
62
0
66
1
70
8
0
VERTEX
8
R2V
62
0
70
32
10
1.504425
20
1.486726
30
0
0
VERTEX
8
R2V
62
0
70
32
10
1.486726
20
1.477876
30
0
0
VERTEX
8
R2V
62
0
70
32
10
1.584071
20
1.504425
30
0
0
VERTEX
8
R2V
62
0
70
32
10
1.831858
20
1.504425
30
0
0
VERTEX
8
R2V
62
0
70
32
10
1.938053
20
1.460177
30
0
0
VERTEX
8
R2V
62
0
70
32
10
1.566372
20
1.353982
30
0
0
VERTEX
8
R2V
62
0
70
32
10
1.734513
20
1.353982
30
0
0
VERTEX
8
R2V
62
0
70
32
10
1.911504
20
1.292035
30
0
0
VERTEX
8
R2V
62
0
70
32
10
1.920354
20
1.274336
30
0
0
VERTEX
8
R2V
62
0
70
32
10
1.601770
20
1.221239
30
0
0
VERTEX
8
R2V
62
0
70
32
10
1.672566
20
1.221239
30
0
0
VERTEX
8
R2V
62
0
70
32
10
1.867257
20
1.132743
30
0
0
VERTEX
8
R2V
62
0
70
32
10
1.884956
20
1.106195
30
0
0
VERTEX
8
R2V
62
0
70
32
10
1.646018
20
1.079646
30
0
0
VERTEX
8
R2V
62
0
70
32
10
1.672566
20
1.079646
30
0
0
VERTEX
8
R2V
62
0
70
32
10
1.796460
20
1.000000
30
0
0
VERTEX
8
R2V
62
0
70
32
10
1.814159
20
0.964602
30
0
0
VERTEX
8
R2V
62
0
70
32
10
1.610619
20
0.964602
30
0
0
VERTEX
8
R2V
62
0
70
32
10
1.566372
20
1.159292
30
0
0
VERTEX
8
R2V
62
0
70
32
10
1.433628
20
1.353982
30
0
0
VERTEX
8
R2V
62
0
70
32
10
1.274336
20
1.477876
30
0
0
VERTEX
8
R2V
62
0
70
32
10
1.123894
20
1.539823
30
0
0
VERTEX
8
R2V
62
0
70
32
10
0.805310
20
1.548673
30
0
0
VERTEX
8
R2V
62
0
70
32
10
0.610619
20
1.469027
30
0
0
VERTEX
8
R2V
62
0
70
32
10
0.442478
20
1.327434
30
0
0
VERTEX
8
R2V
62
0
70
32
10
0.327434
20
1.150442
30
0
0
VERTEX
8
R2V
62
0
70
32
10
0.274336
20
0.946903
30
0
0
VERTEX
8
R2V
62
0
70
32
10
0.176991
20
1.053097
30
0
0
VERTEX
8
R2V
62
0
70
32
10
0.168142
20
1.123894
30
0
0
VERTEX
8
R2V
62
0
70
32
10
0.265487
20
1.132743
30
0
0
VERTEX
8
R2V
62
0
70
32
10
0.115044
20
1.292035
30
0
0
VERTEX
8
R2V
62
0
70
32
10
0.061947
20
1.398230
30
0
0
VERTEX
8
R2V
62
0
70
32
10
0.053097
20
1.460177
30
0
0
VERTEX
8
R2V
62
0
70
32
10
0.088496
20
1.460177
30
0
0
VERTEX
8
R2V
62
0
70
32
10
0.292035
20
1.371681
30
0
0
VERTEX
8
R2V
62
0
70
32
10
0.159292
20
1.575221
30
0
0
VERTEX
8
R2V
62
0
70
32
10
0.088496
20
1.761062
30
0
0
VERTEX
8
R2V
62
0
70
32
10
0.088496
20
1.884956
30
0
0
VERTEX
8
R2V
62
0
70
32
10
0.097345
20
1.884956
30
0
0
VERTEX
8
R2V
62
0
70
32
10
0.362832
20
1.628319
30
0
0
VERTEX
8
R2V
62
0
70
32
10
0.256637
20
1.911504
30
0
0
VERTEX
8
R2V
62
0
70
32
10
0.230088
20
2.212389
30
0
0
VERTEX
8
R2V
62
0
70
32
10
0.265487
20
2.300885
30
0
0
VERTEX
8
R2V
62
0
70
32
10
0.504425
20
1.858407
30
0
0
VERTEX
8
R2V
62
0
70
32
10
0.451327
20
2.123894
30
0
0
VERTEX
8
R2V
62
0
70
32
10
0.469027
20
2.433628
30
0
0
VERTEX
8
R2V
62
0
70
32
10
0.539823
20
2.646018
30
0
0
VERTEX
8
R2V
62
0
70
32
10
0.566372
20
2.654867
30
0
0
VERTEX
8
R2V
62
0
70
32
10
0.690265
20
2.061947
30
0
0
VERTEX
8
R2V
62
0
70
32
10
0.707965
20
2.407080
30
0
0
VERTEX
8
R2V
62
0
70
32
10
0.796460
20
2.690265
30
0
0
VERTEX
8
R2V
62
0
70
32
10
0.911504
20
2.884956
30
0
0
VERTEX
8
R2V
62
0
70
32
10
0.964602
20
2.938053
30
0
0
VERTEX
8
R2V
62
0
70
32
10
0.920354
20
2.238938
30
0
0
VERTEX
8
R2V
62
0
70
32
10
1.008850
20
2.539823
30
0
0
VERTEX
8
R2V
62
0
70
32
10
1.159292
20
2.814159
30
0
0
VERTEX
8
R2V
62
0
70
32
10
1.327434
20
3.008850
30
0
0
VERTEX
8
R2V
62
0
70
32
10
1.442478
20
3.088496
30
0
0
VERTEX
8
R2V
62
0
70
32
10
1.212389
20
2.451327
30
0
0
VERTEX
8
R2V
62
0
70
32
10
1.203540
20
2.371681
30
0
0
VERTEX
8
R2V
62
0
70
32
10
1.353982
20
2.637168
30
0
0
VERTEX
8
R2V
62
0
70
32
10
1.566372
20
2.884956
30
0
0
VERTEX
8
R2V
62
0
70
32
10
1.805310
20
3.079646
30
0
0
VERTEX
8
R2V
62
0
70
32
10
2.017699
20
3.168142
30
0
0
VERTEX
8
R2V
62
0
70
32
10
1.619469
20
2.628319
30
0
0
VERTEX
8
R2V
62
0
70
32
10
1.495575
20
2.398230
30
0
0
VERTEX
8
R2V
62
0
70
32
10
1.734513
20
2.663717
30
0
0
VERTEX
8
R2V
62
0
70
32
10
2.026549
20
2.867257
30
0
0
VERTEX
8
R2V
62
0
70
32
10
2.274336
20
2.973451
30
0
0
VERTEX
8
R2V
62
0
70
32
10
2.424779
20
2.991150
30
0
0
VERTEX
8
R2V
62
0
70
32
10
1.876106
20
2.486726
30
0
0
VERTEX
8
R2V
62
0
70
32
10
1.743363
20
2.309735
30
0
0
VERTEX
8
R2V
62
0
70
32
10
1.964602
20
2.495575
30
0
0
VERTEX
8
R2V
62
0
70
32
10
2.283186
20
2.654867
30
0
0
VERTEX
8
R2V
62
0
70
32
10
2.530973
20
2.716814
30
0
0
VERTEX
8
R2V
62
0
70
32
10
2.681416
20
2.716814
30
0
0
VERTEX
8
R2V
62
0
70
32
10
2.132743
20
2.336283
30
0
0
VERTEX
8
R2V
62
0
70
32
10
2.008850
20
2.221239
30
0
0
SEQEND
0
ENDSEC
0
EOF
